%TF.GenerationSoftware,KiCad,Pcbnew,9.0.6*%
%TF.CreationDate,2025-12-30T19:39:25-08:00*%
%TF.ProjectId,Sigma1,5369676d-6131-42e6-9b69-6361645f7063,rev?*%
%TF.SameCoordinates,Original*%
%TF.FileFunction,Paste,Top*%
%TF.FilePolarity,Positive*%
%FSLAX46Y46*%
G04 Gerber Fmt 4.6, Leading zero omitted, Abs format (unit mm)*
G04 Created by KiCad (PCBNEW 9.0.6) date 2025-12-30 19:39:25*
%MOMM*%
%LPD*%
G01*
G04 APERTURE LIST*
G04 Aperture macros list*
%AMRoundRect*
0 Rectangle with rounded corners*
0 $1 Rounding radius*
0 $2 $3 $4 $5 $6 $7 $8 $9 X,Y pos of 4 corners*
0 Add a 4 corners polygon primitive as box body*
4,1,4,$2,$3,$4,$5,$6,$7,$8,$9,$2,$3,0*
0 Add four circle primitives for the rounded corners*
1,1,$1+$1,$2,$3*
1,1,$1+$1,$4,$5*
1,1,$1+$1,$6,$7*
1,1,$1+$1,$8,$9*
0 Add four rect primitives between the rounded corners*
20,1,$1+$1,$2,$3,$4,$5,0*
20,1,$1+$1,$4,$5,$6,$7,0*
20,1,$1+$1,$6,$7,$8,$9,0*
20,1,$1+$1,$8,$9,$2,$3,0*%
G04 Aperture macros list end*
%ADD10RoundRect,0.237500X0.237500X-0.250000X0.237500X0.250000X-0.237500X0.250000X-0.237500X-0.250000X0*%
%ADD11RoundRect,0.087500X-0.207500X-0.087500X0.207500X-0.087500X0.207500X0.087500X-0.207500X0.087500X0*%
%ADD12RoundRect,0.087500X-0.087500X-0.207500X0.087500X-0.207500X0.087500X0.207500X-0.087500X0.207500X0*%
%ADD13RoundRect,0.237500X-0.237500X0.250000X-0.237500X-0.250000X0.237500X-0.250000X0.237500X0.250000X0*%
%ADD14RoundRect,0.225000X0.225000X0.250000X-0.225000X0.250000X-0.225000X-0.250000X0.225000X-0.250000X0*%
%ADD15RoundRect,0.200000X-0.200000X-0.275000X0.200000X-0.275000X0.200000X0.275000X-0.200000X0.275000X0*%
%ADD16R,1.230000X1.860000*%
%ADD17RoundRect,0.225000X-0.225000X-0.250000X0.225000X-0.250000X0.225000X0.250000X-0.225000X0.250000X0*%
%ADD18R,0.900000X0.900000*%
%ADD19R,1.500000X0.900000*%
%ADD20R,0.900000X1.500000*%
%ADD21RoundRect,0.200000X0.275000X-0.200000X0.275000X0.200000X-0.275000X0.200000X-0.275000X-0.200000X0*%
%ADD22R,1.970000X0.570000*%
%ADD23RoundRect,0.225000X-0.250000X0.225000X-0.250000X-0.225000X0.250000X-0.225000X0.250000X0.225000X0*%
%ADD24RoundRect,0.162500X0.650000X0.162500X-0.650000X0.162500X-0.650000X-0.162500X0.650000X-0.162500X0*%
%ADD25RoundRect,0.150000X-0.587500X-0.150000X0.587500X-0.150000X0.587500X0.150000X-0.587500X0.150000X0*%
%ADD26RoundRect,0.225000X0.250000X-0.225000X0.250000X0.225000X-0.250000X0.225000X-0.250000X-0.225000X0*%
%ADD27R,0.300000X0.300000*%
%ADD28RoundRect,0.375000X0.375000X-0.625000X0.375000X0.625000X-0.375000X0.625000X-0.375000X-0.625000X0*%
%ADD29RoundRect,0.500000X1.400000X-0.500000X1.400000X0.500000X-1.400000X0.500000X-1.400000X-0.500000X0*%
%ADD30R,1.000000X0.800000*%
%ADD31R,1.450000X0.600000*%
%ADD32R,1.450000X0.300000*%
%ADD33RoundRect,0.150000X-0.512500X-0.150000X0.512500X-0.150000X0.512500X0.150000X-0.512500X0.150000X0*%
G04 APERTURE END LIST*
D10*
%TO.C,R4*%
X31900000Y-71812500D03*
X31900000Y-69987500D03*
%TD*%
D11*
%TO.C,U3*%
X30585000Y-41250000D03*
X30585000Y-41750000D03*
X30585000Y-42250000D03*
X30585000Y-42750000D03*
D12*
X31250000Y-42915000D03*
X31750000Y-42915000D03*
X32250000Y-42915000D03*
D11*
X32915000Y-42750000D03*
X32915000Y-42250000D03*
X32915000Y-41750000D03*
X32915000Y-41250000D03*
D12*
X32250000Y-41085000D03*
X31750000Y-41085000D03*
X31250000Y-41085000D03*
%TD*%
D13*
%TO.C,R3*%
X27750000Y-70587500D03*
X27750000Y-72412500D03*
%TD*%
D14*
%TO.C,C2*%
X18200000Y-45100000D03*
X16650000Y-45100000D03*
%TD*%
D15*
%TO.C,R6*%
X46250000Y-19300000D03*
X47900000Y-19300000D03*
%TD*%
D14*
%TO.C,C16*%
X25275000Y-64500000D03*
X23725000Y-64500000D03*
%TD*%
D16*
%TO.C,SW1*%
X50060000Y-34700000D03*
X45700000Y-34700000D03*
%TD*%
D17*
%TO.C,C9*%
X26975000Y-45250000D03*
X28525000Y-45250000D03*
%TD*%
%TO.C,C8*%
X26975000Y-43500000D03*
X28525000Y-43500000D03*
%TD*%
D18*
%TO.C,U1*%
X32850000Y-19780000D03*
X32850000Y-21180000D03*
X32850000Y-22580000D03*
X34250000Y-19780000D03*
X34250000Y-21180000D03*
X34250000Y-22580000D03*
X35650000Y-19780000D03*
X35650000Y-21180000D03*
X35650000Y-22580000D03*
D19*
X27000000Y-13460000D03*
X27000000Y-14730000D03*
X27000000Y-16000000D03*
X27000000Y-17270000D03*
X27000000Y-18540000D03*
X27000000Y-19810000D03*
X27000000Y-21080000D03*
X27000000Y-22350000D03*
X27000000Y-23620000D03*
X27000000Y-24890000D03*
X27000000Y-26160000D03*
X27000000Y-27430000D03*
X27000000Y-28700000D03*
X27000000Y-29970000D03*
D20*
X28765000Y-31220000D03*
X30035000Y-31220000D03*
X31305000Y-31220000D03*
X32575000Y-31220000D03*
X33845000Y-31220000D03*
X35115000Y-31220000D03*
X36385000Y-31220000D03*
X37655000Y-31220000D03*
X38925000Y-31220000D03*
X40195000Y-31220000D03*
X41465000Y-31220000D03*
X42735000Y-31220000D03*
D19*
X44500000Y-29970000D03*
X44500000Y-28700000D03*
X44500000Y-27430000D03*
X44500000Y-26160000D03*
X44500000Y-24890000D03*
X44500000Y-23620000D03*
X44500000Y-22350000D03*
X44500000Y-21080000D03*
X44500000Y-19810000D03*
X44500000Y-18540000D03*
X44500000Y-17270000D03*
X44500000Y-16000000D03*
X44500000Y-14730000D03*
X44500000Y-13460000D03*
%TD*%
D21*
%TO.C,R1*%
X25000000Y-53575000D03*
X25000000Y-51925000D03*
%TD*%
D15*
%TO.C,R7*%
X40575000Y-63680000D03*
X42225000Y-63680000D03*
%TD*%
%TO.C,R2*%
X22850000Y-20000000D03*
X24500000Y-20000000D03*
%TD*%
D13*
%TO.C,R5*%
X29750000Y-68837500D03*
X29750000Y-70662500D03*
%TD*%
D14*
%TO.C,C1*%
X18725000Y-46600000D03*
X17175000Y-46600000D03*
%TD*%
D22*
%TO.C,U7*%
X34600000Y-32690000D03*
X34600000Y-33960000D03*
X34600000Y-35230000D03*
X34600000Y-36500000D03*
X39550000Y-36500000D03*
X39550000Y-35230000D03*
X39550000Y-33960000D03*
X39550000Y-32690000D03*
%TD*%
D16*
%TO.C,SW3*%
X18740000Y-23500000D03*
X23100000Y-23500000D03*
%TD*%
D23*
%TO.C,C11*%
X34750000Y-38650000D03*
X34750000Y-40200000D03*
%TD*%
D24*
%TO.C,U8*%
X37837500Y-50155000D03*
X37837500Y-48885000D03*
X37837500Y-47615000D03*
X37837500Y-46345000D03*
X30662500Y-46345000D03*
X30662500Y-47615000D03*
X30662500Y-48885000D03*
X30662500Y-50155000D03*
%TD*%
D17*
%TO.C,C12*%
X26325000Y-49000000D03*
X27875000Y-49000000D03*
%TD*%
D25*
%TO.C,Q3*%
X43800000Y-52310000D03*
X43800000Y-54210000D03*
X45675000Y-53260000D03*
%TD*%
D23*
%TO.C,C18*%
X32000000Y-66475000D03*
X32000000Y-68025000D03*
%TD*%
D26*
%TO.C,C15*%
X21250000Y-72525000D03*
X21250000Y-70975000D03*
%TD*%
D27*
%TO.C,U5*%
X29770000Y-34980000D03*
X30270000Y-34980000D03*
X30800000Y-34700000D03*
X30800000Y-34200000D03*
X30800000Y-33700000D03*
X30270000Y-33420000D03*
X29770000Y-33420000D03*
X29240000Y-33700000D03*
X29240000Y-34200000D03*
X29240000Y-34700000D03*
%TD*%
D26*
%TO.C,C10*%
X26250000Y-37775000D03*
X26250000Y-36225000D03*
%TD*%
D14*
%TO.C,C17*%
X25300000Y-62000000D03*
X23750000Y-62000000D03*
%TD*%
D28*
%TO.C,U2*%
X15400000Y-43000000D03*
X17700000Y-43000000D03*
D29*
X17700000Y-36700000D03*
D28*
X20000000Y-43000000D03*
%TD*%
D17*
%TO.C,C6*%
X26825000Y-33900000D03*
X28375000Y-33900000D03*
%TD*%
D30*
%TO.C,Y1*%
X34900000Y-42850000D03*
X37600000Y-42850000D03*
X37600000Y-41650000D03*
X34900000Y-41650000D03*
%TD*%
D31*
%TO.C,P1*%
X22045000Y-51750000D03*
X22045000Y-52550000D03*
D32*
X22045000Y-53750000D03*
X22045000Y-54750000D03*
X22045000Y-55250000D03*
X22045000Y-56250000D03*
D31*
X22045000Y-57450000D03*
X22045000Y-58250000D03*
X22045000Y-58250000D03*
X22045000Y-57450000D03*
D32*
X22045000Y-56750000D03*
X22045000Y-55750000D03*
X22045000Y-54250000D03*
X22045000Y-53250000D03*
D31*
X22045000Y-52550000D03*
X22045000Y-51750000D03*
%TD*%
D15*
%TO.C,R13*%
X43975000Y-72510000D03*
X45625000Y-72510000D03*
%TD*%
D26*
%TO.C,C14*%
X21000000Y-69525000D03*
X21000000Y-67975000D03*
%TD*%
D33*
%TO.C,U6*%
X25462500Y-67050000D03*
X25462500Y-68000000D03*
X25462500Y-68950000D03*
X27737500Y-68950000D03*
X27737500Y-68000000D03*
X27737500Y-67050000D03*
%TD*%
D14*
%TO.C,C3*%
X17775000Y-29250000D03*
X16225000Y-29250000D03*
%TD*%
D25*
%TO.C,Q4*%
X44362500Y-75810000D03*
X44362500Y-77710000D03*
X46237500Y-76760000D03*
%TD*%
D15*
%TO.C,R8*%
X46250000Y-20900000D03*
X47900000Y-20900000D03*
%TD*%
D17*
%TO.C,C7*%
X26325000Y-47000000D03*
X27875000Y-47000000D03*
%TD*%
D25*
%TO.C,Q2*%
X43612500Y-59810000D03*
X43612500Y-61710000D03*
X45487500Y-60760000D03*
%TD*%
D15*
%TO.C,R10*%
X46350000Y-22500000D03*
X48000000Y-22500000D03*
%TD*%
D26*
%TO.C,C5*%
X24500000Y-15300000D03*
X24500000Y-13750000D03*
%TD*%
D15*
%TO.C,R12*%
X46275000Y-24300000D03*
X47925000Y-24300000D03*
%TD*%
D26*
%TO.C,C13*%
X23300000Y-69400000D03*
X23300000Y-67850000D03*
%TD*%
D15*
%TO.C,R9*%
X46475000Y-58260000D03*
X48125000Y-58260000D03*
%TD*%
D25*
%TO.C,Q1*%
X43800000Y-67060000D03*
X43800000Y-68960000D03*
X45675000Y-68010000D03*
%TD*%
D15*
%TO.C,R11*%
X47475000Y-66260000D03*
X49125000Y-66260000D03*
%TD*%
D17*
%TO.C,C4*%
X41975000Y-36750000D03*
X43525000Y-36750000D03*
%TD*%
D26*
%TO.C,C19*%
X22500000Y-16525000D03*
X22500000Y-14975000D03*
%TD*%
M02*
