%TF.GenerationSoftware,KiCad,Pcbnew,9.0.6*%
%TF.CreationDate,2025-12-29T20:27:24-08:00*%
%TF.ProjectId,Sigma1,5369676d-6131-42e6-9b69-6361645f7063,rev?*%
%TF.SameCoordinates,Original*%
%TF.FileFunction,Copper,L2,Bot*%
%TF.FilePolarity,Positive*%
%FSLAX46Y46*%
G04 Gerber Fmt 4.6, Leading zero omitted, Abs format (unit mm)*
G04 Created by KiCad (PCBNEW 9.0.6) date 2025-12-29 20:27:24*
%MOMM*%
%LPD*%
G01*
G04 APERTURE LIST*
G04 Aperture macros list*
%AMRoundRect*
0 Rectangle with rounded corners*
0 $1 Rounding radius*
0 $2 $3 $4 $5 $6 $7 $8 $9 X,Y pos of 4 corners*
0 Add a 4 corners polygon primitive as box body*
4,1,4,$2,$3,$4,$5,$6,$7,$8,$9,$2,$3,0*
0 Add four circle primitives for the rounded corners*
1,1,$1+$1,$2,$3*
1,1,$1+$1,$4,$5*
1,1,$1+$1,$6,$7*
1,1,$1+$1,$8,$9*
0 Add four rect primitives between the rounded corners*
20,1,$1+$1,$2,$3,$4,$5,0*
20,1,$1+$1,$4,$5,$6,$7,0*
20,1,$1+$1,$6,$7,$8,$9,0*
20,1,$1+$1,$8,$9,$2,$3,0*%
G04 Aperture macros list end*
%TA.AperFunction,ComponentPad*%
%ADD10RoundRect,0.250000X0.750000X-0.750000X0.750000X0.750000X-0.750000X0.750000X-0.750000X-0.750000X0*%
%TD*%
%TA.AperFunction,ComponentPad*%
%ADD11C,2.000000*%
%TD*%
%TA.AperFunction,HeatsinkPad*%
%ADD12C,0.600000*%
%TD*%
%TA.AperFunction,ComponentPad*%
%ADD13RoundRect,0.760000X-1.140000X1.140000X-1.140000X-1.140000X1.140000X-1.140000X1.140000X1.140000X0*%
%TD*%
%TA.AperFunction,ComponentPad*%
%ADD14C,4.000000*%
%TD*%
%TA.AperFunction,HeatsinkPad*%
%ADD15O,2.100000X1.000000*%
%TD*%
%TA.AperFunction,HeatsinkPad*%
%ADD16O,1.600000X1.000000*%
%TD*%
%TA.AperFunction,ViaPad*%
%ADD17C,0.600000*%
%TD*%
%TA.AperFunction,Conductor*%
%ADD18C,0.200000*%
%TD*%
%TA.AperFunction,Conductor*%
%ADD19C,1.000000*%
%TD*%
%TA.AperFunction,Conductor*%
%ADD20C,1.500000*%
%TD*%
G04 APERTURE END LIST*
D10*
%TO.P,J11,1,Pin_1*%
%TO.N,Net-(J11-Pin_1)*%
X53800000Y-54520000D03*
D11*
%TO.P,J11,2,Pin_2*%
%TO.N,GND*%
X53800000Y-51980000D03*
%TD*%
D10*
%TO.P,J9,1,Pin_1*%
%TO.N,Net-(J9-Pin_1)*%
X53800000Y-69800000D03*
D11*
%TO.P,J9,2,Pin_2*%
%TO.N,GND*%
X53800000Y-67260000D03*
%TD*%
D12*
%TO.P,U1,41,GND*%
%TO.N,GND*%
X32850000Y-20480000D03*
X32850000Y-21880000D03*
X33550000Y-19780000D03*
X33550000Y-21180000D03*
X33550000Y-22580000D03*
X34250000Y-20480000D03*
X34250000Y-21880000D03*
X34950000Y-19780000D03*
X34950000Y-21180000D03*
X34950000Y-22580000D03*
X35650000Y-20480000D03*
X35650000Y-21880000D03*
%TD*%
D13*
%TO.P,J1,1,Pin_1*%
%TO.N,GND*%
X16500000Y-67500000D03*
D14*
%TO.P,J1,2,Pin_2*%
%TO.N,NFVCC*%
X16500000Y-72500000D03*
%TD*%
D10*
%TO.P,J10,1,Pin_1*%
%TO.N,Net-(J10-Pin_1)*%
X53800000Y-62160000D03*
D11*
%TO.P,J10,2,Pin_2*%
%TO.N,GND*%
X53800000Y-59620000D03*
%TD*%
D15*
%TO.P,P1,S1,SHIELD*%
%TO.N,GND*%
X21130000Y-50680000D03*
D16*
X16950000Y-50680000D03*
D15*
X21130000Y-59320000D03*
D16*
X16950000Y-59320000D03*
%TD*%
D10*
%TO.P,J2,1,Pin_1*%
%TO.N,Net-(J2-Pin_1)*%
X53800000Y-77440000D03*
D11*
%TO.P,J2,2,Pin_2*%
%TO.N,GND*%
X53800000Y-74900000D03*
%TD*%
D17*
%TO.N,GND*%
X45786800Y-37433300D03*
X16800000Y-63600000D03*
X22483600Y-71174500D03*
X38748900Y-37420900D03*
X27700400Y-44424600D03*
X36190000Y-46684000D03*
%TO.N,VCC*%
X24557300Y-39494700D03*
X36979600Y-32929000D03*
X32185900Y-37320000D03*
X20950500Y-39414700D03*
X28989500Y-29289600D03*
X54860900Y-38711400D03*
%TO.N,NFVCC*%
X16400000Y-77600000D03*
X48200000Y-60459000D03*
X44362500Y-77710000D03*
X48255900Y-64952800D03*
X47200000Y-79400000D03*
X48200000Y-72100000D03*
%TO.N,SERVO1*%
X17668500Y-82280500D03*
X37175800Y-79261400D03*
%TO.N,SERVO2*%
X39857000Y-39033500D03*
X32723600Y-78838100D03*
X37838900Y-80301900D03*
X40404600Y-43670400D03*
%TO.N,GPIO4*%
X28330900Y-23327500D03*
X55847200Y-39414700D03*
%TO.N,GPIO3*%
X29474000Y-29963900D03*
X52717900Y-36571200D03*
%TO.N,Net-(Q1-G)*%
X47938800Y-40173800D03*
X48881600Y-39414700D03*
%TO.N,Net-(Q2-G)*%
X43926200Y-56941000D03*
X47529800Y-52951500D03*
%TO.N,Net-(Q3-G)*%
X42019900Y-61199600D03*
X46686800Y-66942100D03*
%TO.N,SPI_SCLK*%
X34743300Y-36184900D03*
X30900400Y-39481900D03*
X33037600Y-48295000D03*
X35574700Y-34297000D03*
%TO.N,SPI_MISO*%
X27390700Y-31194600D03*
X36000100Y-27829500D03*
X29704500Y-40254500D03*
X38704700Y-43374900D03*
%TO.N,SCL*%
X28330900Y-19974400D03*
X53011900Y-22034400D03*
%TO.N,IMU_CS*%
X35872900Y-33223700D03*
X33301800Y-37607300D03*
%TO.N,SPI_MOSI*%
X30045700Y-36123400D03*
X38095700Y-44118900D03*
X35687300Y-37446100D03*
X34101700Y-34055200D03*
%TO.N,FLASH_CS*%
X47476400Y-38210700D03*
X39153600Y-50006300D03*
%TO.N,SDA*%
X52405200Y-18966900D03*
X24658900Y-18608300D03*
%TD*%
D18*
%TO.N,GND*%
X21130000Y-50680000D02*
X22481700Y-50680000D01*
D19*
X48801000Y-59008000D02*
X51400000Y-61607000D01*
D18*
X20658500Y-59333600D02*
X18065300Y-59333600D01*
X18809100Y-67500000D02*
X16500000Y-67500000D01*
X34950000Y-22580000D02*
X33550000Y-22580000D01*
X34950000Y-21880000D02*
X34250000Y-21880000D01*
X18065300Y-59333600D02*
X18051700Y-59320000D01*
X45786800Y-37433300D02*
X45774400Y-37420900D01*
X20658500Y-59741500D02*
X20658500Y-59333600D01*
X35650000Y-21880000D02*
X34950000Y-21880000D01*
X22483600Y-71174500D02*
X18809100Y-67500000D01*
X36190000Y-46684000D02*
X27700400Y-46684000D01*
X34950000Y-21880000D02*
X34950000Y-21180000D01*
X32850000Y-20480000D02*
X34250000Y-20480000D01*
X26477700Y-46684000D02*
X22481700Y-50680000D01*
X27700400Y-46684000D02*
X26477700Y-46684000D01*
D19*
X21392000Y-59008000D02*
X48801000Y-59008000D01*
X51400000Y-64860000D02*
X53800000Y-67260000D01*
D18*
X21130000Y-50680000D02*
X16950000Y-50680000D01*
X45774400Y-37420900D02*
X38748900Y-37420900D01*
X27700400Y-46684000D02*
X27700400Y-44424600D01*
D19*
X51400000Y-61607000D02*
X51400000Y-64860000D01*
X16800000Y-63600000D02*
X20658500Y-59741500D01*
D18*
X21116400Y-59333600D02*
X20658500Y-59333600D01*
D19*
X20658500Y-59741500D02*
X21392000Y-59008000D01*
D18*
X16950000Y-59320000D02*
X18051700Y-59320000D01*
X21130000Y-59320000D02*
X21116400Y-59333600D01*
%TO.N,VCC*%
X54860900Y-38711400D02*
X49117700Y-38711400D01*
X32184300Y-37318400D02*
X32185900Y-37320000D01*
X24477300Y-39414700D02*
X24557300Y-39494700D01*
X40097600Y-36047000D02*
X36979600Y-32929000D01*
X36657200Y-32606600D02*
X28824800Y-32606600D01*
X24557300Y-39494700D02*
X26733600Y-37318400D01*
X49117700Y-38711400D02*
X46453300Y-36047000D01*
X28824800Y-29454300D02*
X28824800Y-32606600D01*
X26733600Y-37318400D02*
X28824800Y-37318400D01*
X28824800Y-37318400D02*
X32184300Y-37318400D01*
X46453300Y-36047000D02*
X40097600Y-36047000D01*
X28824800Y-37318400D02*
X28824800Y-32606600D01*
X36979600Y-32929000D02*
X36657200Y-32606600D01*
X20950500Y-39414700D02*
X24477300Y-39414700D01*
X28989500Y-29289600D02*
X28824800Y-29454300D01*
D19*
%TO.N,NFVCC*%
X45700000Y-77600000D02*
X47200000Y-76100000D01*
D20*
X48200000Y-60459000D02*
X48200000Y-65679500D01*
D19*
X16400000Y-77600000D02*
X45700000Y-77600000D01*
D20*
X48200000Y-70900000D02*
X47200000Y-71900000D01*
X48200000Y-65679500D02*
X48200000Y-70900000D01*
D18*
X48200000Y-65679500D02*
X48255900Y-65623600D01*
D20*
X47200000Y-76100000D02*
X47200000Y-79400000D01*
X48200000Y-70900000D02*
X48200000Y-72100000D01*
D18*
X48255900Y-65623600D02*
X48255900Y-64952800D01*
D20*
X47200000Y-71900000D02*
X47200000Y-76100000D01*
D18*
%TO.N,SERVO1*%
X17668500Y-82280500D02*
X34156700Y-82280500D01*
X34156700Y-82280500D02*
X37175800Y-79261400D01*
%TO.N,SERVO2*%
X37421200Y-78651600D02*
X37838900Y-79069300D01*
X32723600Y-78838100D02*
X32910100Y-78651600D01*
X40404600Y-39581100D02*
X39857000Y-39033500D01*
X32910100Y-78651600D02*
X37421200Y-78651600D01*
X37838900Y-79069300D02*
X37838900Y-80301900D01*
X40404600Y-43670400D02*
X40404600Y-39581100D01*
%TO.N,GPIO4*%
X55847200Y-38840300D02*
X40334400Y-23327500D01*
X40334400Y-23327500D02*
X28330900Y-23327500D01*
X55847200Y-39414700D02*
X55847200Y-38840300D01*
%TO.N,GPIO3*%
X46110600Y-29963900D02*
X29474000Y-29963900D01*
X52717900Y-36571200D02*
X46110600Y-29963900D01*
%TO.N,Net-(Q1-G)*%
X48697900Y-39414700D02*
X48881600Y-39414700D01*
X47938800Y-40173800D02*
X48697900Y-39414700D01*
%TO.N,Net-(Q2-G)*%
X43926200Y-56555100D02*
X43926200Y-56941000D01*
X47529800Y-52951500D02*
X43926200Y-56555100D01*
%TO.N,Net-(Q3-G)*%
X42019900Y-62275200D02*
X42019900Y-61199600D01*
X46686800Y-66942100D02*
X42019900Y-62275200D01*
%TO.N,SPI_SCLK*%
X35294200Y-36184900D02*
X34743300Y-36184900D01*
X34743300Y-35128400D02*
X34743300Y-36184900D01*
X33037600Y-48295000D02*
X35429900Y-48295000D01*
X39307700Y-40198400D02*
X35294200Y-36184900D01*
X35429900Y-48295000D02*
X36838400Y-46886500D01*
X38213600Y-45419900D02*
X39307700Y-44325800D01*
X36838400Y-45419900D02*
X30900400Y-39481900D01*
X39307700Y-44325800D02*
X39307700Y-40198400D01*
X36838400Y-46886500D02*
X36838400Y-45419900D01*
X35574700Y-34297000D02*
X34743300Y-35128400D01*
X36838400Y-45419900D02*
X38213600Y-45419900D01*
%TO.N,SPI_MISO*%
X38344900Y-44720600D02*
X38697400Y-44368100D01*
X38697400Y-44368100D02*
X38697400Y-43382200D01*
X29704500Y-40254500D02*
X29704500Y-39741300D01*
X27390700Y-31194600D02*
X27390700Y-30029400D01*
X29590600Y-27829500D02*
X36000100Y-27829500D01*
X27390700Y-30029400D02*
X29590600Y-27829500D01*
X30568000Y-38877800D02*
X31942900Y-38877800D01*
X37785700Y-44720600D02*
X38344900Y-44720600D01*
X38697400Y-43382200D02*
X38704700Y-43374900D01*
X31942900Y-38877800D02*
X37785700Y-44720600D01*
X29704500Y-39741300D02*
X30568000Y-38877800D01*
%TO.N,SCL*%
X28330900Y-19974400D02*
X29130200Y-19175100D01*
X50152600Y-19175100D02*
X53011900Y-22034400D01*
X29130200Y-19175100D02*
X50152600Y-19175100D01*
%TO.N,IMU_CS*%
X31272500Y-36718200D02*
X31265500Y-36725200D01*
X32088300Y-33223700D02*
X35872900Y-33223700D01*
X29796200Y-36725200D02*
X29442700Y-36371700D01*
X31265500Y-36725200D02*
X29796200Y-36725200D01*
X29442700Y-35869300D02*
X32088300Y-33223700D01*
X33301800Y-37520700D02*
X32499300Y-36718200D01*
X33301800Y-37607300D02*
X33301800Y-37520700D01*
X29442700Y-36371700D02*
X29442700Y-35869300D01*
X32499300Y-36718200D02*
X31272500Y-36718200D01*
%TO.N,SPI_MOSI*%
X38095700Y-44118900D02*
X35687300Y-41710500D01*
X30045700Y-36123400D02*
X32670300Y-36123400D01*
X32670300Y-36123400D02*
X33993000Y-37446100D01*
X32670300Y-35486600D02*
X34101700Y-34055200D01*
X33993000Y-37446100D02*
X35687300Y-37446100D01*
X35687300Y-41710500D02*
X35687300Y-37446100D01*
X32670300Y-36123400D02*
X32670300Y-35486600D01*
%TO.N,FLASH_CS*%
X39153600Y-46533500D02*
X39153600Y-50006300D01*
X47476400Y-38210700D02*
X39153600Y-46533500D01*
%TO.N,SDA*%
X24658900Y-18608300D02*
X52046600Y-18608300D01*
X52046600Y-18608300D02*
X52405200Y-18966900D01*
%TD*%
M02*
