%TF.GenerationSoftware,KiCad,Pcbnew,9.0.6*%
%TF.CreationDate,2025-12-29T20:27:24-08:00*%
%TF.ProjectId,Sigma1,5369676d-6131-42e6-9b69-6361645f7063,rev?*%
%TF.SameCoordinates,Original*%
%TF.FileFunction,Copper,L1,Top*%
%TF.FilePolarity,Positive*%
%FSLAX46Y46*%
G04 Gerber Fmt 4.6, Leading zero omitted, Abs format (unit mm)*
G04 Created by KiCad (PCBNEW 9.0.6) date 2025-12-29 20:27:24*
%MOMM*%
%LPD*%
G01*
G04 APERTURE LIST*
G04 Aperture macros list*
%AMRoundRect*
0 Rectangle with rounded corners*
0 $1 Rounding radius*
0 $2 $3 $4 $5 $6 $7 $8 $9 X,Y pos of 4 corners*
0 Add a 4 corners polygon primitive as box body*
4,1,4,$2,$3,$4,$5,$6,$7,$8,$9,$2,$3,0*
0 Add four circle primitives for the rounded corners*
1,1,$1+$1,$2,$3*
1,1,$1+$1,$4,$5*
1,1,$1+$1,$6,$7*
1,1,$1+$1,$8,$9*
0 Add four rect primitives between the rounded corners*
20,1,$1+$1,$2,$3,$4,$5,0*
20,1,$1+$1,$4,$5,$6,$7,0*
20,1,$1+$1,$6,$7,$8,$9,0*
20,1,$1+$1,$8,$9,$2,$3,0*%
G04 Aperture macros list end*
%TA.AperFunction,ComponentPad*%
%ADD10RoundRect,0.250000X0.750000X-0.750000X0.750000X0.750000X-0.750000X0.750000X-0.750000X-0.750000X0*%
%TD*%
%TA.AperFunction,ComponentPad*%
%ADD11C,2.000000*%
%TD*%
%TA.AperFunction,SMDPad,CuDef*%
%ADD12RoundRect,0.237500X0.237500X-0.250000X0.237500X0.250000X-0.237500X0.250000X-0.237500X-0.250000X0*%
%TD*%
%TA.AperFunction,SMDPad,CuDef*%
%ADD13RoundRect,0.087500X-0.207500X-0.087500X0.207500X-0.087500X0.207500X0.087500X-0.207500X0.087500X0*%
%TD*%
%TA.AperFunction,SMDPad,CuDef*%
%ADD14RoundRect,0.087500X-0.087500X-0.207500X0.087500X-0.207500X0.087500X0.207500X-0.087500X0.207500X0*%
%TD*%
%TA.AperFunction,SMDPad,CuDef*%
%ADD15RoundRect,0.237500X-0.237500X0.250000X-0.237500X-0.250000X0.237500X-0.250000X0.237500X0.250000X0*%
%TD*%
%TA.AperFunction,SMDPad,CuDef*%
%ADD16RoundRect,0.225000X0.225000X0.250000X-0.225000X0.250000X-0.225000X-0.250000X0.225000X-0.250000X0*%
%TD*%
%TA.AperFunction,SMDPad,CuDef*%
%ADD17RoundRect,0.200000X-0.200000X-0.275000X0.200000X-0.275000X0.200000X0.275000X-0.200000X0.275000X0*%
%TD*%
%TA.AperFunction,SMDPad,CuDef*%
%ADD18RoundRect,0.225000X-0.225000X-0.250000X0.225000X-0.250000X0.225000X0.250000X-0.225000X0.250000X0*%
%TD*%
%TA.AperFunction,SMDPad,CuDef*%
%ADD19R,0.950000X0.550000*%
%TD*%
%TA.AperFunction,SMDPad,CuDef*%
%ADD20R,1.500000X0.900000*%
%TD*%
%TA.AperFunction,SMDPad,CuDef*%
%ADD21R,0.900000X1.500000*%
%TD*%
%TA.AperFunction,HeatsinkPad*%
%ADD22C,0.600000*%
%TD*%
%TA.AperFunction,HeatsinkPad*%
%ADD23R,3.900000X3.900000*%
%TD*%
%TA.AperFunction,SMDPad,CuDef*%
%ADD24RoundRect,0.200000X0.275000X-0.200000X0.275000X0.200000X-0.275000X0.200000X-0.275000X-0.200000X0*%
%TD*%
%TA.AperFunction,SMDPad,CuDef*%
%ADD25R,1.700000X0.900000*%
%TD*%
%TA.AperFunction,SMDPad,CuDef*%
%ADD26RoundRect,0.225000X-0.250000X0.225000X-0.250000X-0.225000X0.250000X-0.225000X0.250000X0.225000X0*%
%TD*%
%TA.AperFunction,SMDPad,CuDef*%
%ADD27RoundRect,0.162500X0.650000X0.162500X-0.650000X0.162500X-0.650000X-0.162500X0.650000X-0.162500X0*%
%TD*%
%TA.AperFunction,ComponentPad*%
%ADD28RoundRect,0.760000X-1.140000X1.140000X-1.140000X-1.140000X1.140000X-1.140000X1.140000X1.140000X0*%
%TD*%
%TA.AperFunction,ComponentPad*%
%ADD29C,4.000000*%
%TD*%
%TA.AperFunction,SMDPad,CuDef*%
%ADD30R,1.900000X1.000000*%
%TD*%
%TA.AperFunction,SMDPad,CuDef*%
%ADD31RoundRect,0.150000X-0.587500X-0.150000X0.587500X-0.150000X0.587500X0.150000X-0.587500X0.150000X0*%
%TD*%
%TA.AperFunction,SMDPad,CuDef*%
%ADD32R,2.510000X1.000000*%
%TD*%
%TA.AperFunction,SMDPad,CuDef*%
%ADD33RoundRect,0.062500X-0.356250X-0.062500X0.356250X-0.062500X0.356250X0.062500X-0.356250X0.062500X0*%
%TD*%
%TA.AperFunction,SMDPad,CuDef*%
%ADD34RoundRect,0.062500X-0.062500X-0.356250X0.062500X-0.356250X0.062500X0.356250X-0.062500X0.356250X0*%
%TD*%
%TA.AperFunction,HeatsinkPad*%
%ADD35R,1.675000X1.675000*%
%TD*%
%TA.AperFunction,SMDPad,CuDef*%
%ADD36RoundRect,0.225000X0.250000X-0.225000X0.250000X0.225000X-0.250000X0.225000X-0.250000X-0.225000X0*%
%TD*%
%TA.AperFunction,SMDPad,CuDef*%
%ADD37RoundRect,0.375000X0.375000X-0.625000X0.375000X0.625000X-0.375000X0.625000X-0.375000X-0.625000X0*%
%TD*%
%TA.AperFunction,SMDPad,CuDef*%
%ADD38RoundRect,0.500000X1.400000X-0.500000X1.400000X0.500000X-1.400000X0.500000X-1.400000X-0.500000X0*%
%TD*%
%TA.AperFunction,SMDPad,CuDef*%
%ADD39R,0.900000X1.700000*%
%TD*%
%TA.AperFunction,SMDPad,CuDef*%
%ADD40R,1.000000X0.800000*%
%TD*%
%TA.AperFunction,SMDPad,CuDef*%
%ADD41R,1.450000X0.600000*%
%TD*%
%TA.AperFunction,SMDPad,CuDef*%
%ADD42R,1.450000X0.300000*%
%TD*%
%TA.AperFunction,HeatsinkPad*%
%ADD43O,2.100000X1.000000*%
%TD*%
%TA.AperFunction,HeatsinkPad*%
%ADD44O,1.600000X1.000000*%
%TD*%
%TA.AperFunction,SMDPad,CuDef*%
%ADD45RoundRect,0.150000X-0.512500X-0.150000X0.512500X-0.150000X0.512500X0.150000X-0.512500X0.150000X0*%
%TD*%
%TA.AperFunction,ViaPad*%
%ADD46C,0.600000*%
%TD*%
%TA.AperFunction,Conductor*%
%ADD47C,1.500000*%
%TD*%
%TA.AperFunction,Conductor*%
%ADD48C,0.200000*%
%TD*%
%TA.AperFunction,Conductor*%
%ADD49C,1.000000*%
%TD*%
G04 APERTURE END LIST*
D10*
%TO.P,J11,1,Pin_1*%
%TO.N,Net-(J11-Pin_1)*%
X53800000Y-54520000D03*
D11*
%TO.P,J11,2,Pin_2*%
%TO.N,GND*%
X53800000Y-51980000D03*
%TD*%
D12*
%TO.P,R4,1*%
%TO.N,+5V*%
X31900000Y-71812500D03*
%TO.P,R4,2*%
%TO.N,Net-(U6-VFB)*%
X31900000Y-69987500D03*
%TD*%
D13*
%TO.P,U3,1,AP_SDO/AP_AD0*%
%TO.N,SPI_MISO*%
X30585000Y-41250000D03*
%TO.P,U3,2,RESV_2*%
%TO.N,GND*%
X30585000Y-41750000D03*
%TO.P,U3,3,RESV_3*%
X30585000Y-42250000D03*
%TO.P,U3,4,INT1/INT*%
%TO.N,unconnected-(U3-INT1{slash}INT-Pad4)*%
X30585000Y-42750000D03*
D14*
%TO.P,U3,5,VDDIO*%
%TO.N,VCC*%
X31250000Y-42915000D03*
%TO.P,U3,6,GND*%
%TO.N,GND*%
X31750000Y-42915000D03*
%TO.P,U3,7,RESV_7*%
X32250000Y-42915000D03*
D13*
%TO.P,U3,8,VDD*%
%TO.N,VCC*%
X32915000Y-42750000D03*
%TO.P,U3,9,INT2/FSYNC/CLKIN*%
%TO.N,Net-(U3-INT2{slash}FSYNC{slash}CLKIN)*%
X32915000Y-42250000D03*
%TO.P,U3,10,RESV_10*%
%TO.N,GND*%
X32915000Y-41750000D03*
%TO.P,U3,11,RESV_11*%
X32915000Y-41250000D03*
D14*
%TO.P,U3,12,AP_CS*%
%TO.N,IMU_CS*%
X32250000Y-41085000D03*
%TO.P,U3,13,AP_SCL/AP_SCLK*%
%TO.N,SPI_SCLK*%
X31750000Y-41085000D03*
%TO.P,U3,14,AP_SDA/AP_SDIO/AP_SDI*%
%TO.N,SPI_MOSI*%
X31250000Y-41085000D03*
%TD*%
D10*
%TO.P,J9,1,Pin_1*%
%TO.N,Net-(J9-Pin_1)*%
X53800000Y-69800000D03*
D11*
%TO.P,J9,2,Pin_2*%
%TO.N,GND*%
X53800000Y-67260000D03*
%TD*%
D15*
%TO.P,R3,1*%
%TO.N,Net-(U6-VFB)*%
X27750000Y-70587500D03*
%TO.P,R3,2*%
%TO.N,GND*%
X27750000Y-72412500D03*
%TD*%
D16*
%TO.P,C2,1*%
%TO.N,VCC*%
X18200000Y-45100000D03*
%TO.P,C2,2*%
%TO.N,GND*%
X16650000Y-45100000D03*
%TD*%
D17*
%TO.P,R6,1*%
%TO.N,PYRO1*%
X46250000Y-19300000D03*
%TO.P,R6,2*%
%TO.N,Net-(Q1-G)*%
X47900000Y-19300000D03*
%TD*%
D16*
%TO.P,C16,1*%
%TO.N,+5V*%
X25275000Y-64500000D03*
%TO.P,C16,2*%
%TO.N,GND*%
X23725000Y-64500000D03*
%TD*%
D18*
%TO.P,C9,1*%
%TO.N,VCC*%
X26975000Y-45250000D03*
%TO.P,C9,2*%
%TO.N,GND*%
X28525000Y-45250000D03*
%TD*%
D19*
%TO.P,U4,1,VDD*%
%TO.N,VCC*%
X31150000Y-38000000D03*
%TO.P,U4,2,PS*%
%TO.N,GND*%
X31150000Y-36750000D03*
%TO.P,U4,3,GND*%
X31150000Y-35500000D03*
%TO.P,U4,4,CSB*%
%TO.N,BARO_CS*%
X31150000Y-34250000D03*
%TO.P,U4,5,CSB*%
X29000000Y-34250000D03*
%TO.P,U4,6,SDO*%
%TO.N,SPI_MISO*%
X29000000Y-35500000D03*
%TO.P,U4,7,SDI/SDA*%
%TO.N,SPI_MOSI*%
X29000000Y-36750000D03*
%TO.P,U4,8,SCLK*%
%TO.N,SPI_SCLK*%
X29000000Y-38000000D03*
%TD*%
D18*
%TO.P,C8,1*%
%TO.N,VCC*%
X26975000Y-43500000D03*
%TO.P,C8,2*%
%TO.N,GND*%
X28525000Y-43500000D03*
%TD*%
D20*
%TO.P,U1,1,GND*%
%TO.N,GND*%
X27000000Y-13460000D03*
%TO.P,U1,2,3V3*%
%TO.N,VCC*%
X27000000Y-14730000D03*
%TO.P,U1,3,EN*%
%TO.N,Net-(U1-EN)*%
X27000000Y-16000000D03*
%TO.P,U1,4,IO4*%
%TO.N,unconnected-(U1-IO4-Pad4)*%
X27000000Y-17270000D03*
%TO.P,U1,5,IO5*%
%TO.N,SDA*%
X27000000Y-18540000D03*
%TO.P,U1,6,IO6*%
%TO.N,SCL*%
X27000000Y-19810000D03*
%TO.P,U1,7,IO7*%
%TO.N,unconnected-(U1-IO7-Pad7)*%
X27000000Y-21080000D03*
%TO.P,U1,8,IO15*%
%TO.N,unconnected-(U1-IO15-Pad8)*%
X27000000Y-22350000D03*
%TO.P,U1,9,IO16*%
%TO.N,GPIO4*%
X27000000Y-23620000D03*
%TO.P,U1,10,IO17*%
%TO.N,GPIO3*%
X27000000Y-24890000D03*
%TO.P,U1,11,IO18*%
%TO.N,unconnected-(U1-IO18-Pad11)*%
X27000000Y-26160000D03*
%TO.P,U1,12,IO8*%
%TO.N,unconnected-(U1-IO8-Pad12)*%
X27000000Y-27430000D03*
%TO.P,U1,13,USB_D-*%
%TO.N,D-*%
X27000000Y-28700000D03*
%TO.P,U1,14,USB_D+*%
%TO.N,D+*%
X27000000Y-29970000D03*
D21*
%TO.P,U1,15,IO3*%
%TO.N,unconnected-(U1-IO3-Pad15)*%
X28765000Y-31220000D03*
%TO.P,U1,16,IO46*%
%TO.N,unconnected-(U1-IO46-Pad16)*%
X30035000Y-31220000D03*
%TO.P,U1,17,IO9*%
%TO.N,BARO_CS*%
X31305000Y-31220000D03*
%TO.P,U1,18,IO10*%
%TO.N,MAG_CS*%
X32575000Y-31220000D03*
%TO.P,U1,19,IO11*%
%TO.N,SPI_SCLK*%
X33845000Y-31220000D03*
%TO.P,U1,20,IO12*%
%TO.N,SPI_MOSI*%
X35115000Y-31220000D03*
%TO.P,U1,21,IO13*%
%TO.N,SPI_MISO*%
X36385000Y-31220000D03*
%TO.P,U1,22,IO14*%
%TO.N,IMU_CS*%
X37655000Y-31220000D03*
%TO.P,U1,23,IO21*%
%TO.N,SERVO1*%
X38925000Y-31220000D03*
%TO.P,U1,24,IO47*%
%TO.N,SERVO2*%
X40195000Y-31220000D03*
%TO.P,U1,25,IO48*%
%TO.N,SERVO3*%
X41465000Y-31220000D03*
%TO.P,U1,26,IO45*%
%TO.N,SERVO4*%
X42735000Y-31220000D03*
D20*
%TO.P,U1,27,IO0*%
%TO.N,Net-(U1-IO0)*%
X44500000Y-29970000D03*
%TO.P,U1,28,IO35*%
%TO.N,unconnected-(U1-IO35-Pad28)*%
X44500000Y-28700000D03*
%TO.P,U1,29,IO36*%
%TO.N,unconnected-(U1-IO36-Pad29)*%
X44500000Y-27430000D03*
%TO.P,U1,30,IO37*%
%TO.N,unconnected-(U1-IO37-Pad30)*%
X44500000Y-26160000D03*
%TO.P,U1,31,IO38*%
%TO.N,FLASH_CS*%
X44500000Y-24890000D03*
%TO.P,U1,32,IO39*%
%TO.N,PYRO4*%
X44500000Y-23620000D03*
%TO.P,U1,33,IO40*%
%TO.N,PYRO3*%
X44500000Y-22350000D03*
%TO.P,U1,34,IO41*%
%TO.N,PYRO2*%
X44500000Y-21080000D03*
%TO.P,U1,35,IO42*%
%TO.N,PYRO1*%
X44500000Y-19810000D03*
%TO.P,U1,36,RXD0*%
%TO.N,unconnected-(U1-RXD0-Pad36)*%
X44500000Y-18540000D03*
%TO.P,U1,37,TXD0*%
%TO.N,unconnected-(U1-TXD0-Pad37)*%
X44500000Y-17270000D03*
%TO.P,U1,38,IO2*%
%TO.N,GPIO1*%
X44500000Y-16000000D03*
%TO.P,U1,39,IO1*%
%TO.N,GPIO2*%
X44500000Y-14730000D03*
%TO.P,U1,40,GND*%
%TO.N,GND*%
X44500000Y-13460000D03*
D22*
%TO.P,U1,41,GND*%
X32850000Y-20480000D03*
X32850000Y-21880000D03*
X33550000Y-19780000D03*
X33550000Y-21180000D03*
X33550000Y-22580000D03*
X34250000Y-20480000D03*
D23*
X34250000Y-21180000D03*
D22*
X34250000Y-21880000D03*
X34950000Y-19780000D03*
X34950000Y-21180000D03*
X34950000Y-22580000D03*
X35650000Y-20480000D03*
X35650000Y-21880000D03*
%TD*%
D24*
%TO.P,R1,1*%
%TO.N,Net-(P1-CC)*%
X25000000Y-53575000D03*
%TO.P,R1,2*%
%TO.N,GND*%
X25000000Y-51925000D03*
%TD*%
D25*
%TO.P,SW2,1,1*%
%TO.N,GND*%
X46500000Y-36450000D03*
%TO.P,SW2,2,2*%
%TO.N,Net-(U1-IO0)*%
X46500000Y-33050000D03*
%TD*%
D17*
%TO.P,R7,1*%
%TO.N,Net-(Q1-G)*%
X40575000Y-63680000D03*
%TO.P,R7,2*%
%TO.N,NFVCC*%
X42225000Y-63680000D03*
%TD*%
%TO.P,R2,1*%
%TO.N,VCC*%
X22850000Y-20000000D03*
%TO.P,R2,2*%
%TO.N,Net-(U1-EN)*%
X24500000Y-20000000D03*
%TD*%
D15*
%TO.P,R5,1*%
%TO.N,Net-(U6-EN)*%
X29750000Y-68837500D03*
%TO.P,R5,2*%
%TO.N,NFVCC*%
X29750000Y-70662500D03*
%TD*%
D16*
%TO.P,C1,1*%
%TO.N,+5V*%
X18725000Y-46600000D03*
%TO.P,C1,2*%
%TO.N,GND*%
X17175000Y-46600000D03*
%TD*%
D26*
%TO.P,C11,1*%
%TO.N,VCC*%
X34750000Y-38225000D03*
%TO.P,C11,2*%
%TO.N,GND*%
X34750000Y-39775000D03*
%TD*%
D27*
%TO.P,U8,1,~{CS}*%
%TO.N,FLASH_CS*%
X37837500Y-50155000D03*
%TO.P,U8,2,DO/IO_{1}*%
%TO.N,SPI_MISO*%
X37837500Y-48885000D03*
%TO.P,U8,3,~{WP}/IO_{2}*%
%TO.N,VCC*%
X37837500Y-47615000D03*
%TO.P,U8,4,GND*%
%TO.N,GND*%
X37837500Y-46345000D03*
%TO.P,U8,5,DI/IO_{0}*%
%TO.N,SPI_MOSI*%
X30662500Y-46345000D03*
%TO.P,U8,6,CLK*%
%TO.N,SPI_SCLK*%
X30662500Y-47615000D03*
%TO.P,U8,7,~{HOLD}/~{RESET}/IO_{3}*%
%TO.N,VCC*%
X30662500Y-48885000D03*
%TO.P,U8,8,VCC*%
X30662500Y-50155000D03*
%TD*%
D18*
%TO.P,C12,1*%
%TO.N,VCC*%
X26325000Y-49000000D03*
%TO.P,C12,2*%
%TO.N,GND*%
X27875000Y-49000000D03*
%TD*%
D28*
%TO.P,J1,1,Pin_1*%
%TO.N,GND*%
X16500000Y-67500000D03*
D29*
%TO.P,J1,2,Pin_2*%
%TO.N,NFVCC*%
X16500000Y-72500000D03*
%TD*%
D30*
%TO.P,J8,1,Pin_1*%
%TO.N,SCL*%
X52700000Y-23980000D03*
%TO.P,J8,2,Pin_2*%
%TO.N,SDA*%
X56000000Y-26520000D03*
%TO.P,J8,3,Pin_3*%
%TO.N,GND*%
X52700000Y-29060000D03*
%TO.P,J8,4,Pin_4*%
%TO.N,VCC*%
X56000000Y-31600000D03*
%TO.P,J8,5,Pin_5*%
%TO.N,GPIO1*%
X52700000Y-34140000D03*
%TO.P,J8,6,Pin_6*%
%TO.N,GPIO2*%
X56000000Y-36680000D03*
%TO.P,J8,7,Pin_7*%
%TO.N,GPIO3*%
X52700000Y-39220000D03*
%TO.P,J8,8,Pin_8*%
%TO.N,GPIO4*%
X56000000Y-41760000D03*
%TO.P,J8,9,Pin_9*%
%TO.N,VCC*%
X52700000Y-44300000D03*
%TO.P,J8,10,Pin_10*%
%TO.N,GND*%
X56000000Y-46840000D03*
%TD*%
D10*
%TO.P,J10,1,Pin_1*%
%TO.N,Net-(J10-Pin_1)*%
X53800000Y-62160000D03*
D11*
%TO.P,J10,2,Pin_2*%
%TO.N,GND*%
X53800000Y-59620000D03*
%TD*%
D31*
%TO.P,Q3,1,G*%
%TO.N,Net-(Q3-G)*%
X43800000Y-52310000D03*
%TO.P,Q3,2,S*%
%TO.N,NFVCC*%
X43800000Y-54210000D03*
%TO.P,Q3,3,D*%
%TO.N,Net-(J11-Pin_1)*%
X45675000Y-53260000D03*
%TD*%
D26*
%TO.P,C18,1*%
%TO.N,+5V*%
X32000000Y-66475000D03*
%TO.P,C18,2*%
%TO.N,Net-(U6-VBST)*%
X32000000Y-68025000D03*
%TD*%
D32*
%TO.P,J6,1,Pin_1*%
%TO.N,SERVO4*%
X46230000Y-81660000D03*
%TO.P,J6,2,Pin_2*%
%TO.N,+5V*%
X49540000Y-84200000D03*
%TO.P,J6,3,Pin_3*%
%TO.N,GND*%
X46230000Y-86740000D03*
%TD*%
D33*
%TO.P,U5,1,INT*%
%TO.N,unconnected-(U5-INT-Pad1)*%
X35793750Y-35250000D03*
%TO.P,U5,2,~{CS}*%
%TO.N,MAG_CS*%
X35793750Y-35750000D03*
%TO.P,U5,3,SCLK*%
%TO.N,SPI_SCLK*%
X35793750Y-36250000D03*
%TO.P,U5,4,V_{SS}*%
%TO.N,GND*%
X35793750Y-36750000D03*
D34*
%TO.P,U5,5,MOSI*%
%TO.N,SPI_MOSI*%
X36500000Y-37456250D03*
%TO.P,U5,6,MISO*%
%TO.N,SPI_MISO*%
X37000000Y-37456250D03*
%TO.P,U5,7,INT/TRG*%
%TO.N,unconnected-(U5-INT{slash}TRG-Pad7)*%
X37500000Y-37456250D03*
%TO.P,U5,8,V_{SS}*%
%TO.N,GND*%
X38000000Y-37456250D03*
D33*
%TO.P,U5,9,V_{SS}*%
X38706250Y-36750000D03*
%TO.P,U5,10,V_{SS}*%
X38706250Y-36250000D03*
%TO.P,U5,11,A1*%
%TO.N,unconnected-(U5-A1-Pad11)*%
X38706250Y-35750000D03*
%TO.P,U5,12,A0*%
%TO.N,unconnected-(U5-A0-Pad12)*%
X38706250Y-35250000D03*
D34*
%TO.P,U5,13,V_{SS}*%
%TO.N,GND*%
X38000000Y-34543750D03*
%TO.P,U5,14,V_{SS}*%
X37500000Y-34543750D03*
%TO.P,U5,15,V_{DD}*%
%TO.N,VCC*%
X37000000Y-34543750D03*
%TO.P,U5,16,V_{SS}*%
%TO.N,GND*%
X36500000Y-34543750D03*
D35*
%TO.P,U5,17,V_{SS}*%
X37250000Y-36000000D03*
%TD*%
D36*
%TO.P,C15,1*%
%TO.N,NFVCC*%
X21250000Y-72525000D03*
%TO.P,C15,2*%
%TO.N,GND*%
X21250000Y-70975000D03*
%TD*%
%TO.P,C10,1*%
%TO.N,VCC*%
X26250000Y-37775000D03*
%TO.P,C10,2*%
%TO.N,GND*%
X26250000Y-36225000D03*
%TD*%
D16*
%TO.P,C17,1*%
%TO.N,+5V*%
X25300000Y-62000000D03*
%TO.P,C17,2*%
%TO.N,GND*%
X23750000Y-62000000D03*
%TD*%
D37*
%TO.P,U2,1,GND*%
%TO.N,GND*%
X15400000Y-43000000D03*
%TO.P,U2,2,VO*%
%TO.N,VCC*%
X17700000Y-43000000D03*
D38*
X17700000Y-36700000D03*
D37*
%TO.P,U2,3,VI*%
%TO.N,+5V*%
X20000000Y-43000000D03*
%TD*%
D39*
%TO.P,SW1,1,1*%
%TO.N,GND*%
X15600000Y-26250000D03*
%TO.P,SW1,2,2*%
%TO.N,Net-(U1-EN)*%
X19000000Y-26250000D03*
%TD*%
D40*
%TO.P,Y1,1,CLKOUT*%
%TO.N,Net-(U3-INT2{slash}FSYNC{slash}CLKIN)*%
X34900000Y-42850000D03*
%TO.P,Y1,2,GND*%
%TO.N,GND*%
X37600000Y-42850000D03*
%TO.P,Y1,3,CLKOE*%
%TO.N,VCC*%
X37600000Y-41650000D03*
%TO.P,Y1,4,VDD*%
X34900000Y-41650000D03*
%TD*%
D32*
%TO.P,J5,1,Pin_1*%
%TO.N,SERVO3*%
X38360000Y-81660000D03*
%TO.P,J5,2,Pin_2*%
%TO.N,+5V*%
X41670000Y-84200000D03*
%TO.P,J5,3,Pin_3*%
%TO.N,GND*%
X38360000Y-86740000D03*
%TD*%
D41*
%TO.P,P1,A1,GND*%
%TO.N,GND*%
X22045000Y-51750000D03*
%TO.P,P1,A4,VBUS*%
%TO.N,+5V*%
X22045000Y-52550000D03*
D42*
%TO.P,P1,A5,CC*%
%TO.N,Net-(P1-CC)*%
X22045000Y-53750000D03*
%TO.P,P1,A6,D+*%
%TO.N,D+*%
X22045000Y-54750000D03*
%TO.P,P1,A7,D-*%
%TO.N,D-*%
X22045000Y-55250000D03*
%TO.P,P1,A8*%
%TO.N,N/C*%
X22045000Y-56250000D03*
D41*
%TO.P,P1,A9,VBUS*%
%TO.N,+5V*%
X22045000Y-57450000D03*
%TO.P,P1,A12,GND*%
%TO.N,GND*%
X22045000Y-58250000D03*
%TO.P,P1,B1,GND*%
X22045000Y-58250000D03*
%TO.P,P1,B4,VBUS*%
%TO.N,+5V*%
X22045000Y-57450000D03*
D42*
%TO.P,P1,B5,VCONN*%
%TO.N,unconnected-(P1-VCONN-PadB5)*%
X22045000Y-56750000D03*
%TO.P,P1,B6*%
%TO.N,N/C*%
X22045000Y-55750000D03*
%TO.P,P1,B7*%
X22045000Y-54250000D03*
%TO.P,P1,B8*%
X22045000Y-53250000D03*
D41*
%TO.P,P1,B9,VBUS*%
%TO.N,+5V*%
X22045000Y-52550000D03*
%TO.P,P1,B12,GND*%
%TO.N,GND*%
X22045000Y-51750000D03*
D43*
%TO.P,P1,S1,SHIELD*%
X21130000Y-50680000D03*
D44*
X16950000Y-50680000D03*
D43*
X21130000Y-59320000D03*
D44*
X16950000Y-59320000D03*
%TD*%
D17*
%TO.P,R13,1*%
%TO.N,Net-(Q4-G)*%
X43975000Y-72510000D03*
%TO.P,R13,2*%
%TO.N,NFVCC*%
X45625000Y-72510000D03*
%TD*%
D32*
%TO.P,J3,1,Pin_1*%
%TO.N,SERVO1*%
X22620000Y-81660000D03*
%TO.P,J3,2,Pin_2*%
%TO.N,+5V*%
X25930000Y-84200000D03*
%TO.P,J3,3,Pin_3*%
%TO.N,GND*%
X22620000Y-86740000D03*
%TD*%
D36*
%TO.P,C14,1*%
%TO.N,NFVCC*%
X21000000Y-69525000D03*
%TO.P,C14,2*%
%TO.N,GND*%
X21000000Y-67975000D03*
%TD*%
D45*
%TO.P,U6,1,GND*%
%TO.N,GND*%
X25462500Y-67050000D03*
%TO.P,U6,2,SW*%
%TO.N,+5V*%
X25462500Y-68000000D03*
%TO.P,U6,3,VIN*%
%TO.N,NFVCC*%
X25462500Y-68950000D03*
%TO.P,U6,4,VFB*%
%TO.N,Net-(U6-VFB)*%
X27737500Y-68950000D03*
%TO.P,U6,5,EN*%
%TO.N,Net-(U6-EN)*%
X27737500Y-68000000D03*
%TO.P,U6,6,VBST*%
%TO.N,Net-(U6-VBST)*%
X27737500Y-67050000D03*
%TD*%
D16*
%TO.P,C3,1*%
%TO.N,Net-(U1-EN)*%
X17775000Y-29250000D03*
%TO.P,C3,2*%
%TO.N,GND*%
X16225000Y-29250000D03*
%TD*%
D31*
%TO.P,Q4,1,G*%
%TO.N,Net-(Q4-G)*%
X44362500Y-75810000D03*
%TO.P,Q4,2,S*%
%TO.N,NFVCC*%
X44362500Y-77710000D03*
%TO.P,Q4,3,D*%
%TO.N,Net-(J2-Pin_1)*%
X46237500Y-76760000D03*
%TD*%
D17*
%TO.P,R8,1*%
%TO.N,PYRO2*%
X46250000Y-20900000D03*
%TO.P,R8,2*%
%TO.N,Net-(Q2-G)*%
X47900000Y-20900000D03*
%TD*%
D18*
%TO.P,C7,1*%
%TO.N,VCC*%
X26325000Y-47000000D03*
%TO.P,C7,2*%
%TO.N,GND*%
X27875000Y-47000000D03*
%TD*%
D31*
%TO.P,Q2,1,G*%
%TO.N,Net-(Q2-G)*%
X43612500Y-59810000D03*
%TO.P,Q2,2,S*%
%TO.N,NFVCC*%
X43612500Y-61710000D03*
%TO.P,Q2,3,D*%
%TO.N,Net-(J10-Pin_1)*%
X45487500Y-60760000D03*
%TD*%
D17*
%TO.P,R10,1*%
%TO.N,PYRO3*%
X46350000Y-22500000D03*
%TO.P,R10,2*%
%TO.N,Net-(Q3-G)*%
X48000000Y-22500000D03*
%TD*%
D36*
%TO.P,C5,1*%
%TO.N,VCC*%
X24500000Y-15300000D03*
%TO.P,C5,2*%
%TO.N,GND*%
X24500000Y-13750000D03*
%TD*%
D17*
%TO.P,R12,1*%
%TO.N,PYRO4*%
X46275000Y-24300000D03*
%TO.P,R12,2*%
%TO.N,Net-(Q4-G)*%
X47925000Y-24300000D03*
%TD*%
D36*
%TO.P,C13,1*%
%TO.N,NFVCC*%
X23300000Y-69400000D03*
%TO.P,C13,2*%
%TO.N,GND*%
X23300000Y-67850000D03*
%TD*%
D17*
%TO.P,R9,1*%
%TO.N,Net-(Q2-G)*%
X46475000Y-58260000D03*
%TO.P,R9,2*%
%TO.N,NFVCC*%
X48125000Y-58260000D03*
%TD*%
D31*
%TO.P,Q1,1,G*%
%TO.N,Net-(Q1-G)*%
X43800000Y-67060000D03*
%TO.P,Q1,2,S*%
%TO.N,NFVCC*%
X43800000Y-68960000D03*
%TO.P,Q1,3,D*%
%TO.N,Net-(J9-Pin_1)*%
X45675000Y-68010000D03*
%TD*%
D10*
%TO.P,J2,1,Pin_1*%
%TO.N,Net-(J2-Pin_1)*%
X53800000Y-77440000D03*
D11*
%TO.P,J2,2,Pin_2*%
%TO.N,GND*%
X53800000Y-74900000D03*
%TD*%
D17*
%TO.P,R11,1*%
%TO.N,Net-(Q3-G)*%
X47475000Y-66260000D03*
%TO.P,R11,2*%
%TO.N,NFVCC*%
X49125000Y-66260000D03*
%TD*%
D32*
%TO.P,J4,1,Pin_1*%
%TO.N,SERVO2*%
X30490000Y-81660000D03*
%TO.P,J4,2,Pin_2*%
%TO.N,+5V*%
X33800000Y-84200000D03*
%TO.P,J4,3,Pin_3*%
%TO.N,GND*%
X30490000Y-86740000D03*
%TD*%
D18*
%TO.P,C4,1*%
%TO.N,Net-(U1-IO0)*%
X41975000Y-36750000D03*
%TO.P,C4,2*%
%TO.N,GND*%
X43525000Y-36750000D03*
%TD*%
D36*
%TO.P,C6,1*%
%TO.N,GND*%
X22500000Y-16525000D03*
%TO.P,C6,2*%
%TO.N,VCC*%
X22500000Y-14975000D03*
%TD*%
D46*
%TO.N,GND*%
X45786800Y-37433300D03*
X16800000Y-63600000D03*
X22483600Y-71174500D03*
X38748900Y-37420900D03*
X27700400Y-44424600D03*
X36190000Y-46684000D03*
%TO.N,VCC*%
X24557300Y-39494700D03*
X36979600Y-32929000D03*
X32185900Y-37320000D03*
X20950500Y-39414700D03*
X28989500Y-29289600D03*
X54860900Y-38711400D03*
%TO.N,NFVCC*%
X16400000Y-77600000D03*
X48200000Y-60459000D03*
X44362500Y-77710000D03*
X48255900Y-64952800D03*
X47200000Y-79400000D03*
X48200000Y-72100000D03*
%TO.N,SERVO1*%
X17668500Y-82280500D03*
X37175800Y-79261400D03*
%TO.N,SERVO2*%
X39857000Y-39033500D03*
X32723600Y-78838100D03*
X37838900Y-80301900D03*
X40404600Y-43670400D03*
%TO.N,GPIO4*%
X28330900Y-23327500D03*
X55847200Y-39414700D03*
%TO.N,GPIO3*%
X29474000Y-29963900D03*
X52717900Y-36571200D03*
%TO.N,Net-(Q1-G)*%
X47938800Y-40173800D03*
X48881600Y-39414700D03*
%TO.N,Net-(Q2-G)*%
X43926200Y-56941000D03*
X47529800Y-52951500D03*
%TO.N,Net-(Q3-G)*%
X42019900Y-61199600D03*
X46686800Y-66942100D03*
%TO.N,SPI_SCLK*%
X34743300Y-36184900D03*
X30900400Y-39481900D03*
X33037600Y-48295000D03*
X35574700Y-34297000D03*
%TO.N,SPI_MISO*%
X27390700Y-31194600D03*
X36000100Y-27829500D03*
X29704500Y-40254500D03*
X38704700Y-43374900D03*
%TO.N,SCL*%
X28330900Y-19974400D03*
X53011900Y-22034400D03*
%TO.N,IMU_CS*%
X35872900Y-33223700D03*
X33301800Y-37607300D03*
%TO.N,SPI_MOSI*%
X30045700Y-36123400D03*
X38095700Y-44118900D03*
X35687300Y-37446100D03*
X34101700Y-34055200D03*
%TO.N,FLASH_CS*%
X47476400Y-38210700D03*
X39153600Y-50006300D03*
%TO.N,SDA*%
X52405200Y-18966900D03*
X24658900Y-18608300D03*
%TD*%
D47*
%TO.N,GND*%
X53800000Y-67260000D02*
X54465400Y-67260000D01*
D48*
X32493500Y-41750000D02*
X32915000Y-41750000D01*
X29920800Y-85369100D02*
X30490000Y-85938300D01*
X36573100Y-34616800D02*
X36573100Y-35051000D01*
X23071700Y-51270000D02*
X22481700Y-50680000D01*
X46230000Y-86740000D02*
X38360000Y-86740000D01*
X46500000Y-36450000D02*
X46125000Y-36450000D01*
X22620000Y-85938300D02*
X23189200Y-85369100D01*
X31184900Y-36715100D02*
X31150000Y-36750000D01*
X38706300Y-36750000D02*
X38706300Y-36250000D01*
X30490000Y-86740000D02*
X30490000Y-85938300D01*
X17175000Y-46600000D02*
X16650000Y-46075000D01*
D49*
X16500000Y-67500000D02*
X16500000Y-63900000D01*
D48*
X32915000Y-41250000D02*
X32915000Y-40803200D01*
X16650000Y-46075000D02*
X16650000Y-45100000D01*
X31150000Y-36750000D02*
X30373300Y-36750000D01*
X17501000Y-58437200D02*
X18051700Y-58987900D01*
X24852500Y-72412500D02*
X22687500Y-72412500D01*
X28525000Y-43500000D02*
X27398400Y-42373400D01*
X37426900Y-35051000D02*
X37426900Y-34616800D01*
X54748300Y-47541400D02*
X55751000Y-48544100D01*
X15400000Y-30075000D02*
X15400000Y-43000000D01*
X38748900Y-37420900D02*
X38706300Y-37378300D01*
X35029100Y-36750000D02*
X35793800Y-36750000D01*
X37426900Y-34616800D02*
X37500000Y-34543700D01*
X37494000Y-46001500D02*
X37837500Y-46345000D01*
X34750000Y-39775000D02*
X33943200Y-39775000D01*
X35650000Y-20480000D02*
X35650000Y-21880000D01*
X29775000Y-42250000D02*
X30585000Y-42250000D01*
X20377300Y-15821500D02*
X20377300Y-21472700D01*
X33943200Y-37397800D02*
X34381300Y-37397800D01*
X52700000Y-29060000D02*
X51648300Y-29060000D01*
X37000000Y-36000000D02*
X36250000Y-36750000D01*
X23071700Y-51750000D02*
X23071700Y-51270000D01*
X28525000Y-43500000D02*
X29775000Y-42250000D01*
X27727600Y-46852600D02*
X27875000Y-47000000D01*
X30373300Y-35600100D02*
X30373300Y-35500000D01*
D49*
X16500000Y-63900000D02*
X16800000Y-63600000D01*
D48*
X22687500Y-72412500D02*
X21725000Y-71450000D01*
D47*
X55751000Y-53265600D02*
X55751000Y-57669000D01*
D48*
X37818800Y-35862600D02*
X37818800Y-34724900D01*
X33550000Y-21180000D02*
X33550000Y-22580000D01*
X34950000Y-19780000D02*
X34950000Y-21180000D01*
X21130000Y-50680000D02*
X22481700Y-50680000D01*
X55751000Y-48544100D02*
X55751000Y-53265600D01*
D47*
X53800000Y-67260000D02*
X55751000Y-65309000D01*
D48*
X22208100Y-71450000D02*
X22483600Y-71174500D01*
X53800000Y-51980000D02*
X51428700Y-49608700D01*
X31750000Y-42915000D02*
X32250000Y-42915000D01*
X43525000Y-36750000D02*
X45048300Y-36750000D01*
X24100000Y-67050000D02*
X23725000Y-67425000D01*
X46125000Y-36450000D02*
X45348300Y-36450000D01*
X27398400Y-42373400D02*
X27398400Y-37373300D01*
X18051700Y-50680000D02*
X18051700Y-47476700D01*
X15400000Y-43850000D02*
X15400000Y-43000000D01*
X27750000Y-72412500D02*
X24852500Y-72412500D01*
X22045000Y-58250000D02*
X23071700Y-58250000D01*
D47*
X55751000Y-68545600D02*
X55751000Y-72949000D01*
D48*
X31750000Y-42915000D02*
X31750000Y-42493500D01*
X28525000Y-45250000D02*
X28525000Y-46350000D01*
X34250000Y-21880000D02*
X34250000Y-21180000D01*
X23725000Y-64500000D02*
X23725000Y-62025000D01*
X32850000Y-20480000D02*
X32850000Y-21880000D01*
X24500000Y-13750000D02*
X25658300Y-13750000D01*
X31750000Y-42493500D02*
X32493500Y-41750000D01*
X23300000Y-67850000D02*
X23175000Y-67975000D01*
X38706200Y-36750000D02*
X37818800Y-35862600D01*
X36786500Y-35264400D02*
X37213500Y-35264400D01*
X15600000Y-26250000D02*
X15600000Y-28625000D01*
X20377300Y-21472700D02*
X15600000Y-26250000D01*
X16225000Y-29250000D02*
X15400000Y-30075000D01*
X38706300Y-37378300D02*
X38706300Y-36750000D01*
X37818800Y-34724900D02*
X37681200Y-34724900D01*
X37441700Y-36000000D02*
X38000000Y-36558300D01*
X26474200Y-13460000D02*
X27000000Y-13460000D01*
X30647400Y-36374200D02*
X30647400Y-35874200D01*
X24359800Y-72905200D02*
X24359800Y-85369100D01*
X37494000Y-43657700D02*
X37494000Y-46001500D01*
X23298900Y-15726100D02*
X22500000Y-16525000D01*
X38706300Y-36750000D02*
X38706200Y-36750000D01*
X27727600Y-44451800D02*
X27727600Y-46852600D01*
X23298900Y-14189400D02*
X23298900Y-15726100D01*
X22620000Y-86740000D02*
X22620000Y-85938300D01*
X23071700Y-58730000D02*
X23071700Y-58250000D01*
X18051700Y-58987900D02*
X18051700Y-59320000D01*
X23725000Y-64500000D02*
X23725000Y-67425000D01*
X27875000Y-49000000D02*
X27875000Y-47000000D01*
X51428700Y-49608700D02*
X51428700Y-29279600D01*
X51428700Y-29279600D02*
X51648300Y-29060000D01*
X15600000Y-28625000D02*
X16225000Y-29250000D01*
X37681200Y-34724900D02*
X37500000Y-34543700D01*
X37213500Y-35264400D02*
X37426900Y-35051000D01*
X27700400Y-44424600D02*
X27727600Y-44451800D01*
X27398300Y-37373300D02*
X26250000Y-36225000D01*
D47*
X54465400Y-67260000D02*
X55751000Y-68545600D01*
D48*
X23425300Y-67724700D02*
X23300000Y-67850000D01*
X22045000Y-51750000D02*
X23071700Y-51750000D01*
X16650000Y-45100000D02*
X15400000Y-43850000D01*
X30490000Y-86740000D02*
X38360000Y-86740000D01*
X23298900Y-14189400D02*
X22009400Y-14189400D01*
X37250000Y-36000000D02*
X37000000Y-36000000D01*
X21130000Y-59320000D02*
X22481700Y-59320000D01*
X30585000Y-42250000D02*
X30585000Y-41750000D01*
X45048300Y-36750000D02*
X45348300Y-36450000D01*
X34950000Y-22580000D02*
X34950000Y-21180000D01*
X33260500Y-36715100D02*
X31184900Y-36715100D01*
D47*
X54465400Y-51980000D02*
X55751000Y-53265600D01*
D48*
X36529000Y-46345000D02*
X36190000Y-46684000D01*
X44500000Y-13460000D02*
X42670000Y-13460000D01*
X16950000Y-59320000D02*
X18051700Y-59320000D01*
X24825000Y-51750000D02*
X25000000Y-51925000D01*
X36250000Y-36750000D02*
X35793800Y-36750000D01*
X33550000Y-19780000D02*
X33550000Y-21180000D01*
X23425300Y-67724700D02*
X23300000Y-67850000D01*
X36500000Y-34543700D02*
X36573100Y-34616800D01*
X28525000Y-46350000D02*
X27875000Y-47000000D01*
X23189200Y-85369100D02*
X24359800Y-85369100D01*
X17500900Y-50680000D02*
X17500900Y-58437200D01*
X24500000Y-13750000D02*
X24060600Y-14189400D01*
X34381300Y-37397800D02*
X35029100Y-36750000D01*
X23725000Y-67425000D02*
X23425300Y-67724700D01*
X56000000Y-46840000D02*
X54748300Y-46840000D01*
X32850000Y-18258300D02*
X28051700Y-13460000D01*
X17500900Y-50680000D02*
X18051700Y-50680000D01*
X46125000Y-36450000D02*
X46125000Y-37095100D01*
X32915000Y-40803200D02*
X33943200Y-39775000D01*
X37600000Y-42850000D02*
X37600000Y-43551700D01*
D47*
X55751000Y-57669000D02*
X53800000Y-59620000D01*
D48*
X46125000Y-37095100D02*
X45786800Y-37433300D01*
X31150000Y-35500000D02*
X30373300Y-35500000D01*
X54748300Y-46840000D02*
X54748300Y-47541400D01*
X33943200Y-39775000D02*
X33943200Y-37397800D01*
D49*
X21000000Y-67975000D02*
X16975000Y-67975000D01*
D48*
X21725000Y-71450000D02*
X22208100Y-71450000D01*
X36573100Y-35051000D02*
X36786500Y-35264400D01*
X23071700Y-51750000D02*
X24825000Y-51750000D01*
X23725000Y-67425000D02*
X23425300Y-67724700D01*
X30373300Y-36750000D02*
X30373300Y-36648300D01*
X21725000Y-71450000D02*
X21250000Y-70975000D01*
X23725000Y-62025000D02*
X23750000Y-62000000D01*
X16950000Y-50680000D02*
X17500900Y-50680000D01*
D47*
X53800000Y-51980000D02*
X54465400Y-51980000D01*
D48*
X17500900Y-58437200D02*
X17501000Y-58437200D01*
X22009400Y-14189400D02*
X20377300Y-15821500D01*
X32915000Y-41250000D02*
X32915000Y-41750000D01*
X25658300Y-13750000D02*
X25948300Y-13460000D01*
X38706200Y-36750000D02*
X38000000Y-37456200D01*
X27000000Y-13460000D02*
X28051700Y-13460000D01*
X25462500Y-67050000D02*
X24100000Y-67050000D01*
D47*
X55751000Y-65309000D02*
X55751000Y-57669000D01*
D48*
X24060600Y-14189400D02*
X23298900Y-14189400D01*
X33943200Y-37397800D02*
X33260500Y-36715100D01*
X23175000Y-67975000D02*
X21000000Y-67975000D01*
D47*
X55751000Y-72949000D02*
X53800000Y-74900000D01*
D48*
X32850000Y-20480000D02*
X32850000Y-18258300D01*
D49*
X16975000Y-67975000D02*
X16500000Y-67500000D01*
D48*
X26474200Y-13460000D02*
X25948300Y-13460000D01*
X30647400Y-35874200D02*
X30373300Y-35600100D01*
X38000000Y-34543700D02*
X37818800Y-34724900D01*
X34250000Y-21180000D02*
X34250000Y-20480000D01*
X28525000Y-43500000D02*
X28525000Y-45250000D01*
X30373300Y-36648300D02*
X30647400Y-36374200D01*
X37600000Y-43551700D02*
X37494000Y-43657700D01*
X18051700Y-47476700D02*
X17175000Y-46600000D01*
X31506500Y-42250000D02*
X31750000Y-42493500D01*
X37837500Y-46345000D02*
X36529000Y-46345000D01*
X22481700Y-59320000D02*
X23071700Y-58730000D01*
X24852500Y-72412500D02*
X24359800Y-72905200D01*
X30585000Y-42250000D02*
X31506500Y-42250000D01*
X27398400Y-37373300D02*
X27398300Y-37373300D01*
X38000000Y-36558300D02*
X38000000Y-37456200D01*
X37250000Y-36000000D02*
X37441700Y-36000000D01*
X42670000Y-13460000D02*
X35650000Y-20480000D01*
X24359800Y-85369100D02*
X29920800Y-85369100D01*
%TO.N,+5V*%
X32000000Y-66475000D02*
X32800000Y-67275000D01*
X25300000Y-62000000D02*
X25807400Y-61492600D01*
X22045000Y-52550000D02*
X23071700Y-52550000D01*
X23105700Y-59805700D02*
X23473900Y-59437500D01*
X22769200Y-60142200D02*
X23105700Y-59805700D01*
X18725000Y-58619900D02*
X20247300Y-60142200D01*
X41670000Y-84200000D02*
X33800000Y-84200000D01*
X23271700Y-52750000D02*
X23071700Y-52550000D01*
X20000000Y-45325000D02*
X18725000Y-46600000D01*
X26774000Y-67351000D02*
X26774000Y-66709000D01*
X32800000Y-70912500D02*
X32575900Y-71136600D01*
X49540000Y-84200000D02*
X41670000Y-84200000D01*
X20000000Y-43000000D02*
X20000000Y-45325000D01*
X26774000Y-66709000D02*
X27034000Y-66449000D01*
X27034000Y-66259000D02*
X27034000Y-66449000D01*
X18725000Y-46600000D02*
X18725000Y-58619900D01*
X32575900Y-71136600D02*
X31900000Y-71812500D01*
X31900000Y-71812500D02*
X31900000Y-77428300D01*
X23473900Y-59437500D02*
X23473900Y-58070400D01*
X25361300Y-52750000D02*
X23271700Y-52750000D01*
X22853500Y-57450000D02*
X22813100Y-57450000D01*
X25807400Y-61492600D02*
X25807400Y-53196100D01*
X22045000Y-57450000D02*
X22813100Y-57450000D01*
X25275000Y-64500000D02*
X27034000Y-66259000D01*
X25275000Y-64500000D02*
X25275000Y-62025000D01*
X23105700Y-59805700D02*
X25300000Y-62000000D01*
X25462500Y-68000000D02*
X26125000Y-68000000D01*
X31974000Y-66449000D02*
X32000000Y-66475000D01*
X20247300Y-60142200D02*
X22769200Y-60142200D01*
X23473900Y-58070400D02*
X22853500Y-57450000D01*
X32800000Y-67275000D02*
X32800000Y-70912500D01*
X27034000Y-66449000D02*
X31974000Y-66449000D01*
X25807400Y-53196100D02*
X25361300Y-52750000D01*
X25930000Y-84200000D02*
X25930000Y-83398300D01*
X33800000Y-72360700D02*
X32575900Y-71136600D01*
X33800000Y-84200000D02*
X33800000Y-72360700D01*
X26125000Y-68000000D02*
X26774000Y-67351000D01*
X31900000Y-77428300D02*
X25930000Y-83398300D01*
X25275000Y-62025000D02*
X25300000Y-62000000D01*
%TO.N,VCC*%
X31256900Y-42921800D02*
X31256900Y-43522800D01*
X35806100Y-41754400D02*
X35701700Y-41650000D01*
X35806100Y-41754400D02*
X35806100Y-43309400D01*
X35701700Y-41650000D02*
X35701700Y-39176700D01*
X24500000Y-16431300D02*
X22850000Y-18081300D01*
X29898000Y-50155000D02*
X29537100Y-49794100D01*
X24500000Y-15300000D02*
X24500000Y-16431300D01*
X32915000Y-43416500D02*
X32915000Y-42750000D01*
X35551500Y-46955800D02*
X36210700Y-47615000D01*
X35551500Y-43564000D02*
X35551500Y-46955800D01*
X36798300Y-41650000D02*
X36693900Y-41754400D01*
X35551500Y-43564000D02*
X33062500Y-43564000D01*
X25070000Y-14730000D02*
X27000000Y-14730000D01*
X34900000Y-41650000D02*
X35701700Y-41650000D01*
X54860900Y-38711400D02*
X54748300Y-38598800D01*
X22850000Y-18081300D02*
X22850000Y-20000000D01*
X18200000Y-42165200D02*
X20950500Y-39414700D01*
X26975000Y-43500000D02*
X26975000Y-38500000D01*
X37000000Y-34543700D02*
X37000000Y-32949400D01*
X37000000Y-32949400D02*
X36979600Y-32929000D01*
X35806100Y-43309400D02*
X35551500Y-43564000D01*
X28989500Y-15667800D02*
X28989500Y-29289600D01*
X27000000Y-14730000D02*
X28051700Y-14730000D01*
X26975000Y-38500000D02*
X26250000Y-37775000D01*
X53951700Y-44300000D02*
X53951700Y-39620600D01*
X17700000Y-43000000D02*
X17700000Y-36700000D01*
X24557300Y-39494700D02*
X26250000Y-37802000D01*
X29537100Y-45242600D02*
X31256900Y-43522800D01*
X22500000Y-14975000D02*
X21721300Y-15753700D01*
X52700000Y-44300000D02*
X53951700Y-44300000D01*
X31926700Y-37579200D02*
X32185900Y-37320000D01*
X24500000Y-15300000D02*
X25070000Y-14730000D01*
X29537100Y-49794100D02*
X27119100Y-49794100D01*
X33062500Y-43564000D02*
X32915000Y-43416500D01*
X26325000Y-45900000D02*
X26975000Y-45250000D01*
X26975000Y-43500000D02*
X26975000Y-45250000D01*
X26325000Y-47000000D02*
X26325000Y-45900000D01*
X29537100Y-49794100D02*
X29537100Y-45242600D01*
X37600000Y-41650000D02*
X36798300Y-41650000D01*
X26325000Y-49000000D02*
X26325000Y-47000000D01*
X18200000Y-43500000D02*
X17700000Y-43000000D01*
X31256900Y-43522800D02*
X32808700Y-43522800D01*
X18200000Y-43816700D02*
X18200000Y-42165200D01*
X21721300Y-18871300D02*
X22850000Y-20000000D01*
X30662500Y-50155000D02*
X30662500Y-48885000D01*
X31926700Y-38000000D02*
X31926700Y-37579200D01*
X53951700Y-39620600D02*
X54860900Y-38711400D01*
X56000000Y-31600000D02*
X54748300Y-31600000D01*
X26250000Y-37802000D02*
X26250000Y-37775000D01*
X31256800Y-42921800D02*
X31256900Y-42921800D01*
X18200000Y-43816700D02*
X18200000Y-43500000D01*
X30662500Y-50155000D02*
X29898000Y-50155000D01*
X18200000Y-45100000D02*
X18200000Y-43816700D01*
X28051700Y-14730000D02*
X28989500Y-15667800D01*
X21721300Y-15753700D02*
X21721300Y-18871300D01*
X36210700Y-47615000D02*
X37837500Y-47615000D01*
X54748300Y-38598800D02*
X54748300Y-31600000D01*
X36693900Y-41754400D02*
X35806100Y-41754400D01*
X31250000Y-42915000D02*
X31256800Y-42921800D01*
X32808700Y-43522800D02*
X32915000Y-43416500D01*
X31150000Y-38000000D02*
X31926700Y-38000000D01*
X27119100Y-49794100D02*
X26325000Y-49000000D01*
X35701700Y-39176700D02*
X34750000Y-38225000D01*
%TO.N,Net-(U1-EN)*%
X24055400Y-17892900D02*
X24055400Y-20000000D01*
X25948300Y-16000000D02*
X24055400Y-17892900D01*
X19000000Y-26250000D02*
X19751700Y-26250000D01*
X19000000Y-28025000D02*
X17775000Y-29250000D01*
X27000000Y-16000000D02*
X25948300Y-16000000D01*
X24055400Y-20000000D02*
X24055400Y-21946300D01*
X24055400Y-20000000D02*
X24500000Y-20000000D01*
X24055400Y-21946300D02*
X19751700Y-26250000D01*
X19000000Y-26250000D02*
X19000000Y-28025000D01*
%TO.N,Net-(U1-IO0)*%
X45818800Y-33050000D02*
X45551700Y-32782900D01*
X41975000Y-36750000D02*
X45348300Y-33376700D01*
X45348300Y-33376700D02*
X45348300Y-33050000D01*
X46500000Y-33050000D02*
X45818800Y-33050000D01*
X45818800Y-33050000D02*
X45348300Y-33050000D01*
X44500000Y-29970000D02*
X45551700Y-29970000D01*
X45551700Y-32782900D02*
X45551700Y-29970000D01*
D47*
%TO.N,NFVCC*%
X48125000Y-57801700D02*
X46544300Y-56221000D01*
D49*
X21250000Y-72525000D02*
X20874300Y-72525000D01*
D48*
X20472400Y-72123100D02*
X20874300Y-72525000D01*
D49*
X16500000Y-77500000D02*
X16400000Y-77600000D01*
D47*
X48125000Y-58260000D02*
X48125000Y-57801700D01*
X21000000Y-69525000D02*
X23175000Y-69525000D01*
X45811000Y-56221000D02*
X43800000Y-54210000D01*
X42225000Y-63680000D02*
X42225000Y-63097500D01*
X47200000Y-79400000D02*
X46052500Y-79400000D01*
X48125000Y-58260000D02*
X48125000Y-60384000D01*
D48*
X25462500Y-68950000D02*
X25462500Y-69555600D01*
D47*
X46035000Y-72100000D02*
X45625000Y-72510000D01*
D48*
X25462500Y-69555600D02*
X27282900Y-71376000D01*
D47*
X46544300Y-56221000D02*
X45811000Y-56221000D01*
D48*
X20472400Y-70052600D02*
X20472400Y-72123100D01*
D47*
X47740000Y-64400000D02*
X42945000Y-64400000D01*
D48*
X27282900Y-71376000D02*
X29036500Y-71376000D01*
D47*
X45625000Y-72510000D02*
X45625000Y-70785000D01*
X48125000Y-60384000D02*
X48200000Y-60459000D01*
X45625000Y-70785000D02*
X43800000Y-68960000D01*
X23175000Y-69525000D02*
X23300000Y-69400000D01*
X48183800Y-64843800D02*
X47740000Y-64400000D01*
X42225000Y-63097500D02*
X43612500Y-61710000D01*
X46052500Y-79400000D02*
X44362500Y-77710000D01*
D48*
X29036500Y-71376000D02*
X29750000Y-70662500D01*
D47*
X49125000Y-65785000D02*
X48183800Y-64843800D01*
D48*
X23750000Y-68950000D02*
X23300000Y-69400000D01*
D47*
X42945000Y-64400000D02*
X42225000Y-63680000D01*
D48*
X25462500Y-68950000D02*
X23750000Y-68950000D01*
D49*
X20874300Y-72525000D02*
X16525000Y-72525000D01*
D47*
X49125000Y-66260000D02*
X49125000Y-65785000D01*
D48*
X48255900Y-64952800D02*
X48183800Y-64880700D01*
X21000000Y-69525000D02*
X20472400Y-70052600D01*
X48183800Y-64880700D02*
X48183800Y-64843800D01*
D47*
X48200000Y-72100000D02*
X46035000Y-72100000D01*
D49*
X16525000Y-72525000D02*
X16500000Y-72500000D01*
X16500000Y-72500000D02*
X16500000Y-77500000D01*
D48*
%TO.N,Net-(U6-VBST)*%
X32000000Y-68025000D02*
X31025000Y-67050000D01*
X31025000Y-67050000D02*
X27737500Y-67050000D01*
D47*
%TO.N,Net-(J2-Pin_1)*%
X46917500Y-77440000D02*
X46237500Y-76760000D01*
X53800000Y-77440000D02*
X46917500Y-77440000D01*
D48*
%TO.N,SERVO1*%
X39687500Y-40483100D02*
X39472500Y-40268100D01*
X37175800Y-55947000D02*
X37175800Y-79261400D01*
X39687500Y-40483100D02*
X39472500Y-40268100D01*
X39455300Y-38584400D02*
X39255300Y-38784400D01*
X38925000Y-33959100D02*
X39455300Y-34489400D01*
X18289000Y-81660000D02*
X17668500Y-82280500D01*
X39687500Y-40483100D02*
X39768400Y-40564000D01*
X39255300Y-40050900D02*
X39472500Y-40268100D01*
X22620000Y-81660000D02*
X18289000Y-81660000D01*
X38925000Y-31220000D02*
X38925000Y-33959100D01*
X39255300Y-38784400D02*
X39255300Y-40050900D01*
X39455300Y-34489400D02*
X39455300Y-38584400D01*
X39768400Y-53354400D02*
X37175800Y-55947000D01*
X39768400Y-40564000D02*
X39768400Y-53354400D01*
%TO.N,SERVO2*%
X40195000Y-31220000D02*
X40195000Y-32271700D01*
X30490000Y-80858300D02*
X30703400Y-80858300D01*
X39857000Y-32609700D02*
X40195000Y-32271700D01*
X30490000Y-81660000D02*
X30490000Y-80858300D01*
X39857000Y-39033500D02*
X39857000Y-32609700D01*
X40404600Y-43670400D02*
X40404600Y-54155600D01*
X40404600Y-54155600D02*
X37838900Y-56721300D01*
X37838900Y-56721300D02*
X37838900Y-80301900D01*
X30703400Y-80858300D02*
X32723600Y-78838100D01*
%TO.N,SERVO3*%
X40961700Y-54749800D02*
X40961700Y-53888900D01*
X40560100Y-42975000D02*
X40560000Y-42975000D01*
X38360000Y-81660000D02*
X38360000Y-80858300D01*
X38360000Y-80858300D02*
X38761700Y-80456600D01*
X40961900Y-53888700D02*
X40961900Y-43964000D01*
X38761700Y-56949800D02*
X40961700Y-54749800D01*
X41465000Y-31220000D02*
X41465000Y-32271700D01*
X41006300Y-43919600D02*
X41006300Y-43421200D01*
X40458700Y-39282700D02*
X40458700Y-33278000D01*
X40241400Y-40469000D02*
X40241400Y-39500000D01*
X40324600Y-40552200D02*
X40241400Y-40469000D01*
X40560000Y-40787600D02*
X40324600Y-40552200D01*
X40458700Y-33278000D02*
X41465000Y-32271700D01*
X40961900Y-43964000D02*
X41006300Y-43919600D01*
X41006300Y-43421200D02*
X40560100Y-42975000D01*
X40560000Y-42975000D02*
X40560000Y-40787600D01*
X40324600Y-40552200D02*
X40241400Y-40469000D01*
X40241400Y-39500000D02*
X40458700Y-39282700D01*
X38761700Y-80456600D02*
X38761700Y-56949800D01*
X40961700Y-53888900D02*
X40961900Y-53888700D01*
%TO.N,SERVO4*%
X41363600Y-54915900D02*
X41363600Y-44130300D01*
X46230000Y-80858300D02*
X46004500Y-80858300D01*
X41044800Y-33961900D02*
X42735000Y-32271700D01*
X46230000Y-81660000D02*
X46230000Y-80858300D01*
X41044800Y-39264600D02*
X41044800Y-33961900D01*
X40643100Y-39666300D02*
X41044800Y-39264600D01*
X40726300Y-40385900D02*
X40643100Y-40302700D01*
X40726300Y-40385900D02*
X40643100Y-40302700D01*
X40961700Y-55317800D02*
X41363600Y-54915900D01*
X40643100Y-40302700D02*
X40643100Y-39666300D01*
X41408000Y-44085900D02*
X41408000Y-41067600D01*
X42735000Y-31220000D02*
X42735000Y-32271700D01*
X41363600Y-44130300D02*
X41408000Y-44085900D01*
X39469300Y-60544800D02*
X40961700Y-59052400D01*
X40961700Y-59052400D02*
X40961700Y-55317800D01*
X39469300Y-74323100D02*
X39469300Y-60544800D01*
X46004500Y-80858300D02*
X39469300Y-74323100D01*
X41408000Y-41067600D02*
X40726300Y-40385900D01*
%TO.N,GPIO1*%
X50820600Y-20984800D02*
X50820600Y-24628400D01*
X45835800Y-16000000D02*
X50820600Y-20984800D01*
X44500000Y-16000000D02*
X45835800Y-16000000D01*
X50820600Y-24628400D02*
X53951700Y-27759500D01*
X52700000Y-34140000D02*
X53951700Y-34140000D01*
X53951700Y-27759500D02*
X53951700Y-34140000D01*
%TO.N,GPIO4*%
X28051700Y-23606700D02*
X28051700Y-23620000D01*
X55847200Y-39414700D02*
X54748300Y-40513600D01*
X54748300Y-40513600D02*
X54748300Y-41760000D01*
X28330900Y-23327500D02*
X28051700Y-23606700D01*
X27000000Y-23620000D02*
X28051700Y-23620000D01*
X56000000Y-41760000D02*
X54748300Y-41760000D01*
%TO.N,GPIO2*%
X51222300Y-24462100D02*
X51222300Y-20400600D01*
X53951700Y-27191500D02*
X51222300Y-24462100D01*
X57251700Y-36680000D02*
X57251700Y-30391500D01*
X57251700Y-30391500D02*
X54051700Y-27191500D01*
X54051700Y-27191500D02*
X53951700Y-27191500D01*
X51222300Y-20400600D02*
X45551700Y-14730000D01*
X44500000Y-14730000D02*
X45551700Y-14730000D01*
X56000000Y-36680000D02*
X57251700Y-36680000D01*
%TO.N,GPIO3*%
X28746400Y-29963900D02*
X29474000Y-29963900D01*
X52700000Y-39220000D02*
X52717900Y-39202100D01*
X28051700Y-24890000D02*
X28051700Y-29269200D01*
X52717900Y-39202100D02*
X52717900Y-36571200D01*
X28051700Y-29269200D02*
X28746400Y-29963900D01*
X27000000Y-24890000D02*
X28051700Y-24890000D01*
D47*
%TO.N,Net-(J9-Pin_1)*%
X47465000Y-69800000D02*
X45675000Y-68010000D01*
X53800000Y-69800000D02*
X47465000Y-69800000D01*
%TO.N,Net-(J10-Pin_1)*%
X53800000Y-62160000D02*
X46887500Y-62160000D01*
X46887500Y-62160000D02*
X45487500Y-60760000D01*
%TO.N,Net-(J11-Pin_1)*%
X46935000Y-54520000D02*
X53800000Y-54520000D01*
X45675000Y-53260000D02*
X46935000Y-54520000D01*
D48*
%TO.N,Net-(P1-CC)*%
X24825000Y-53750000D02*
X22045000Y-53750000D01*
X25000000Y-53575000D02*
X24825000Y-53750000D01*
%TO.N,D-*%
X19329000Y-53647400D02*
X19329000Y-50161800D01*
X26481000Y-29219000D02*
X27000000Y-28700000D01*
X21595000Y-34105000D02*
X25949000Y-29751000D01*
X21996000Y-55201000D02*
X20882600Y-55201000D01*
X25949000Y-29219000D02*
X26481000Y-29219000D01*
X21595000Y-47895800D02*
X21595000Y-34105000D01*
X19329000Y-50161800D02*
X21595000Y-47895800D01*
X25949000Y-29751000D02*
X25949000Y-29219000D01*
X22045000Y-55250000D02*
X22070000Y-55225000D01*
X22045000Y-55250000D02*
X21996000Y-55201000D01*
X22070000Y-55225000D02*
X22200000Y-55225000D01*
X20882600Y-55201000D02*
X19329000Y-53647400D01*
%TO.N,D+*%
X22070000Y-54775000D02*
X22200000Y-54775000D01*
X22045000Y-34291400D02*
X26366400Y-29970000D01*
X19779000Y-50348200D02*
X22045000Y-48082200D01*
X19779000Y-52245000D02*
X19779000Y-50348200D01*
X21019000Y-54701000D02*
X21019000Y-53485000D01*
X21019000Y-53485000D02*
X19779000Y-52245000D01*
X26366400Y-29970000D02*
X27000000Y-29970000D01*
X22045000Y-54750000D02*
X22045000Y-54701000D01*
X22045000Y-48082200D02*
X22045000Y-34291400D01*
X22045000Y-54750000D02*
X22070000Y-54775000D01*
X22045000Y-54701000D02*
X21019000Y-54701000D01*
%TO.N,Net-(Q1-G)*%
X48881600Y-39414700D02*
X49048500Y-39247800D01*
X47938800Y-40173800D02*
X42328200Y-45784400D01*
X47483300Y-21722500D02*
X47175000Y-21414200D01*
X49048500Y-23529400D02*
X48702500Y-23183400D01*
X47175000Y-20025000D02*
X47900000Y-19300000D01*
X40867500Y-60282600D02*
X40867500Y-63387500D01*
X48702500Y-22016800D02*
X48408200Y-21722500D01*
X42328200Y-45784400D02*
X42328200Y-58821900D01*
X49048500Y-39247800D02*
X49048500Y-23529400D01*
X40867500Y-63387500D02*
X40575000Y-63680000D01*
X48408200Y-21722500D02*
X47483300Y-21722500D01*
X43800000Y-67060000D02*
X40575000Y-63835000D01*
X47175000Y-21414200D02*
X47175000Y-20025000D01*
X48702500Y-23183400D02*
X48702500Y-22016800D01*
X42328200Y-58821900D02*
X40867500Y-60282600D01*
X40575000Y-63835000D02*
X40575000Y-63680000D01*
%TO.N,Net-(Q2-G)*%
X47529800Y-52951500D02*
X49483300Y-50998000D01*
X43926200Y-56941000D02*
X44040200Y-57055000D01*
X46475000Y-58260000D02*
X44040200Y-58260000D01*
X49104200Y-23004300D02*
X49104200Y-21850500D01*
X49483300Y-50998000D02*
X49483300Y-23383400D01*
X49483300Y-23383400D02*
X49270500Y-23170600D01*
X44040200Y-58260000D02*
X44040200Y-59382300D01*
X44040200Y-59382300D02*
X43612500Y-59810000D01*
X49270500Y-23170600D02*
X49104200Y-23004300D01*
X44040200Y-57055000D02*
X44040200Y-58260000D01*
X49270500Y-23170600D02*
X49104200Y-23004300D01*
X49104200Y-21850500D02*
X48153700Y-20900000D01*
X48153700Y-20900000D02*
X47900000Y-20900000D01*
%TO.N,Net-(Q3-G)*%
X48279900Y-39663800D02*
X48662800Y-40046700D01*
X47368900Y-66260000D02*
X46686800Y-66942100D01*
X42019900Y-61199600D02*
X42019900Y-59919100D01*
X48641000Y-25586900D02*
X48479900Y-25748000D01*
X42739800Y-53370200D02*
X43800000Y-52310000D01*
X48479900Y-38965600D02*
X48279900Y-39165600D01*
X48641000Y-23774500D02*
X48641000Y-25586900D01*
X42739800Y-59199200D02*
X42739800Y-53370200D01*
X48479900Y-25748000D02*
X48479900Y-38965600D01*
X47475000Y-66260000D02*
X47368900Y-66260000D01*
X48662800Y-47447200D02*
X43800000Y-52310000D01*
X48279900Y-39165600D02*
X48279900Y-39663800D01*
X42019900Y-59919100D02*
X42739800Y-59199200D01*
X48000000Y-22500000D02*
X48000000Y-23133500D01*
X48000000Y-23133500D02*
X48641000Y-23774500D01*
X48662800Y-40046700D02*
X48662800Y-47447200D01*
%TO.N,Net-(Q4-G)*%
X44362500Y-75810000D02*
X43975000Y-75422500D01*
X39871000Y-68406000D02*
X39871000Y-61847100D01*
X40465800Y-60116300D02*
X41504500Y-59077600D01*
X48078200Y-31023000D02*
X47926500Y-30871300D01*
X41765300Y-44914600D02*
X48078200Y-38601700D01*
X40465800Y-61252300D02*
X40465800Y-60116300D01*
X43975000Y-75422500D02*
X43975000Y-72510000D01*
X48078200Y-31023000D02*
X47926500Y-30871300D01*
X43975000Y-72510000D02*
X39871000Y-68406000D01*
X41504500Y-59077600D02*
X41504500Y-58884200D01*
X47926500Y-24301500D02*
X47925000Y-24300000D01*
X39871000Y-61847100D02*
X40465800Y-61252300D01*
X41504500Y-58884200D02*
X41765300Y-58623400D01*
X47926500Y-30871300D02*
X47926500Y-24301500D01*
X41765300Y-58623400D02*
X41765300Y-44914600D01*
X48078200Y-38601700D02*
X48078200Y-31023000D01*
%TO.N,Net-(U6-VFB)*%
X27750000Y-69900000D02*
X27750000Y-68962500D01*
X27776000Y-69874000D02*
X27750000Y-69900000D01*
X31900000Y-69987500D02*
X31786500Y-69874000D01*
X31786500Y-69874000D02*
X27776000Y-69874000D01*
X27750000Y-68962500D02*
X27737500Y-68950000D01*
X27750000Y-70587500D02*
X27750000Y-69900000D01*
%TO.N,Net-(U6-EN)*%
X29750000Y-68837500D02*
X28912500Y-68000000D01*
X28912500Y-68000000D02*
X27737500Y-68000000D01*
%TO.N,PYRO1*%
X44500000Y-19810000D02*
X45740000Y-19810000D01*
X45740000Y-19810000D02*
X46250000Y-19300000D01*
%TO.N,PYRO2*%
X44500000Y-21080000D02*
X46070000Y-21080000D01*
X46070000Y-21080000D02*
X46250000Y-20900000D01*
%TO.N,PYRO3*%
X44500000Y-22350000D02*
X45551700Y-22350000D01*
X46350000Y-22500000D02*
X45701700Y-22500000D01*
X45701700Y-22500000D02*
X45551700Y-22350000D01*
%TO.N,PYRO4*%
X46275000Y-24300000D02*
X45595000Y-23620000D01*
X45595000Y-23620000D02*
X44500000Y-23620000D01*
%TO.N,SPI_SCLK*%
X34743300Y-36184900D02*
X34808400Y-36250000D01*
X29000000Y-38000000D02*
X29776700Y-38000000D01*
X30900400Y-39123700D02*
X29776700Y-38000000D01*
X31750000Y-40331500D02*
X30900400Y-39481900D01*
X34947200Y-34924500D02*
X34117800Y-34924500D01*
X35574700Y-34297000D02*
X34947200Y-34924500D01*
X32357600Y-47615000D02*
X33037600Y-48295000D01*
X33845000Y-31220000D02*
X33845000Y-32271700D01*
X33332500Y-32784200D02*
X33845000Y-32271700D01*
X34808400Y-36250000D02*
X35793800Y-36250000D01*
X30900400Y-39481900D02*
X30900400Y-39123700D01*
X34117800Y-34924500D02*
X33332500Y-34139200D01*
X31750000Y-41085000D02*
X31750000Y-40331500D01*
X30662500Y-47615000D02*
X32357600Y-47615000D01*
X33332500Y-34139200D02*
X33332500Y-32784200D01*
%TO.N,SPI_MISO*%
X38605300Y-48885000D02*
X39354700Y-48135600D01*
X37000000Y-38437100D02*
X37000000Y-37456200D01*
X28223300Y-35500000D02*
X27390700Y-34667400D01*
X38704700Y-43374900D02*
X38704700Y-40141800D01*
X30585000Y-41135000D02*
X30585000Y-41250000D01*
X38953000Y-43623200D02*
X38704700Y-43374900D01*
X27821600Y-35901700D02*
X28223300Y-35500000D01*
X39119300Y-45517500D02*
X38953000Y-45351200D01*
X27821600Y-38699600D02*
X27821600Y-35901700D01*
X36000100Y-27829500D02*
X36385000Y-28214400D01*
X29000000Y-35500000D02*
X28223300Y-35500000D01*
X27390700Y-34667400D02*
X27390700Y-31194600D01*
X39119300Y-45517500D02*
X38953000Y-45351200D01*
X36385000Y-28214400D02*
X36385000Y-31220000D01*
X37837500Y-48885000D02*
X38605300Y-48885000D01*
X38704700Y-40141800D02*
X37000000Y-38437100D01*
X29704500Y-40254500D02*
X30585000Y-41135000D01*
X30372000Y-41250000D02*
X27821600Y-38699600D01*
X39354700Y-45752900D02*
X39119300Y-45517500D01*
X39354700Y-48135600D02*
X39354700Y-45752900D01*
X38953000Y-45351200D02*
X38953000Y-43623200D01*
X30585000Y-41250000D02*
X30372000Y-41250000D01*
%TO.N,BARO_CS*%
X31926700Y-33673300D02*
X31926700Y-34250000D01*
X31150000Y-34250000D02*
X31926700Y-34250000D01*
X31305000Y-33051600D02*
X31926700Y-33673300D01*
X29000000Y-34250000D02*
X31150000Y-34250000D01*
X31305000Y-31220000D02*
X31305000Y-33051600D01*
%TO.N,MAG_CS*%
X35159300Y-35750000D02*
X34992500Y-35583200D01*
X34992500Y-35583200D02*
X34208500Y-35583200D01*
X34208500Y-35583200D02*
X32575000Y-33949700D01*
X32575000Y-33949700D02*
X32575000Y-31220000D01*
X35793800Y-35750000D02*
X35159300Y-35750000D01*
%TO.N,SCL*%
X53951700Y-23980000D02*
X53951700Y-22974200D01*
X27000000Y-19810000D02*
X28051700Y-19810000D01*
X28330900Y-19974400D02*
X28216100Y-19974400D01*
X28216100Y-19974400D02*
X28051700Y-19810000D01*
X53951700Y-22974200D02*
X53011900Y-22034400D01*
X52700000Y-23980000D02*
X53951700Y-23980000D01*
%TO.N,IMU_CS*%
X35872900Y-33223700D02*
X35872900Y-33104200D01*
X32250000Y-41085000D02*
X32250000Y-38659100D01*
X35872900Y-33104200D02*
X36705400Y-32271700D01*
X37655000Y-31220000D02*
X37655000Y-32271700D01*
X36705400Y-32271700D02*
X37655000Y-32271700D01*
X32250000Y-38659100D02*
X33301800Y-37607300D01*
%TO.N,SPI_MOSI*%
X35115000Y-32271700D02*
X35115000Y-33041900D01*
X29577900Y-39277000D02*
X29036300Y-39277000D01*
X35115000Y-33041900D02*
X34101700Y-34055200D01*
X33351200Y-46345000D02*
X35263900Y-48257700D01*
X31250000Y-41085000D02*
X31250000Y-40949100D01*
X29776700Y-36392400D02*
X29776700Y-36750000D01*
X35687300Y-37446100D02*
X36489900Y-37446100D01*
X36489900Y-37446100D02*
X36500000Y-37456200D01*
X35263900Y-48257700D02*
X38664600Y-48257700D01*
X29000000Y-36750000D02*
X28223300Y-36750000D01*
X30045700Y-36123400D02*
X29776700Y-36392400D01*
X29036300Y-39277000D02*
X28223300Y-38464000D01*
X38953000Y-47969300D02*
X38953000Y-45990700D01*
X35115000Y-31220000D02*
X35115000Y-32271700D01*
X38095700Y-45133400D02*
X38095700Y-44118900D01*
X38953000Y-45990700D02*
X38095700Y-45133400D01*
X29000000Y-36750000D02*
X29776700Y-36750000D01*
X38664600Y-48257700D02*
X38953000Y-47969300D01*
X30662500Y-46345000D02*
X33351200Y-46345000D01*
X31250000Y-40949100D02*
X29577900Y-39277000D01*
X28223300Y-38464000D02*
X28223300Y-36750000D01*
%TO.N,FLASH_CS*%
X44500000Y-24890000D02*
X45551700Y-24890000D01*
X45551700Y-24890000D02*
X45551700Y-29264700D01*
X47674900Y-38017200D02*
X47481400Y-38210700D01*
X47674900Y-31387900D02*
X47674900Y-38017200D01*
X45551700Y-29264700D02*
X47674900Y-31387900D01*
X37837500Y-50155000D02*
X39004900Y-50155000D01*
X47481400Y-38210700D02*
X47476400Y-38210700D01*
X39004900Y-50155000D02*
X39153600Y-50006300D01*
%TO.N,SDA*%
X56000000Y-26520000D02*
X54748300Y-26520000D01*
X54748300Y-26520000D02*
X54748300Y-21310000D01*
X54748300Y-21310000D02*
X52405200Y-18966900D01*
X25880000Y-18608300D02*
X25948300Y-18540000D01*
X24658900Y-18608300D02*
X25880000Y-18608300D01*
X27000000Y-18540000D02*
X25948300Y-18540000D01*
%TO.N,Net-(U3-INT2{slash}FSYNC{slash}CLKIN)*%
X34098300Y-42850000D02*
X33498300Y-42250000D01*
X34900000Y-42850000D02*
X34098300Y-42850000D01*
X33498300Y-42250000D02*
X32915000Y-42250000D01*
%TD*%
M02*
