%TF.GenerationSoftware,KiCad,Pcbnew,9.0.6*%
%TF.CreationDate,2025-12-30T19:39:25-08:00*%
%TF.ProjectId,Sigma1,5369676d-6131-42e6-9b69-6361645f7063,rev?*%
%TF.SameCoordinates,Original*%
%TF.FileFunction,Soldermask,Top*%
%TF.FilePolarity,Negative*%
%FSLAX46Y46*%
G04 Gerber Fmt 4.6, Leading zero omitted, Abs format (unit mm)*
G04 Created by KiCad (PCBNEW 9.0.6) date 2025-12-30 19:39:25*
%MOMM*%
%LPD*%
G01*
G04 APERTURE LIST*
G04 Aperture macros list*
%AMRoundRect*
0 Rectangle with rounded corners*
0 $1 Rounding radius*
0 $2 $3 $4 $5 $6 $7 $8 $9 X,Y pos of 4 corners*
0 Add a 4 corners polygon primitive as box body*
4,1,4,$2,$3,$4,$5,$6,$7,$8,$9,$2,$3,0*
0 Add four circle primitives for the rounded corners*
1,1,$1+$1,$2,$3*
1,1,$1+$1,$4,$5*
1,1,$1+$1,$6,$7*
1,1,$1+$1,$8,$9*
0 Add four rect primitives between the rounded corners*
20,1,$1+$1,$2,$3,$4,$5,0*
20,1,$1+$1,$4,$5,$6,$7,0*
20,1,$1+$1,$6,$7,$8,$9,0*
20,1,$1+$1,$8,$9,$2,$3,0*%
G04 Aperture macros list end*
%ADD10C,0.010000*%
%ADD11RoundRect,0.250000X0.750000X-0.750000X0.750000X0.750000X-0.750000X0.750000X-0.750000X-0.750000X0*%
%ADD12C,2.000000*%
%ADD13RoundRect,0.237500X0.237500X-0.250000X0.237500X0.250000X-0.237500X0.250000X-0.237500X-0.250000X0*%
%ADD14RoundRect,0.237500X-0.237500X0.250000X-0.237500X-0.250000X0.237500X-0.250000X0.237500X0.250000X0*%
%ADD15RoundRect,0.225000X0.225000X0.250000X-0.225000X0.250000X-0.225000X-0.250000X0.225000X-0.250000X0*%
%ADD16RoundRect,0.200000X-0.200000X-0.275000X0.200000X-0.275000X0.200000X0.275000X-0.200000X0.275000X0*%
%ADD17R,1.230000X1.860000*%
%ADD18RoundRect,0.225000X-0.225000X-0.250000X0.225000X-0.250000X0.225000X0.250000X-0.225000X0.250000X0*%
%ADD19R,1.500000X0.900000*%
%ADD20R,0.900000X1.500000*%
%ADD21C,0.600000*%
%ADD22R,3.900000X3.900000*%
%ADD23RoundRect,0.200000X0.275000X-0.200000X0.275000X0.200000X-0.275000X0.200000X-0.275000X-0.200000X0*%
%ADD24RoundRect,0.102000X-0.985000X-0.285000X0.985000X-0.285000X0.985000X0.285000X-0.985000X0.285000X0*%
%ADD25RoundRect,0.225000X-0.250000X0.225000X-0.250000X-0.225000X0.250000X-0.225000X0.250000X0.225000X0*%
%ADD26RoundRect,0.162500X0.650000X0.162500X-0.650000X0.162500X-0.650000X-0.162500X0.650000X-0.162500X0*%
%ADD27C,3.200000*%
%ADD28RoundRect,0.760000X-1.140000X1.140000X-1.140000X-1.140000X1.140000X-1.140000X1.140000X1.140000X0*%
%ADD29C,4.000000*%
%ADD30R,1.700000X1.700000*%
%ADD31C,1.700000*%
%ADD32RoundRect,0.150000X-0.587500X-0.150000X0.587500X-0.150000X0.587500X0.150000X-0.587500X0.150000X0*%
%ADD33RoundRect,0.225000X0.250000X-0.225000X0.250000X0.225000X-0.250000X0.225000X-0.250000X-0.225000X0*%
%ADD34R,0.300000X0.300000*%
%ADD35RoundRect,0.375000X0.375000X-0.625000X0.375000X0.625000X-0.375000X0.625000X-0.375000X-0.625000X0*%
%ADD36RoundRect,0.500000X1.400000X-0.500000X1.400000X0.500000X-1.400000X0.500000X-1.400000X-0.500000X0*%
%ADD37RoundRect,0.102000X-0.500000X-0.400000X0.500000X-0.400000X0.500000X0.400000X-0.500000X0.400000X0*%
%ADD38C,0.650000*%
%ADD39R,1.450000X0.600000*%
%ADD40R,1.450000X0.300000*%
%ADD41O,2.100000X1.000000*%
%ADD42O,1.600000X1.000000*%
%ADD43RoundRect,0.150000X-0.512500X-0.150000X0.512500X-0.150000X0.512500X0.150000X-0.512500X0.150000X0*%
G04 APERTURE END LIST*
D10*
%TO.C,U3*%
X30818000Y-41026000D02*
X30825000Y-41027000D01*
X30831000Y-41028000D01*
X30837000Y-41029000D01*
X30844000Y-41031000D01*
X30850000Y-41033000D01*
X30856000Y-41036000D01*
X30862000Y-41039000D01*
X30868000Y-41042000D01*
X30873000Y-41045000D01*
X30878000Y-41049000D01*
X30884000Y-41053000D01*
X30889000Y-41057000D01*
X30893000Y-41062000D01*
X30898000Y-41066000D01*
X30902000Y-41071000D01*
X30906000Y-41077000D01*
X30910000Y-41082000D01*
X30913000Y-41088000D01*
X30916000Y-41093000D01*
X30919000Y-41099000D01*
X30922000Y-41105000D01*
X30924000Y-41111000D01*
X30926000Y-41118000D01*
X30927000Y-41124000D01*
X30928000Y-41130000D01*
X30929000Y-41137000D01*
X30930000Y-41143000D01*
X30930000Y-41150000D01*
X30930000Y-41350000D01*
X30930000Y-41357000D01*
X30929000Y-41363000D01*
X30928000Y-41370000D01*
X30927000Y-41376000D01*
X30926000Y-41382000D01*
X30924000Y-41389000D01*
X30922000Y-41395000D01*
X30919000Y-41401000D01*
X30916000Y-41407000D01*
X30913000Y-41412000D01*
X30910000Y-41418000D01*
X30906000Y-41423000D01*
X30902000Y-41429000D01*
X30898000Y-41434000D01*
X30893000Y-41438000D01*
X30889000Y-41443000D01*
X30884000Y-41447000D01*
X30878000Y-41451000D01*
X30873000Y-41455000D01*
X30868000Y-41458000D01*
X30862000Y-41461000D01*
X30856000Y-41464000D01*
X30850000Y-41467000D01*
X30844000Y-41469000D01*
X30837000Y-41471000D01*
X30831000Y-41472000D01*
X30825000Y-41473000D01*
X30818000Y-41474000D01*
X30812000Y-41475000D01*
X30805000Y-41475000D01*
X30365000Y-41475000D01*
X30358000Y-41475000D01*
X30352000Y-41474000D01*
X30345000Y-41473000D01*
X30339000Y-41472000D01*
X30333000Y-41471000D01*
X30326000Y-41469000D01*
X30320000Y-41467000D01*
X30314000Y-41464000D01*
X30308000Y-41461000D01*
X30302000Y-41458000D01*
X30297000Y-41455000D01*
X30292000Y-41451000D01*
X30286000Y-41447000D01*
X30281000Y-41443000D01*
X30277000Y-41438000D01*
X30272000Y-41434000D01*
X30268000Y-41429000D01*
X30264000Y-41423000D01*
X30260000Y-41418000D01*
X30257000Y-41412000D01*
X30254000Y-41407000D01*
X30251000Y-41401000D01*
X30248000Y-41395000D01*
X30246000Y-41389000D01*
X30244000Y-41382000D01*
X30243000Y-41376000D01*
X30242000Y-41370000D01*
X30241000Y-41363000D01*
X30240000Y-41357000D01*
X30240000Y-41350000D01*
X30240000Y-41150000D01*
X30240000Y-41143000D01*
X30241000Y-41137000D01*
X30242000Y-41130000D01*
X30243000Y-41124000D01*
X30244000Y-41118000D01*
X30246000Y-41111000D01*
X30248000Y-41105000D01*
X30251000Y-41099000D01*
X30254000Y-41093000D01*
X30257000Y-41088000D01*
X30260000Y-41082000D01*
X30264000Y-41077000D01*
X30268000Y-41071000D01*
X30272000Y-41066000D01*
X30277000Y-41062000D01*
X30281000Y-41057000D01*
X30286000Y-41053000D01*
X30292000Y-41049000D01*
X30297000Y-41045000D01*
X30302000Y-41042000D01*
X30308000Y-41039000D01*
X30314000Y-41036000D01*
X30320000Y-41033000D01*
X30326000Y-41031000D01*
X30333000Y-41029000D01*
X30339000Y-41028000D01*
X30345000Y-41027000D01*
X30352000Y-41026000D01*
X30358000Y-41025000D01*
X30365000Y-41025000D01*
X30805000Y-41025000D01*
X30812000Y-41025000D01*
X30818000Y-41026000D01*
G36*
X30818000Y-41026000D02*
G01*
X30825000Y-41027000D01*
X30831000Y-41028000D01*
X30837000Y-41029000D01*
X30844000Y-41031000D01*
X30850000Y-41033000D01*
X30856000Y-41036000D01*
X30862000Y-41039000D01*
X30868000Y-41042000D01*
X30873000Y-41045000D01*
X30878000Y-41049000D01*
X30884000Y-41053000D01*
X30889000Y-41057000D01*
X30893000Y-41062000D01*
X30898000Y-41066000D01*
X30902000Y-41071000D01*
X30906000Y-41077000D01*
X30910000Y-41082000D01*
X30913000Y-41088000D01*
X30916000Y-41093000D01*
X30919000Y-41099000D01*
X30922000Y-41105000D01*
X30924000Y-41111000D01*
X30926000Y-41118000D01*
X30927000Y-41124000D01*
X30928000Y-41130000D01*
X30929000Y-41137000D01*
X30930000Y-41143000D01*
X30930000Y-41150000D01*
X30930000Y-41350000D01*
X30930000Y-41357000D01*
X30929000Y-41363000D01*
X30928000Y-41370000D01*
X30927000Y-41376000D01*
X30926000Y-41382000D01*
X30924000Y-41389000D01*
X30922000Y-41395000D01*
X30919000Y-41401000D01*
X30916000Y-41407000D01*
X30913000Y-41412000D01*
X30910000Y-41418000D01*
X30906000Y-41423000D01*
X30902000Y-41429000D01*
X30898000Y-41434000D01*
X30893000Y-41438000D01*
X30889000Y-41443000D01*
X30884000Y-41447000D01*
X30878000Y-41451000D01*
X30873000Y-41455000D01*
X30868000Y-41458000D01*
X30862000Y-41461000D01*
X30856000Y-41464000D01*
X30850000Y-41467000D01*
X30844000Y-41469000D01*
X30837000Y-41471000D01*
X30831000Y-41472000D01*
X30825000Y-41473000D01*
X30818000Y-41474000D01*
X30812000Y-41475000D01*
X30805000Y-41475000D01*
X30365000Y-41475000D01*
X30358000Y-41475000D01*
X30352000Y-41474000D01*
X30345000Y-41473000D01*
X30339000Y-41472000D01*
X30333000Y-41471000D01*
X30326000Y-41469000D01*
X30320000Y-41467000D01*
X30314000Y-41464000D01*
X30308000Y-41461000D01*
X30302000Y-41458000D01*
X30297000Y-41455000D01*
X30292000Y-41451000D01*
X30286000Y-41447000D01*
X30281000Y-41443000D01*
X30277000Y-41438000D01*
X30272000Y-41434000D01*
X30268000Y-41429000D01*
X30264000Y-41423000D01*
X30260000Y-41418000D01*
X30257000Y-41412000D01*
X30254000Y-41407000D01*
X30251000Y-41401000D01*
X30248000Y-41395000D01*
X30246000Y-41389000D01*
X30244000Y-41382000D01*
X30243000Y-41376000D01*
X30242000Y-41370000D01*
X30241000Y-41363000D01*
X30240000Y-41357000D01*
X30240000Y-41350000D01*
X30240000Y-41150000D01*
X30240000Y-41143000D01*
X30241000Y-41137000D01*
X30242000Y-41130000D01*
X30243000Y-41124000D01*
X30244000Y-41118000D01*
X30246000Y-41111000D01*
X30248000Y-41105000D01*
X30251000Y-41099000D01*
X30254000Y-41093000D01*
X30257000Y-41088000D01*
X30260000Y-41082000D01*
X30264000Y-41077000D01*
X30268000Y-41071000D01*
X30272000Y-41066000D01*
X30277000Y-41062000D01*
X30281000Y-41057000D01*
X30286000Y-41053000D01*
X30292000Y-41049000D01*
X30297000Y-41045000D01*
X30302000Y-41042000D01*
X30308000Y-41039000D01*
X30314000Y-41036000D01*
X30320000Y-41033000D01*
X30326000Y-41031000D01*
X30333000Y-41029000D01*
X30339000Y-41028000D01*
X30345000Y-41027000D01*
X30352000Y-41026000D01*
X30358000Y-41025000D01*
X30365000Y-41025000D01*
X30805000Y-41025000D01*
X30812000Y-41025000D01*
X30818000Y-41026000D01*
G37*
X30818000Y-41526000D02*
X30825000Y-41527000D01*
X30831000Y-41528000D01*
X30837000Y-41529000D01*
X30844000Y-41531000D01*
X30850000Y-41533000D01*
X30856000Y-41536000D01*
X30862000Y-41539000D01*
X30868000Y-41542000D01*
X30873000Y-41545000D01*
X30878000Y-41549000D01*
X30884000Y-41553000D01*
X30889000Y-41557000D01*
X30893000Y-41562000D01*
X30898000Y-41566000D01*
X30902000Y-41571000D01*
X30906000Y-41577000D01*
X30910000Y-41582000D01*
X30913000Y-41588000D01*
X30916000Y-41593000D01*
X30919000Y-41599000D01*
X30922000Y-41605000D01*
X30924000Y-41611000D01*
X30926000Y-41618000D01*
X30927000Y-41624000D01*
X30928000Y-41630000D01*
X30929000Y-41637000D01*
X30930000Y-41643000D01*
X30930000Y-41650000D01*
X30930000Y-41850000D01*
X30930000Y-41857000D01*
X30929000Y-41863000D01*
X30928000Y-41870000D01*
X30927000Y-41876000D01*
X30926000Y-41882000D01*
X30924000Y-41889000D01*
X30922000Y-41895000D01*
X30919000Y-41901000D01*
X30916000Y-41907000D01*
X30913000Y-41912000D01*
X30910000Y-41918000D01*
X30906000Y-41923000D01*
X30902000Y-41929000D01*
X30898000Y-41934000D01*
X30893000Y-41938000D01*
X30889000Y-41943000D01*
X30884000Y-41947000D01*
X30878000Y-41951000D01*
X30873000Y-41955000D01*
X30868000Y-41958000D01*
X30862000Y-41961000D01*
X30856000Y-41964000D01*
X30850000Y-41967000D01*
X30844000Y-41969000D01*
X30837000Y-41971000D01*
X30831000Y-41972000D01*
X30825000Y-41973000D01*
X30818000Y-41974000D01*
X30812000Y-41975000D01*
X30805000Y-41975000D01*
X30365000Y-41975000D01*
X30358000Y-41975000D01*
X30352000Y-41974000D01*
X30345000Y-41973000D01*
X30339000Y-41972000D01*
X30333000Y-41971000D01*
X30326000Y-41969000D01*
X30320000Y-41967000D01*
X30314000Y-41964000D01*
X30308000Y-41961000D01*
X30302000Y-41958000D01*
X30297000Y-41955000D01*
X30292000Y-41951000D01*
X30286000Y-41947000D01*
X30281000Y-41943000D01*
X30277000Y-41938000D01*
X30272000Y-41934000D01*
X30268000Y-41929000D01*
X30264000Y-41923000D01*
X30260000Y-41918000D01*
X30257000Y-41912000D01*
X30254000Y-41907000D01*
X30251000Y-41901000D01*
X30248000Y-41895000D01*
X30246000Y-41889000D01*
X30244000Y-41882000D01*
X30243000Y-41876000D01*
X30242000Y-41870000D01*
X30241000Y-41863000D01*
X30240000Y-41857000D01*
X30240000Y-41850000D01*
X30240000Y-41650000D01*
X30240000Y-41643000D01*
X30241000Y-41637000D01*
X30242000Y-41630000D01*
X30243000Y-41624000D01*
X30244000Y-41618000D01*
X30246000Y-41611000D01*
X30248000Y-41605000D01*
X30251000Y-41599000D01*
X30254000Y-41593000D01*
X30257000Y-41588000D01*
X30260000Y-41582000D01*
X30264000Y-41577000D01*
X30268000Y-41571000D01*
X30272000Y-41566000D01*
X30277000Y-41562000D01*
X30281000Y-41557000D01*
X30286000Y-41553000D01*
X30292000Y-41549000D01*
X30297000Y-41545000D01*
X30302000Y-41542000D01*
X30308000Y-41539000D01*
X30314000Y-41536000D01*
X30320000Y-41533000D01*
X30326000Y-41531000D01*
X30333000Y-41529000D01*
X30339000Y-41528000D01*
X30345000Y-41527000D01*
X30352000Y-41526000D01*
X30358000Y-41525000D01*
X30365000Y-41525000D01*
X30805000Y-41525000D01*
X30812000Y-41525000D01*
X30818000Y-41526000D01*
G36*
X30818000Y-41526000D02*
G01*
X30825000Y-41527000D01*
X30831000Y-41528000D01*
X30837000Y-41529000D01*
X30844000Y-41531000D01*
X30850000Y-41533000D01*
X30856000Y-41536000D01*
X30862000Y-41539000D01*
X30868000Y-41542000D01*
X30873000Y-41545000D01*
X30878000Y-41549000D01*
X30884000Y-41553000D01*
X30889000Y-41557000D01*
X30893000Y-41562000D01*
X30898000Y-41566000D01*
X30902000Y-41571000D01*
X30906000Y-41577000D01*
X30910000Y-41582000D01*
X30913000Y-41588000D01*
X30916000Y-41593000D01*
X30919000Y-41599000D01*
X30922000Y-41605000D01*
X30924000Y-41611000D01*
X30926000Y-41618000D01*
X30927000Y-41624000D01*
X30928000Y-41630000D01*
X30929000Y-41637000D01*
X30930000Y-41643000D01*
X30930000Y-41650000D01*
X30930000Y-41850000D01*
X30930000Y-41857000D01*
X30929000Y-41863000D01*
X30928000Y-41870000D01*
X30927000Y-41876000D01*
X30926000Y-41882000D01*
X30924000Y-41889000D01*
X30922000Y-41895000D01*
X30919000Y-41901000D01*
X30916000Y-41907000D01*
X30913000Y-41912000D01*
X30910000Y-41918000D01*
X30906000Y-41923000D01*
X30902000Y-41929000D01*
X30898000Y-41934000D01*
X30893000Y-41938000D01*
X30889000Y-41943000D01*
X30884000Y-41947000D01*
X30878000Y-41951000D01*
X30873000Y-41955000D01*
X30868000Y-41958000D01*
X30862000Y-41961000D01*
X30856000Y-41964000D01*
X30850000Y-41967000D01*
X30844000Y-41969000D01*
X30837000Y-41971000D01*
X30831000Y-41972000D01*
X30825000Y-41973000D01*
X30818000Y-41974000D01*
X30812000Y-41975000D01*
X30805000Y-41975000D01*
X30365000Y-41975000D01*
X30358000Y-41975000D01*
X30352000Y-41974000D01*
X30345000Y-41973000D01*
X30339000Y-41972000D01*
X30333000Y-41971000D01*
X30326000Y-41969000D01*
X30320000Y-41967000D01*
X30314000Y-41964000D01*
X30308000Y-41961000D01*
X30302000Y-41958000D01*
X30297000Y-41955000D01*
X30292000Y-41951000D01*
X30286000Y-41947000D01*
X30281000Y-41943000D01*
X30277000Y-41938000D01*
X30272000Y-41934000D01*
X30268000Y-41929000D01*
X30264000Y-41923000D01*
X30260000Y-41918000D01*
X30257000Y-41912000D01*
X30254000Y-41907000D01*
X30251000Y-41901000D01*
X30248000Y-41895000D01*
X30246000Y-41889000D01*
X30244000Y-41882000D01*
X30243000Y-41876000D01*
X30242000Y-41870000D01*
X30241000Y-41863000D01*
X30240000Y-41857000D01*
X30240000Y-41850000D01*
X30240000Y-41650000D01*
X30240000Y-41643000D01*
X30241000Y-41637000D01*
X30242000Y-41630000D01*
X30243000Y-41624000D01*
X30244000Y-41618000D01*
X30246000Y-41611000D01*
X30248000Y-41605000D01*
X30251000Y-41599000D01*
X30254000Y-41593000D01*
X30257000Y-41588000D01*
X30260000Y-41582000D01*
X30264000Y-41577000D01*
X30268000Y-41571000D01*
X30272000Y-41566000D01*
X30277000Y-41562000D01*
X30281000Y-41557000D01*
X30286000Y-41553000D01*
X30292000Y-41549000D01*
X30297000Y-41545000D01*
X30302000Y-41542000D01*
X30308000Y-41539000D01*
X30314000Y-41536000D01*
X30320000Y-41533000D01*
X30326000Y-41531000D01*
X30333000Y-41529000D01*
X30339000Y-41528000D01*
X30345000Y-41527000D01*
X30352000Y-41526000D01*
X30358000Y-41525000D01*
X30365000Y-41525000D01*
X30805000Y-41525000D01*
X30812000Y-41525000D01*
X30818000Y-41526000D01*
G37*
X30818000Y-42026000D02*
X30825000Y-42027000D01*
X30831000Y-42028000D01*
X30837000Y-42029000D01*
X30844000Y-42031000D01*
X30850000Y-42033000D01*
X30856000Y-42036000D01*
X30862000Y-42039000D01*
X30868000Y-42042000D01*
X30873000Y-42045000D01*
X30878000Y-42049000D01*
X30884000Y-42053000D01*
X30889000Y-42057000D01*
X30893000Y-42062000D01*
X30898000Y-42066000D01*
X30902000Y-42071000D01*
X30906000Y-42077000D01*
X30910000Y-42082000D01*
X30913000Y-42088000D01*
X30916000Y-42093000D01*
X30919000Y-42099000D01*
X30922000Y-42105000D01*
X30924000Y-42111000D01*
X30926000Y-42118000D01*
X30927000Y-42124000D01*
X30928000Y-42130000D01*
X30929000Y-42137000D01*
X30930000Y-42143000D01*
X30930000Y-42150000D01*
X30930000Y-42350000D01*
X30930000Y-42357000D01*
X30929000Y-42363000D01*
X30928000Y-42370000D01*
X30927000Y-42376000D01*
X30926000Y-42382000D01*
X30924000Y-42389000D01*
X30922000Y-42395000D01*
X30919000Y-42401000D01*
X30916000Y-42407000D01*
X30913000Y-42412000D01*
X30910000Y-42418000D01*
X30906000Y-42423000D01*
X30902000Y-42429000D01*
X30898000Y-42434000D01*
X30893000Y-42438000D01*
X30889000Y-42443000D01*
X30884000Y-42447000D01*
X30878000Y-42451000D01*
X30873000Y-42455000D01*
X30868000Y-42458000D01*
X30862000Y-42461000D01*
X30856000Y-42464000D01*
X30850000Y-42467000D01*
X30844000Y-42469000D01*
X30837000Y-42471000D01*
X30831000Y-42472000D01*
X30825000Y-42473000D01*
X30818000Y-42474000D01*
X30812000Y-42475000D01*
X30805000Y-42475000D01*
X30365000Y-42475000D01*
X30358000Y-42475000D01*
X30352000Y-42474000D01*
X30345000Y-42473000D01*
X30339000Y-42472000D01*
X30333000Y-42471000D01*
X30326000Y-42469000D01*
X30320000Y-42467000D01*
X30314000Y-42464000D01*
X30308000Y-42461000D01*
X30302000Y-42458000D01*
X30297000Y-42455000D01*
X30292000Y-42451000D01*
X30286000Y-42447000D01*
X30281000Y-42443000D01*
X30277000Y-42438000D01*
X30272000Y-42434000D01*
X30268000Y-42429000D01*
X30264000Y-42423000D01*
X30260000Y-42418000D01*
X30257000Y-42412000D01*
X30254000Y-42407000D01*
X30251000Y-42401000D01*
X30248000Y-42395000D01*
X30246000Y-42389000D01*
X30244000Y-42382000D01*
X30243000Y-42376000D01*
X30242000Y-42370000D01*
X30241000Y-42363000D01*
X30240000Y-42357000D01*
X30240000Y-42350000D01*
X30240000Y-42150000D01*
X30240000Y-42143000D01*
X30241000Y-42137000D01*
X30242000Y-42130000D01*
X30243000Y-42124000D01*
X30244000Y-42118000D01*
X30246000Y-42111000D01*
X30248000Y-42105000D01*
X30251000Y-42099000D01*
X30254000Y-42093000D01*
X30257000Y-42088000D01*
X30260000Y-42082000D01*
X30264000Y-42077000D01*
X30268000Y-42071000D01*
X30272000Y-42066000D01*
X30277000Y-42062000D01*
X30281000Y-42057000D01*
X30286000Y-42053000D01*
X30292000Y-42049000D01*
X30297000Y-42045000D01*
X30302000Y-42042000D01*
X30308000Y-42039000D01*
X30314000Y-42036000D01*
X30320000Y-42033000D01*
X30326000Y-42031000D01*
X30333000Y-42029000D01*
X30339000Y-42028000D01*
X30345000Y-42027000D01*
X30352000Y-42026000D01*
X30358000Y-42025000D01*
X30365000Y-42025000D01*
X30805000Y-42025000D01*
X30812000Y-42025000D01*
X30818000Y-42026000D01*
G36*
X30818000Y-42026000D02*
G01*
X30825000Y-42027000D01*
X30831000Y-42028000D01*
X30837000Y-42029000D01*
X30844000Y-42031000D01*
X30850000Y-42033000D01*
X30856000Y-42036000D01*
X30862000Y-42039000D01*
X30868000Y-42042000D01*
X30873000Y-42045000D01*
X30878000Y-42049000D01*
X30884000Y-42053000D01*
X30889000Y-42057000D01*
X30893000Y-42062000D01*
X30898000Y-42066000D01*
X30902000Y-42071000D01*
X30906000Y-42077000D01*
X30910000Y-42082000D01*
X30913000Y-42088000D01*
X30916000Y-42093000D01*
X30919000Y-42099000D01*
X30922000Y-42105000D01*
X30924000Y-42111000D01*
X30926000Y-42118000D01*
X30927000Y-42124000D01*
X30928000Y-42130000D01*
X30929000Y-42137000D01*
X30930000Y-42143000D01*
X30930000Y-42150000D01*
X30930000Y-42350000D01*
X30930000Y-42357000D01*
X30929000Y-42363000D01*
X30928000Y-42370000D01*
X30927000Y-42376000D01*
X30926000Y-42382000D01*
X30924000Y-42389000D01*
X30922000Y-42395000D01*
X30919000Y-42401000D01*
X30916000Y-42407000D01*
X30913000Y-42412000D01*
X30910000Y-42418000D01*
X30906000Y-42423000D01*
X30902000Y-42429000D01*
X30898000Y-42434000D01*
X30893000Y-42438000D01*
X30889000Y-42443000D01*
X30884000Y-42447000D01*
X30878000Y-42451000D01*
X30873000Y-42455000D01*
X30868000Y-42458000D01*
X30862000Y-42461000D01*
X30856000Y-42464000D01*
X30850000Y-42467000D01*
X30844000Y-42469000D01*
X30837000Y-42471000D01*
X30831000Y-42472000D01*
X30825000Y-42473000D01*
X30818000Y-42474000D01*
X30812000Y-42475000D01*
X30805000Y-42475000D01*
X30365000Y-42475000D01*
X30358000Y-42475000D01*
X30352000Y-42474000D01*
X30345000Y-42473000D01*
X30339000Y-42472000D01*
X30333000Y-42471000D01*
X30326000Y-42469000D01*
X30320000Y-42467000D01*
X30314000Y-42464000D01*
X30308000Y-42461000D01*
X30302000Y-42458000D01*
X30297000Y-42455000D01*
X30292000Y-42451000D01*
X30286000Y-42447000D01*
X30281000Y-42443000D01*
X30277000Y-42438000D01*
X30272000Y-42434000D01*
X30268000Y-42429000D01*
X30264000Y-42423000D01*
X30260000Y-42418000D01*
X30257000Y-42412000D01*
X30254000Y-42407000D01*
X30251000Y-42401000D01*
X30248000Y-42395000D01*
X30246000Y-42389000D01*
X30244000Y-42382000D01*
X30243000Y-42376000D01*
X30242000Y-42370000D01*
X30241000Y-42363000D01*
X30240000Y-42357000D01*
X30240000Y-42350000D01*
X30240000Y-42150000D01*
X30240000Y-42143000D01*
X30241000Y-42137000D01*
X30242000Y-42130000D01*
X30243000Y-42124000D01*
X30244000Y-42118000D01*
X30246000Y-42111000D01*
X30248000Y-42105000D01*
X30251000Y-42099000D01*
X30254000Y-42093000D01*
X30257000Y-42088000D01*
X30260000Y-42082000D01*
X30264000Y-42077000D01*
X30268000Y-42071000D01*
X30272000Y-42066000D01*
X30277000Y-42062000D01*
X30281000Y-42057000D01*
X30286000Y-42053000D01*
X30292000Y-42049000D01*
X30297000Y-42045000D01*
X30302000Y-42042000D01*
X30308000Y-42039000D01*
X30314000Y-42036000D01*
X30320000Y-42033000D01*
X30326000Y-42031000D01*
X30333000Y-42029000D01*
X30339000Y-42028000D01*
X30345000Y-42027000D01*
X30352000Y-42026000D01*
X30358000Y-42025000D01*
X30365000Y-42025000D01*
X30805000Y-42025000D01*
X30812000Y-42025000D01*
X30818000Y-42026000D01*
G37*
X30818000Y-42526000D02*
X30825000Y-42527000D01*
X30831000Y-42528000D01*
X30837000Y-42529000D01*
X30844000Y-42531000D01*
X30850000Y-42533000D01*
X30856000Y-42536000D01*
X30862000Y-42539000D01*
X30868000Y-42542000D01*
X30873000Y-42545000D01*
X30878000Y-42549000D01*
X30884000Y-42553000D01*
X30889000Y-42557000D01*
X30893000Y-42562000D01*
X30898000Y-42566000D01*
X30902000Y-42571000D01*
X30906000Y-42577000D01*
X30910000Y-42582000D01*
X30913000Y-42588000D01*
X30916000Y-42593000D01*
X30919000Y-42599000D01*
X30922000Y-42605000D01*
X30924000Y-42611000D01*
X30926000Y-42618000D01*
X30927000Y-42624000D01*
X30928000Y-42630000D01*
X30929000Y-42637000D01*
X30930000Y-42643000D01*
X30930000Y-42650000D01*
X30930000Y-42850000D01*
X30930000Y-42857000D01*
X30929000Y-42863000D01*
X30928000Y-42870000D01*
X30927000Y-42876000D01*
X30926000Y-42882000D01*
X30924000Y-42889000D01*
X30922000Y-42895000D01*
X30919000Y-42901000D01*
X30916000Y-42907000D01*
X30913000Y-42912000D01*
X30910000Y-42918000D01*
X30906000Y-42923000D01*
X30902000Y-42929000D01*
X30898000Y-42934000D01*
X30893000Y-42938000D01*
X30889000Y-42943000D01*
X30884000Y-42947000D01*
X30878000Y-42951000D01*
X30873000Y-42955000D01*
X30868000Y-42958000D01*
X30862000Y-42961000D01*
X30856000Y-42964000D01*
X30850000Y-42967000D01*
X30844000Y-42969000D01*
X30837000Y-42971000D01*
X30831000Y-42972000D01*
X30825000Y-42973000D01*
X30818000Y-42974000D01*
X30812000Y-42975000D01*
X30805000Y-42975000D01*
X30365000Y-42975000D01*
X30358000Y-42975000D01*
X30352000Y-42974000D01*
X30345000Y-42973000D01*
X30339000Y-42972000D01*
X30333000Y-42971000D01*
X30326000Y-42969000D01*
X30320000Y-42967000D01*
X30314000Y-42964000D01*
X30308000Y-42961000D01*
X30302000Y-42958000D01*
X30297000Y-42955000D01*
X30292000Y-42951000D01*
X30286000Y-42947000D01*
X30281000Y-42943000D01*
X30277000Y-42938000D01*
X30272000Y-42934000D01*
X30268000Y-42929000D01*
X30264000Y-42923000D01*
X30260000Y-42918000D01*
X30257000Y-42912000D01*
X30254000Y-42907000D01*
X30251000Y-42901000D01*
X30248000Y-42895000D01*
X30246000Y-42889000D01*
X30244000Y-42882000D01*
X30243000Y-42876000D01*
X30242000Y-42870000D01*
X30241000Y-42863000D01*
X30240000Y-42857000D01*
X30240000Y-42850000D01*
X30240000Y-42650000D01*
X30240000Y-42643000D01*
X30241000Y-42637000D01*
X30242000Y-42630000D01*
X30243000Y-42624000D01*
X30244000Y-42618000D01*
X30246000Y-42611000D01*
X30248000Y-42605000D01*
X30251000Y-42599000D01*
X30254000Y-42593000D01*
X30257000Y-42588000D01*
X30260000Y-42582000D01*
X30264000Y-42577000D01*
X30268000Y-42571000D01*
X30272000Y-42566000D01*
X30277000Y-42562000D01*
X30281000Y-42557000D01*
X30286000Y-42553000D01*
X30292000Y-42549000D01*
X30297000Y-42545000D01*
X30302000Y-42542000D01*
X30308000Y-42539000D01*
X30314000Y-42536000D01*
X30320000Y-42533000D01*
X30326000Y-42531000D01*
X30333000Y-42529000D01*
X30339000Y-42528000D01*
X30345000Y-42527000D01*
X30352000Y-42526000D01*
X30358000Y-42525000D01*
X30365000Y-42525000D01*
X30805000Y-42525000D01*
X30812000Y-42525000D01*
X30818000Y-42526000D01*
G36*
X30818000Y-42526000D02*
G01*
X30825000Y-42527000D01*
X30831000Y-42528000D01*
X30837000Y-42529000D01*
X30844000Y-42531000D01*
X30850000Y-42533000D01*
X30856000Y-42536000D01*
X30862000Y-42539000D01*
X30868000Y-42542000D01*
X30873000Y-42545000D01*
X30878000Y-42549000D01*
X30884000Y-42553000D01*
X30889000Y-42557000D01*
X30893000Y-42562000D01*
X30898000Y-42566000D01*
X30902000Y-42571000D01*
X30906000Y-42577000D01*
X30910000Y-42582000D01*
X30913000Y-42588000D01*
X30916000Y-42593000D01*
X30919000Y-42599000D01*
X30922000Y-42605000D01*
X30924000Y-42611000D01*
X30926000Y-42618000D01*
X30927000Y-42624000D01*
X30928000Y-42630000D01*
X30929000Y-42637000D01*
X30930000Y-42643000D01*
X30930000Y-42650000D01*
X30930000Y-42850000D01*
X30930000Y-42857000D01*
X30929000Y-42863000D01*
X30928000Y-42870000D01*
X30927000Y-42876000D01*
X30926000Y-42882000D01*
X30924000Y-42889000D01*
X30922000Y-42895000D01*
X30919000Y-42901000D01*
X30916000Y-42907000D01*
X30913000Y-42912000D01*
X30910000Y-42918000D01*
X30906000Y-42923000D01*
X30902000Y-42929000D01*
X30898000Y-42934000D01*
X30893000Y-42938000D01*
X30889000Y-42943000D01*
X30884000Y-42947000D01*
X30878000Y-42951000D01*
X30873000Y-42955000D01*
X30868000Y-42958000D01*
X30862000Y-42961000D01*
X30856000Y-42964000D01*
X30850000Y-42967000D01*
X30844000Y-42969000D01*
X30837000Y-42971000D01*
X30831000Y-42972000D01*
X30825000Y-42973000D01*
X30818000Y-42974000D01*
X30812000Y-42975000D01*
X30805000Y-42975000D01*
X30365000Y-42975000D01*
X30358000Y-42975000D01*
X30352000Y-42974000D01*
X30345000Y-42973000D01*
X30339000Y-42972000D01*
X30333000Y-42971000D01*
X30326000Y-42969000D01*
X30320000Y-42967000D01*
X30314000Y-42964000D01*
X30308000Y-42961000D01*
X30302000Y-42958000D01*
X30297000Y-42955000D01*
X30292000Y-42951000D01*
X30286000Y-42947000D01*
X30281000Y-42943000D01*
X30277000Y-42938000D01*
X30272000Y-42934000D01*
X30268000Y-42929000D01*
X30264000Y-42923000D01*
X30260000Y-42918000D01*
X30257000Y-42912000D01*
X30254000Y-42907000D01*
X30251000Y-42901000D01*
X30248000Y-42895000D01*
X30246000Y-42889000D01*
X30244000Y-42882000D01*
X30243000Y-42876000D01*
X30242000Y-42870000D01*
X30241000Y-42863000D01*
X30240000Y-42857000D01*
X30240000Y-42850000D01*
X30240000Y-42650000D01*
X30240000Y-42643000D01*
X30241000Y-42637000D01*
X30242000Y-42630000D01*
X30243000Y-42624000D01*
X30244000Y-42618000D01*
X30246000Y-42611000D01*
X30248000Y-42605000D01*
X30251000Y-42599000D01*
X30254000Y-42593000D01*
X30257000Y-42588000D01*
X30260000Y-42582000D01*
X30264000Y-42577000D01*
X30268000Y-42571000D01*
X30272000Y-42566000D01*
X30277000Y-42562000D01*
X30281000Y-42557000D01*
X30286000Y-42553000D01*
X30292000Y-42549000D01*
X30297000Y-42545000D01*
X30302000Y-42542000D01*
X30308000Y-42539000D01*
X30314000Y-42536000D01*
X30320000Y-42533000D01*
X30326000Y-42531000D01*
X30333000Y-42529000D01*
X30339000Y-42528000D01*
X30345000Y-42527000D01*
X30352000Y-42526000D01*
X30358000Y-42525000D01*
X30365000Y-42525000D01*
X30805000Y-42525000D01*
X30812000Y-42525000D01*
X30818000Y-42526000D01*
G37*
X31363000Y-40741000D02*
X31370000Y-40742000D01*
X31376000Y-40743000D01*
X31382000Y-40744000D01*
X31389000Y-40746000D01*
X31395000Y-40748000D01*
X31401000Y-40751000D01*
X31407000Y-40754000D01*
X31412000Y-40757000D01*
X31418000Y-40760000D01*
X31423000Y-40764000D01*
X31429000Y-40768000D01*
X31434000Y-40772000D01*
X31438000Y-40777000D01*
X31443000Y-40781000D01*
X31447000Y-40786000D01*
X31451000Y-40792000D01*
X31455000Y-40797000D01*
X31458000Y-40802000D01*
X31461000Y-40808000D01*
X31464000Y-40814000D01*
X31467000Y-40820000D01*
X31469000Y-40826000D01*
X31471000Y-40833000D01*
X31472000Y-40839000D01*
X31473000Y-40845000D01*
X31474000Y-40852000D01*
X31475000Y-40858000D01*
X31475000Y-40865000D01*
X31475000Y-41305000D01*
X31475000Y-41312000D01*
X31474000Y-41318000D01*
X31473000Y-41325000D01*
X31472000Y-41331000D01*
X31471000Y-41337000D01*
X31469000Y-41344000D01*
X31467000Y-41350000D01*
X31464000Y-41356000D01*
X31461000Y-41362000D01*
X31458000Y-41368000D01*
X31455000Y-41373000D01*
X31451000Y-41378000D01*
X31447000Y-41384000D01*
X31443000Y-41389000D01*
X31438000Y-41393000D01*
X31434000Y-41398000D01*
X31429000Y-41402000D01*
X31423000Y-41406000D01*
X31418000Y-41410000D01*
X31412000Y-41413000D01*
X31407000Y-41416000D01*
X31401000Y-41419000D01*
X31395000Y-41422000D01*
X31389000Y-41424000D01*
X31382000Y-41426000D01*
X31376000Y-41427000D01*
X31370000Y-41428000D01*
X31363000Y-41429000D01*
X31357000Y-41430000D01*
X31350000Y-41430000D01*
X31150000Y-41430000D01*
X31143000Y-41430000D01*
X31137000Y-41429000D01*
X31130000Y-41428000D01*
X31124000Y-41427000D01*
X31118000Y-41426000D01*
X31111000Y-41424000D01*
X31105000Y-41422000D01*
X31099000Y-41419000D01*
X31093000Y-41416000D01*
X31087000Y-41413000D01*
X31082000Y-41410000D01*
X31077000Y-41406000D01*
X31071000Y-41402000D01*
X31066000Y-41398000D01*
X31062000Y-41393000D01*
X31057000Y-41389000D01*
X31053000Y-41384000D01*
X31049000Y-41378000D01*
X31045000Y-41373000D01*
X31042000Y-41368000D01*
X31039000Y-41362000D01*
X31036000Y-41356000D01*
X31033000Y-41350000D01*
X31031000Y-41344000D01*
X31029000Y-41337000D01*
X31028000Y-41331000D01*
X31027000Y-41325000D01*
X31026000Y-41318000D01*
X31025000Y-41312000D01*
X31025000Y-41305000D01*
X31025000Y-40865000D01*
X31025000Y-40858000D01*
X31026000Y-40852000D01*
X31027000Y-40845000D01*
X31028000Y-40839000D01*
X31029000Y-40833000D01*
X31031000Y-40826000D01*
X31033000Y-40820000D01*
X31036000Y-40814000D01*
X31039000Y-40808000D01*
X31042000Y-40802000D01*
X31045000Y-40797000D01*
X31049000Y-40792000D01*
X31053000Y-40786000D01*
X31057000Y-40781000D01*
X31062000Y-40777000D01*
X31066000Y-40772000D01*
X31071000Y-40768000D01*
X31077000Y-40764000D01*
X31082000Y-40760000D01*
X31088000Y-40757000D01*
X31093000Y-40754000D01*
X31099000Y-40751000D01*
X31105000Y-40748000D01*
X31111000Y-40746000D01*
X31118000Y-40744000D01*
X31124000Y-40743000D01*
X31130000Y-40742000D01*
X31137000Y-40741000D01*
X31143000Y-40740000D01*
X31150000Y-40740000D01*
X31350000Y-40740000D01*
X31357000Y-40740000D01*
X31363000Y-40741000D01*
G36*
X31363000Y-40741000D02*
G01*
X31370000Y-40742000D01*
X31376000Y-40743000D01*
X31382000Y-40744000D01*
X31389000Y-40746000D01*
X31395000Y-40748000D01*
X31401000Y-40751000D01*
X31407000Y-40754000D01*
X31412000Y-40757000D01*
X31418000Y-40760000D01*
X31423000Y-40764000D01*
X31429000Y-40768000D01*
X31434000Y-40772000D01*
X31438000Y-40777000D01*
X31443000Y-40781000D01*
X31447000Y-40786000D01*
X31451000Y-40792000D01*
X31455000Y-40797000D01*
X31458000Y-40802000D01*
X31461000Y-40808000D01*
X31464000Y-40814000D01*
X31467000Y-40820000D01*
X31469000Y-40826000D01*
X31471000Y-40833000D01*
X31472000Y-40839000D01*
X31473000Y-40845000D01*
X31474000Y-40852000D01*
X31475000Y-40858000D01*
X31475000Y-40865000D01*
X31475000Y-41305000D01*
X31475000Y-41312000D01*
X31474000Y-41318000D01*
X31473000Y-41325000D01*
X31472000Y-41331000D01*
X31471000Y-41337000D01*
X31469000Y-41344000D01*
X31467000Y-41350000D01*
X31464000Y-41356000D01*
X31461000Y-41362000D01*
X31458000Y-41368000D01*
X31455000Y-41373000D01*
X31451000Y-41378000D01*
X31447000Y-41384000D01*
X31443000Y-41389000D01*
X31438000Y-41393000D01*
X31434000Y-41398000D01*
X31429000Y-41402000D01*
X31423000Y-41406000D01*
X31418000Y-41410000D01*
X31412000Y-41413000D01*
X31407000Y-41416000D01*
X31401000Y-41419000D01*
X31395000Y-41422000D01*
X31389000Y-41424000D01*
X31382000Y-41426000D01*
X31376000Y-41427000D01*
X31370000Y-41428000D01*
X31363000Y-41429000D01*
X31357000Y-41430000D01*
X31350000Y-41430000D01*
X31150000Y-41430000D01*
X31143000Y-41430000D01*
X31137000Y-41429000D01*
X31130000Y-41428000D01*
X31124000Y-41427000D01*
X31118000Y-41426000D01*
X31111000Y-41424000D01*
X31105000Y-41422000D01*
X31099000Y-41419000D01*
X31093000Y-41416000D01*
X31087000Y-41413000D01*
X31082000Y-41410000D01*
X31077000Y-41406000D01*
X31071000Y-41402000D01*
X31066000Y-41398000D01*
X31062000Y-41393000D01*
X31057000Y-41389000D01*
X31053000Y-41384000D01*
X31049000Y-41378000D01*
X31045000Y-41373000D01*
X31042000Y-41368000D01*
X31039000Y-41362000D01*
X31036000Y-41356000D01*
X31033000Y-41350000D01*
X31031000Y-41344000D01*
X31029000Y-41337000D01*
X31028000Y-41331000D01*
X31027000Y-41325000D01*
X31026000Y-41318000D01*
X31025000Y-41312000D01*
X31025000Y-41305000D01*
X31025000Y-40865000D01*
X31025000Y-40858000D01*
X31026000Y-40852000D01*
X31027000Y-40845000D01*
X31028000Y-40839000D01*
X31029000Y-40833000D01*
X31031000Y-40826000D01*
X31033000Y-40820000D01*
X31036000Y-40814000D01*
X31039000Y-40808000D01*
X31042000Y-40802000D01*
X31045000Y-40797000D01*
X31049000Y-40792000D01*
X31053000Y-40786000D01*
X31057000Y-40781000D01*
X31062000Y-40777000D01*
X31066000Y-40772000D01*
X31071000Y-40768000D01*
X31077000Y-40764000D01*
X31082000Y-40760000D01*
X31088000Y-40757000D01*
X31093000Y-40754000D01*
X31099000Y-40751000D01*
X31105000Y-40748000D01*
X31111000Y-40746000D01*
X31118000Y-40744000D01*
X31124000Y-40743000D01*
X31130000Y-40742000D01*
X31137000Y-40741000D01*
X31143000Y-40740000D01*
X31150000Y-40740000D01*
X31350000Y-40740000D01*
X31357000Y-40740000D01*
X31363000Y-40741000D01*
G37*
X31363000Y-42571000D02*
X31370000Y-42572000D01*
X31376000Y-42573000D01*
X31382000Y-42574000D01*
X31389000Y-42576000D01*
X31395000Y-42578000D01*
X31401000Y-42581000D01*
X31407000Y-42584000D01*
X31412000Y-42587000D01*
X31418000Y-42590000D01*
X31423000Y-42594000D01*
X31429000Y-42598000D01*
X31434000Y-42602000D01*
X31438000Y-42607000D01*
X31443000Y-42611000D01*
X31447000Y-42616000D01*
X31451000Y-42622000D01*
X31455000Y-42627000D01*
X31458000Y-42632000D01*
X31461000Y-42638000D01*
X31464000Y-42644000D01*
X31467000Y-42650000D01*
X31469000Y-42656000D01*
X31471000Y-42663000D01*
X31472000Y-42669000D01*
X31473000Y-42675000D01*
X31474000Y-42682000D01*
X31475000Y-42688000D01*
X31475000Y-42695000D01*
X31475000Y-43135000D01*
X31475000Y-43142000D01*
X31474000Y-43148000D01*
X31473000Y-43155000D01*
X31472000Y-43161000D01*
X31471000Y-43167000D01*
X31469000Y-43174000D01*
X31467000Y-43180000D01*
X31464000Y-43186000D01*
X31461000Y-43192000D01*
X31458000Y-43198000D01*
X31455000Y-43203000D01*
X31451000Y-43208000D01*
X31447000Y-43214000D01*
X31443000Y-43219000D01*
X31438000Y-43223000D01*
X31434000Y-43228000D01*
X31429000Y-43232000D01*
X31423000Y-43236000D01*
X31418000Y-43240000D01*
X31412000Y-43243000D01*
X31407000Y-43246000D01*
X31401000Y-43249000D01*
X31395000Y-43252000D01*
X31389000Y-43254000D01*
X31382000Y-43256000D01*
X31376000Y-43257000D01*
X31370000Y-43258000D01*
X31363000Y-43259000D01*
X31357000Y-43260000D01*
X31350000Y-43260000D01*
X31150000Y-43260000D01*
X31143000Y-43260000D01*
X31137000Y-43259000D01*
X31130000Y-43258000D01*
X31124000Y-43257000D01*
X31118000Y-43256000D01*
X31111000Y-43254000D01*
X31105000Y-43252000D01*
X31099000Y-43249000D01*
X31093000Y-43246000D01*
X31087000Y-43243000D01*
X31082000Y-43240000D01*
X31077000Y-43236000D01*
X31071000Y-43232000D01*
X31066000Y-43228000D01*
X31062000Y-43223000D01*
X31057000Y-43219000D01*
X31053000Y-43214000D01*
X31049000Y-43208000D01*
X31045000Y-43203000D01*
X31042000Y-43198000D01*
X31039000Y-43192000D01*
X31036000Y-43186000D01*
X31033000Y-43180000D01*
X31031000Y-43174000D01*
X31029000Y-43167000D01*
X31028000Y-43161000D01*
X31027000Y-43155000D01*
X31026000Y-43148000D01*
X31025000Y-43142000D01*
X31025000Y-43135000D01*
X31025000Y-42695000D01*
X31025000Y-42688000D01*
X31026000Y-42682000D01*
X31027000Y-42675000D01*
X31028000Y-42669000D01*
X31029000Y-42663000D01*
X31031000Y-42656000D01*
X31033000Y-42650000D01*
X31036000Y-42644000D01*
X31039000Y-42638000D01*
X31042000Y-42632000D01*
X31045000Y-42627000D01*
X31049000Y-42622000D01*
X31053000Y-42616000D01*
X31057000Y-42611000D01*
X31062000Y-42607000D01*
X31066000Y-42602000D01*
X31071000Y-42598000D01*
X31077000Y-42594000D01*
X31082000Y-42590000D01*
X31088000Y-42587000D01*
X31093000Y-42584000D01*
X31099000Y-42581000D01*
X31105000Y-42578000D01*
X31111000Y-42576000D01*
X31118000Y-42574000D01*
X31124000Y-42573000D01*
X31130000Y-42572000D01*
X31137000Y-42571000D01*
X31143000Y-42570000D01*
X31150000Y-42570000D01*
X31350000Y-42570000D01*
X31357000Y-42570000D01*
X31363000Y-42571000D01*
G36*
X31363000Y-42571000D02*
G01*
X31370000Y-42572000D01*
X31376000Y-42573000D01*
X31382000Y-42574000D01*
X31389000Y-42576000D01*
X31395000Y-42578000D01*
X31401000Y-42581000D01*
X31407000Y-42584000D01*
X31412000Y-42587000D01*
X31418000Y-42590000D01*
X31423000Y-42594000D01*
X31429000Y-42598000D01*
X31434000Y-42602000D01*
X31438000Y-42607000D01*
X31443000Y-42611000D01*
X31447000Y-42616000D01*
X31451000Y-42622000D01*
X31455000Y-42627000D01*
X31458000Y-42632000D01*
X31461000Y-42638000D01*
X31464000Y-42644000D01*
X31467000Y-42650000D01*
X31469000Y-42656000D01*
X31471000Y-42663000D01*
X31472000Y-42669000D01*
X31473000Y-42675000D01*
X31474000Y-42682000D01*
X31475000Y-42688000D01*
X31475000Y-42695000D01*
X31475000Y-43135000D01*
X31475000Y-43142000D01*
X31474000Y-43148000D01*
X31473000Y-43155000D01*
X31472000Y-43161000D01*
X31471000Y-43167000D01*
X31469000Y-43174000D01*
X31467000Y-43180000D01*
X31464000Y-43186000D01*
X31461000Y-43192000D01*
X31458000Y-43198000D01*
X31455000Y-43203000D01*
X31451000Y-43208000D01*
X31447000Y-43214000D01*
X31443000Y-43219000D01*
X31438000Y-43223000D01*
X31434000Y-43228000D01*
X31429000Y-43232000D01*
X31423000Y-43236000D01*
X31418000Y-43240000D01*
X31412000Y-43243000D01*
X31407000Y-43246000D01*
X31401000Y-43249000D01*
X31395000Y-43252000D01*
X31389000Y-43254000D01*
X31382000Y-43256000D01*
X31376000Y-43257000D01*
X31370000Y-43258000D01*
X31363000Y-43259000D01*
X31357000Y-43260000D01*
X31350000Y-43260000D01*
X31150000Y-43260000D01*
X31143000Y-43260000D01*
X31137000Y-43259000D01*
X31130000Y-43258000D01*
X31124000Y-43257000D01*
X31118000Y-43256000D01*
X31111000Y-43254000D01*
X31105000Y-43252000D01*
X31099000Y-43249000D01*
X31093000Y-43246000D01*
X31087000Y-43243000D01*
X31082000Y-43240000D01*
X31077000Y-43236000D01*
X31071000Y-43232000D01*
X31066000Y-43228000D01*
X31062000Y-43223000D01*
X31057000Y-43219000D01*
X31053000Y-43214000D01*
X31049000Y-43208000D01*
X31045000Y-43203000D01*
X31042000Y-43198000D01*
X31039000Y-43192000D01*
X31036000Y-43186000D01*
X31033000Y-43180000D01*
X31031000Y-43174000D01*
X31029000Y-43167000D01*
X31028000Y-43161000D01*
X31027000Y-43155000D01*
X31026000Y-43148000D01*
X31025000Y-43142000D01*
X31025000Y-43135000D01*
X31025000Y-42695000D01*
X31025000Y-42688000D01*
X31026000Y-42682000D01*
X31027000Y-42675000D01*
X31028000Y-42669000D01*
X31029000Y-42663000D01*
X31031000Y-42656000D01*
X31033000Y-42650000D01*
X31036000Y-42644000D01*
X31039000Y-42638000D01*
X31042000Y-42632000D01*
X31045000Y-42627000D01*
X31049000Y-42622000D01*
X31053000Y-42616000D01*
X31057000Y-42611000D01*
X31062000Y-42607000D01*
X31066000Y-42602000D01*
X31071000Y-42598000D01*
X31077000Y-42594000D01*
X31082000Y-42590000D01*
X31088000Y-42587000D01*
X31093000Y-42584000D01*
X31099000Y-42581000D01*
X31105000Y-42578000D01*
X31111000Y-42576000D01*
X31118000Y-42574000D01*
X31124000Y-42573000D01*
X31130000Y-42572000D01*
X31137000Y-42571000D01*
X31143000Y-42570000D01*
X31150000Y-42570000D01*
X31350000Y-42570000D01*
X31357000Y-42570000D01*
X31363000Y-42571000D01*
G37*
X31863000Y-40741000D02*
X31870000Y-40742000D01*
X31876000Y-40743000D01*
X31882000Y-40744000D01*
X31889000Y-40746000D01*
X31895000Y-40748000D01*
X31901000Y-40751000D01*
X31907000Y-40754000D01*
X31913000Y-40757000D01*
X31918000Y-40760000D01*
X31923000Y-40764000D01*
X31929000Y-40768000D01*
X31934000Y-40772000D01*
X31938000Y-40777000D01*
X31943000Y-40781000D01*
X31947000Y-40786000D01*
X31951000Y-40792000D01*
X31955000Y-40797000D01*
X31958000Y-40802000D01*
X31961000Y-40808000D01*
X31964000Y-40814000D01*
X31967000Y-40820000D01*
X31969000Y-40826000D01*
X31971000Y-40833000D01*
X31972000Y-40839000D01*
X31973000Y-40845000D01*
X31974000Y-40852000D01*
X31975000Y-40858000D01*
X31975000Y-40865000D01*
X31975000Y-41305000D01*
X31975000Y-41312000D01*
X31974000Y-41318000D01*
X31973000Y-41325000D01*
X31972000Y-41331000D01*
X31971000Y-41337000D01*
X31969000Y-41344000D01*
X31967000Y-41350000D01*
X31964000Y-41356000D01*
X31961000Y-41362000D01*
X31958000Y-41368000D01*
X31955000Y-41373000D01*
X31951000Y-41378000D01*
X31947000Y-41384000D01*
X31943000Y-41389000D01*
X31938000Y-41393000D01*
X31934000Y-41398000D01*
X31929000Y-41402000D01*
X31923000Y-41406000D01*
X31918000Y-41410000D01*
X31913000Y-41413000D01*
X31907000Y-41416000D01*
X31901000Y-41419000D01*
X31895000Y-41422000D01*
X31889000Y-41424000D01*
X31882000Y-41426000D01*
X31876000Y-41427000D01*
X31870000Y-41428000D01*
X31863000Y-41429000D01*
X31857000Y-41430000D01*
X31850000Y-41430000D01*
X31650000Y-41430000D01*
X31643000Y-41430000D01*
X31637000Y-41429000D01*
X31630000Y-41428000D01*
X31624000Y-41427000D01*
X31618000Y-41426000D01*
X31611000Y-41424000D01*
X31605000Y-41422000D01*
X31599000Y-41419000D01*
X31593000Y-41416000D01*
X31587000Y-41413000D01*
X31582000Y-41410000D01*
X31577000Y-41406000D01*
X31571000Y-41402000D01*
X31566000Y-41398000D01*
X31562000Y-41393000D01*
X31557000Y-41389000D01*
X31553000Y-41384000D01*
X31549000Y-41378000D01*
X31545000Y-41373000D01*
X31542000Y-41368000D01*
X31539000Y-41362000D01*
X31536000Y-41356000D01*
X31533000Y-41350000D01*
X31531000Y-41344000D01*
X31529000Y-41337000D01*
X31528000Y-41331000D01*
X31527000Y-41325000D01*
X31526000Y-41318000D01*
X31525000Y-41312000D01*
X31525000Y-41305000D01*
X31525000Y-40865000D01*
X31525000Y-40858000D01*
X31526000Y-40852000D01*
X31527000Y-40845000D01*
X31528000Y-40839000D01*
X31529000Y-40833000D01*
X31531000Y-40826000D01*
X31533000Y-40820000D01*
X31536000Y-40814000D01*
X31539000Y-40808000D01*
X31542000Y-40802000D01*
X31545000Y-40797000D01*
X31549000Y-40792000D01*
X31553000Y-40786000D01*
X31557000Y-40781000D01*
X31562000Y-40777000D01*
X31566000Y-40772000D01*
X31571000Y-40768000D01*
X31577000Y-40764000D01*
X31582000Y-40760000D01*
X31588000Y-40757000D01*
X31593000Y-40754000D01*
X31599000Y-40751000D01*
X31605000Y-40748000D01*
X31611000Y-40746000D01*
X31618000Y-40744000D01*
X31624000Y-40743000D01*
X31630000Y-40742000D01*
X31637000Y-40741000D01*
X31643000Y-40740000D01*
X31650000Y-40740000D01*
X31850000Y-40740000D01*
X31857000Y-40740000D01*
X31863000Y-40741000D01*
G36*
X31863000Y-40741000D02*
G01*
X31870000Y-40742000D01*
X31876000Y-40743000D01*
X31882000Y-40744000D01*
X31889000Y-40746000D01*
X31895000Y-40748000D01*
X31901000Y-40751000D01*
X31907000Y-40754000D01*
X31913000Y-40757000D01*
X31918000Y-40760000D01*
X31923000Y-40764000D01*
X31929000Y-40768000D01*
X31934000Y-40772000D01*
X31938000Y-40777000D01*
X31943000Y-40781000D01*
X31947000Y-40786000D01*
X31951000Y-40792000D01*
X31955000Y-40797000D01*
X31958000Y-40802000D01*
X31961000Y-40808000D01*
X31964000Y-40814000D01*
X31967000Y-40820000D01*
X31969000Y-40826000D01*
X31971000Y-40833000D01*
X31972000Y-40839000D01*
X31973000Y-40845000D01*
X31974000Y-40852000D01*
X31975000Y-40858000D01*
X31975000Y-40865000D01*
X31975000Y-41305000D01*
X31975000Y-41312000D01*
X31974000Y-41318000D01*
X31973000Y-41325000D01*
X31972000Y-41331000D01*
X31971000Y-41337000D01*
X31969000Y-41344000D01*
X31967000Y-41350000D01*
X31964000Y-41356000D01*
X31961000Y-41362000D01*
X31958000Y-41368000D01*
X31955000Y-41373000D01*
X31951000Y-41378000D01*
X31947000Y-41384000D01*
X31943000Y-41389000D01*
X31938000Y-41393000D01*
X31934000Y-41398000D01*
X31929000Y-41402000D01*
X31923000Y-41406000D01*
X31918000Y-41410000D01*
X31913000Y-41413000D01*
X31907000Y-41416000D01*
X31901000Y-41419000D01*
X31895000Y-41422000D01*
X31889000Y-41424000D01*
X31882000Y-41426000D01*
X31876000Y-41427000D01*
X31870000Y-41428000D01*
X31863000Y-41429000D01*
X31857000Y-41430000D01*
X31850000Y-41430000D01*
X31650000Y-41430000D01*
X31643000Y-41430000D01*
X31637000Y-41429000D01*
X31630000Y-41428000D01*
X31624000Y-41427000D01*
X31618000Y-41426000D01*
X31611000Y-41424000D01*
X31605000Y-41422000D01*
X31599000Y-41419000D01*
X31593000Y-41416000D01*
X31587000Y-41413000D01*
X31582000Y-41410000D01*
X31577000Y-41406000D01*
X31571000Y-41402000D01*
X31566000Y-41398000D01*
X31562000Y-41393000D01*
X31557000Y-41389000D01*
X31553000Y-41384000D01*
X31549000Y-41378000D01*
X31545000Y-41373000D01*
X31542000Y-41368000D01*
X31539000Y-41362000D01*
X31536000Y-41356000D01*
X31533000Y-41350000D01*
X31531000Y-41344000D01*
X31529000Y-41337000D01*
X31528000Y-41331000D01*
X31527000Y-41325000D01*
X31526000Y-41318000D01*
X31525000Y-41312000D01*
X31525000Y-41305000D01*
X31525000Y-40865000D01*
X31525000Y-40858000D01*
X31526000Y-40852000D01*
X31527000Y-40845000D01*
X31528000Y-40839000D01*
X31529000Y-40833000D01*
X31531000Y-40826000D01*
X31533000Y-40820000D01*
X31536000Y-40814000D01*
X31539000Y-40808000D01*
X31542000Y-40802000D01*
X31545000Y-40797000D01*
X31549000Y-40792000D01*
X31553000Y-40786000D01*
X31557000Y-40781000D01*
X31562000Y-40777000D01*
X31566000Y-40772000D01*
X31571000Y-40768000D01*
X31577000Y-40764000D01*
X31582000Y-40760000D01*
X31588000Y-40757000D01*
X31593000Y-40754000D01*
X31599000Y-40751000D01*
X31605000Y-40748000D01*
X31611000Y-40746000D01*
X31618000Y-40744000D01*
X31624000Y-40743000D01*
X31630000Y-40742000D01*
X31637000Y-40741000D01*
X31643000Y-40740000D01*
X31650000Y-40740000D01*
X31850000Y-40740000D01*
X31857000Y-40740000D01*
X31863000Y-40741000D01*
G37*
X31863000Y-42571000D02*
X31870000Y-42572000D01*
X31876000Y-42573000D01*
X31882000Y-42574000D01*
X31889000Y-42576000D01*
X31895000Y-42578000D01*
X31901000Y-42581000D01*
X31907000Y-42584000D01*
X31913000Y-42587000D01*
X31918000Y-42590000D01*
X31923000Y-42594000D01*
X31929000Y-42598000D01*
X31934000Y-42602000D01*
X31938000Y-42607000D01*
X31943000Y-42611000D01*
X31947000Y-42616000D01*
X31951000Y-42622000D01*
X31955000Y-42627000D01*
X31958000Y-42632000D01*
X31961000Y-42638000D01*
X31964000Y-42644000D01*
X31967000Y-42650000D01*
X31969000Y-42656000D01*
X31971000Y-42663000D01*
X31972000Y-42669000D01*
X31973000Y-42675000D01*
X31974000Y-42682000D01*
X31975000Y-42688000D01*
X31975000Y-42695000D01*
X31975000Y-43135000D01*
X31975000Y-43142000D01*
X31974000Y-43148000D01*
X31973000Y-43155000D01*
X31972000Y-43161000D01*
X31971000Y-43167000D01*
X31969000Y-43174000D01*
X31967000Y-43180000D01*
X31964000Y-43186000D01*
X31961000Y-43192000D01*
X31958000Y-43198000D01*
X31955000Y-43203000D01*
X31951000Y-43208000D01*
X31947000Y-43214000D01*
X31943000Y-43219000D01*
X31938000Y-43223000D01*
X31934000Y-43228000D01*
X31929000Y-43232000D01*
X31923000Y-43236000D01*
X31918000Y-43240000D01*
X31913000Y-43243000D01*
X31907000Y-43246000D01*
X31901000Y-43249000D01*
X31895000Y-43252000D01*
X31889000Y-43254000D01*
X31882000Y-43256000D01*
X31876000Y-43257000D01*
X31870000Y-43258000D01*
X31863000Y-43259000D01*
X31857000Y-43260000D01*
X31850000Y-43260000D01*
X31650000Y-43260000D01*
X31643000Y-43260000D01*
X31637000Y-43259000D01*
X31630000Y-43258000D01*
X31624000Y-43257000D01*
X31618000Y-43256000D01*
X31611000Y-43254000D01*
X31605000Y-43252000D01*
X31599000Y-43249000D01*
X31593000Y-43246000D01*
X31587000Y-43243000D01*
X31582000Y-43240000D01*
X31577000Y-43236000D01*
X31571000Y-43232000D01*
X31566000Y-43228000D01*
X31562000Y-43223000D01*
X31557000Y-43219000D01*
X31553000Y-43214000D01*
X31549000Y-43208000D01*
X31545000Y-43203000D01*
X31542000Y-43198000D01*
X31539000Y-43192000D01*
X31536000Y-43186000D01*
X31533000Y-43180000D01*
X31531000Y-43174000D01*
X31529000Y-43167000D01*
X31528000Y-43161000D01*
X31527000Y-43155000D01*
X31526000Y-43148000D01*
X31525000Y-43142000D01*
X31525000Y-43135000D01*
X31525000Y-42695000D01*
X31525000Y-42688000D01*
X31526000Y-42682000D01*
X31527000Y-42675000D01*
X31528000Y-42669000D01*
X31529000Y-42663000D01*
X31531000Y-42656000D01*
X31533000Y-42650000D01*
X31536000Y-42644000D01*
X31539000Y-42638000D01*
X31542000Y-42632000D01*
X31545000Y-42627000D01*
X31549000Y-42622000D01*
X31553000Y-42616000D01*
X31557000Y-42611000D01*
X31562000Y-42607000D01*
X31566000Y-42602000D01*
X31571000Y-42598000D01*
X31577000Y-42594000D01*
X31582000Y-42590000D01*
X31588000Y-42587000D01*
X31593000Y-42584000D01*
X31599000Y-42581000D01*
X31605000Y-42578000D01*
X31611000Y-42576000D01*
X31618000Y-42574000D01*
X31624000Y-42573000D01*
X31630000Y-42572000D01*
X31637000Y-42571000D01*
X31643000Y-42570000D01*
X31650000Y-42570000D01*
X31850000Y-42570000D01*
X31857000Y-42570000D01*
X31863000Y-42571000D01*
G36*
X31863000Y-42571000D02*
G01*
X31870000Y-42572000D01*
X31876000Y-42573000D01*
X31882000Y-42574000D01*
X31889000Y-42576000D01*
X31895000Y-42578000D01*
X31901000Y-42581000D01*
X31907000Y-42584000D01*
X31913000Y-42587000D01*
X31918000Y-42590000D01*
X31923000Y-42594000D01*
X31929000Y-42598000D01*
X31934000Y-42602000D01*
X31938000Y-42607000D01*
X31943000Y-42611000D01*
X31947000Y-42616000D01*
X31951000Y-42622000D01*
X31955000Y-42627000D01*
X31958000Y-42632000D01*
X31961000Y-42638000D01*
X31964000Y-42644000D01*
X31967000Y-42650000D01*
X31969000Y-42656000D01*
X31971000Y-42663000D01*
X31972000Y-42669000D01*
X31973000Y-42675000D01*
X31974000Y-42682000D01*
X31975000Y-42688000D01*
X31975000Y-42695000D01*
X31975000Y-43135000D01*
X31975000Y-43142000D01*
X31974000Y-43148000D01*
X31973000Y-43155000D01*
X31972000Y-43161000D01*
X31971000Y-43167000D01*
X31969000Y-43174000D01*
X31967000Y-43180000D01*
X31964000Y-43186000D01*
X31961000Y-43192000D01*
X31958000Y-43198000D01*
X31955000Y-43203000D01*
X31951000Y-43208000D01*
X31947000Y-43214000D01*
X31943000Y-43219000D01*
X31938000Y-43223000D01*
X31934000Y-43228000D01*
X31929000Y-43232000D01*
X31923000Y-43236000D01*
X31918000Y-43240000D01*
X31913000Y-43243000D01*
X31907000Y-43246000D01*
X31901000Y-43249000D01*
X31895000Y-43252000D01*
X31889000Y-43254000D01*
X31882000Y-43256000D01*
X31876000Y-43257000D01*
X31870000Y-43258000D01*
X31863000Y-43259000D01*
X31857000Y-43260000D01*
X31850000Y-43260000D01*
X31650000Y-43260000D01*
X31643000Y-43260000D01*
X31637000Y-43259000D01*
X31630000Y-43258000D01*
X31624000Y-43257000D01*
X31618000Y-43256000D01*
X31611000Y-43254000D01*
X31605000Y-43252000D01*
X31599000Y-43249000D01*
X31593000Y-43246000D01*
X31587000Y-43243000D01*
X31582000Y-43240000D01*
X31577000Y-43236000D01*
X31571000Y-43232000D01*
X31566000Y-43228000D01*
X31562000Y-43223000D01*
X31557000Y-43219000D01*
X31553000Y-43214000D01*
X31549000Y-43208000D01*
X31545000Y-43203000D01*
X31542000Y-43198000D01*
X31539000Y-43192000D01*
X31536000Y-43186000D01*
X31533000Y-43180000D01*
X31531000Y-43174000D01*
X31529000Y-43167000D01*
X31528000Y-43161000D01*
X31527000Y-43155000D01*
X31526000Y-43148000D01*
X31525000Y-43142000D01*
X31525000Y-43135000D01*
X31525000Y-42695000D01*
X31525000Y-42688000D01*
X31526000Y-42682000D01*
X31527000Y-42675000D01*
X31528000Y-42669000D01*
X31529000Y-42663000D01*
X31531000Y-42656000D01*
X31533000Y-42650000D01*
X31536000Y-42644000D01*
X31539000Y-42638000D01*
X31542000Y-42632000D01*
X31545000Y-42627000D01*
X31549000Y-42622000D01*
X31553000Y-42616000D01*
X31557000Y-42611000D01*
X31562000Y-42607000D01*
X31566000Y-42602000D01*
X31571000Y-42598000D01*
X31577000Y-42594000D01*
X31582000Y-42590000D01*
X31588000Y-42587000D01*
X31593000Y-42584000D01*
X31599000Y-42581000D01*
X31605000Y-42578000D01*
X31611000Y-42576000D01*
X31618000Y-42574000D01*
X31624000Y-42573000D01*
X31630000Y-42572000D01*
X31637000Y-42571000D01*
X31643000Y-42570000D01*
X31650000Y-42570000D01*
X31850000Y-42570000D01*
X31857000Y-42570000D01*
X31863000Y-42571000D01*
G37*
X32363000Y-40741000D02*
X32370000Y-40742000D01*
X32376000Y-40743000D01*
X32382000Y-40744000D01*
X32389000Y-40746000D01*
X32395000Y-40748000D01*
X32401000Y-40751000D01*
X32407000Y-40754000D01*
X32412000Y-40757000D01*
X32418000Y-40760000D01*
X32423000Y-40764000D01*
X32429000Y-40768000D01*
X32434000Y-40772000D01*
X32438000Y-40777000D01*
X32443000Y-40781000D01*
X32447000Y-40786000D01*
X32451000Y-40792000D01*
X32455000Y-40797000D01*
X32458000Y-40802000D01*
X32461000Y-40808000D01*
X32464000Y-40814000D01*
X32467000Y-40820000D01*
X32469000Y-40826000D01*
X32471000Y-40833000D01*
X32472000Y-40839000D01*
X32473000Y-40845000D01*
X32474000Y-40852000D01*
X32475000Y-40858000D01*
X32475000Y-40865000D01*
X32475000Y-41305000D01*
X32475000Y-41312000D01*
X32474000Y-41318000D01*
X32473000Y-41325000D01*
X32472000Y-41331000D01*
X32471000Y-41337000D01*
X32469000Y-41344000D01*
X32467000Y-41350000D01*
X32464000Y-41356000D01*
X32461000Y-41362000D01*
X32458000Y-41368000D01*
X32455000Y-41373000D01*
X32451000Y-41378000D01*
X32447000Y-41384000D01*
X32443000Y-41389000D01*
X32438000Y-41393000D01*
X32434000Y-41398000D01*
X32429000Y-41402000D01*
X32423000Y-41406000D01*
X32418000Y-41410000D01*
X32412000Y-41413000D01*
X32407000Y-41416000D01*
X32401000Y-41419000D01*
X32395000Y-41422000D01*
X32389000Y-41424000D01*
X32382000Y-41426000D01*
X32376000Y-41427000D01*
X32370000Y-41428000D01*
X32363000Y-41429000D01*
X32357000Y-41430000D01*
X32350000Y-41430000D01*
X32150000Y-41430000D01*
X32143000Y-41430000D01*
X32137000Y-41429000D01*
X32130000Y-41428000D01*
X32124000Y-41427000D01*
X32118000Y-41426000D01*
X32111000Y-41424000D01*
X32105000Y-41422000D01*
X32099000Y-41419000D01*
X32093000Y-41416000D01*
X32087000Y-41413000D01*
X32082000Y-41410000D01*
X32077000Y-41406000D01*
X32071000Y-41402000D01*
X32066000Y-41398000D01*
X32062000Y-41393000D01*
X32057000Y-41389000D01*
X32053000Y-41384000D01*
X32049000Y-41378000D01*
X32045000Y-41373000D01*
X32042000Y-41368000D01*
X32039000Y-41362000D01*
X32036000Y-41356000D01*
X32033000Y-41350000D01*
X32031000Y-41344000D01*
X32029000Y-41337000D01*
X32028000Y-41331000D01*
X32027000Y-41325000D01*
X32026000Y-41318000D01*
X32025000Y-41312000D01*
X32025000Y-41305000D01*
X32025000Y-40865000D01*
X32025000Y-40858000D01*
X32026000Y-40852000D01*
X32027000Y-40845000D01*
X32028000Y-40839000D01*
X32029000Y-40833000D01*
X32031000Y-40826000D01*
X32033000Y-40820000D01*
X32036000Y-40814000D01*
X32039000Y-40808000D01*
X32042000Y-40802000D01*
X32045000Y-40797000D01*
X32049000Y-40792000D01*
X32053000Y-40786000D01*
X32057000Y-40781000D01*
X32062000Y-40777000D01*
X32066000Y-40772000D01*
X32071000Y-40768000D01*
X32077000Y-40764000D01*
X32082000Y-40760000D01*
X32088000Y-40757000D01*
X32093000Y-40754000D01*
X32099000Y-40751000D01*
X32105000Y-40748000D01*
X32111000Y-40746000D01*
X32118000Y-40744000D01*
X32124000Y-40743000D01*
X32130000Y-40742000D01*
X32137000Y-40741000D01*
X32143000Y-40740000D01*
X32150000Y-40740000D01*
X32350000Y-40740000D01*
X32357000Y-40740000D01*
X32363000Y-40741000D01*
G36*
X32363000Y-40741000D02*
G01*
X32370000Y-40742000D01*
X32376000Y-40743000D01*
X32382000Y-40744000D01*
X32389000Y-40746000D01*
X32395000Y-40748000D01*
X32401000Y-40751000D01*
X32407000Y-40754000D01*
X32412000Y-40757000D01*
X32418000Y-40760000D01*
X32423000Y-40764000D01*
X32429000Y-40768000D01*
X32434000Y-40772000D01*
X32438000Y-40777000D01*
X32443000Y-40781000D01*
X32447000Y-40786000D01*
X32451000Y-40792000D01*
X32455000Y-40797000D01*
X32458000Y-40802000D01*
X32461000Y-40808000D01*
X32464000Y-40814000D01*
X32467000Y-40820000D01*
X32469000Y-40826000D01*
X32471000Y-40833000D01*
X32472000Y-40839000D01*
X32473000Y-40845000D01*
X32474000Y-40852000D01*
X32475000Y-40858000D01*
X32475000Y-40865000D01*
X32475000Y-41305000D01*
X32475000Y-41312000D01*
X32474000Y-41318000D01*
X32473000Y-41325000D01*
X32472000Y-41331000D01*
X32471000Y-41337000D01*
X32469000Y-41344000D01*
X32467000Y-41350000D01*
X32464000Y-41356000D01*
X32461000Y-41362000D01*
X32458000Y-41368000D01*
X32455000Y-41373000D01*
X32451000Y-41378000D01*
X32447000Y-41384000D01*
X32443000Y-41389000D01*
X32438000Y-41393000D01*
X32434000Y-41398000D01*
X32429000Y-41402000D01*
X32423000Y-41406000D01*
X32418000Y-41410000D01*
X32412000Y-41413000D01*
X32407000Y-41416000D01*
X32401000Y-41419000D01*
X32395000Y-41422000D01*
X32389000Y-41424000D01*
X32382000Y-41426000D01*
X32376000Y-41427000D01*
X32370000Y-41428000D01*
X32363000Y-41429000D01*
X32357000Y-41430000D01*
X32350000Y-41430000D01*
X32150000Y-41430000D01*
X32143000Y-41430000D01*
X32137000Y-41429000D01*
X32130000Y-41428000D01*
X32124000Y-41427000D01*
X32118000Y-41426000D01*
X32111000Y-41424000D01*
X32105000Y-41422000D01*
X32099000Y-41419000D01*
X32093000Y-41416000D01*
X32087000Y-41413000D01*
X32082000Y-41410000D01*
X32077000Y-41406000D01*
X32071000Y-41402000D01*
X32066000Y-41398000D01*
X32062000Y-41393000D01*
X32057000Y-41389000D01*
X32053000Y-41384000D01*
X32049000Y-41378000D01*
X32045000Y-41373000D01*
X32042000Y-41368000D01*
X32039000Y-41362000D01*
X32036000Y-41356000D01*
X32033000Y-41350000D01*
X32031000Y-41344000D01*
X32029000Y-41337000D01*
X32028000Y-41331000D01*
X32027000Y-41325000D01*
X32026000Y-41318000D01*
X32025000Y-41312000D01*
X32025000Y-41305000D01*
X32025000Y-40865000D01*
X32025000Y-40858000D01*
X32026000Y-40852000D01*
X32027000Y-40845000D01*
X32028000Y-40839000D01*
X32029000Y-40833000D01*
X32031000Y-40826000D01*
X32033000Y-40820000D01*
X32036000Y-40814000D01*
X32039000Y-40808000D01*
X32042000Y-40802000D01*
X32045000Y-40797000D01*
X32049000Y-40792000D01*
X32053000Y-40786000D01*
X32057000Y-40781000D01*
X32062000Y-40777000D01*
X32066000Y-40772000D01*
X32071000Y-40768000D01*
X32077000Y-40764000D01*
X32082000Y-40760000D01*
X32088000Y-40757000D01*
X32093000Y-40754000D01*
X32099000Y-40751000D01*
X32105000Y-40748000D01*
X32111000Y-40746000D01*
X32118000Y-40744000D01*
X32124000Y-40743000D01*
X32130000Y-40742000D01*
X32137000Y-40741000D01*
X32143000Y-40740000D01*
X32150000Y-40740000D01*
X32350000Y-40740000D01*
X32357000Y-40740000D01*
X32363000Y-40741000D01*
G37*
X32363000Y-42571000D02*
X32370000Y-42572000D01*
X32376000Y-42573000D01*
X32382000Y-42574000D01*
X32389000Y-42576000D01*
X32395000Y-42578000D01*
X32401000Y-42581000D01*
X32407000Y-42584000D01*
X32412000Y-42587000D01*
X32418000Y-42590000D01*
X32423000Y-42594000D01*
X32429000Y-42598000D01*
X32434000Y-42602000D01*
X32438000Y-42607000D01*
X32443000Y-42611000D01*
X32447000Y-42616000D01*
X32451000Y-42622000D01*
X32455000Y-42627000D01*
X32458000Y-42632000D01*
X32461000Y-42638000D01*
X32464000Y-42644000D01*
X32467000Y-42650000D01*
X32469000Y-42656000D01*
X32471000Y-42663000D01*
X32472000Y-42669000D01*
X32473000Y-42675000D01*
X32474000Y-42682000D01*
X32475000Y-42688000D01*
X32475000Y-42695000D01*
X32475000Y-43135000D01*
X32475000Y-43142000D01*
X32474000Y-43148000D01*
X32473000Y-43155000D01*
X32472000Y-43161000D01*
X32471000Y-43167000D01*
X32469000Y-43174000D01*
X32467000Y-43180000D01*
X32464000Y-43186000D01*
X32461000Y-43192000D01*
X32458000Y-43198000D01*
X32455000Y-43203000D01*
X32451000Y-43208000D01*
X32447000Y-43214000D01*
X32443000Y-43219000D01*
X32438000Y-43223000D01*
X32434000Y-43228000D01*
X32429000Y-43232000D01*
X32423000Y-43236000D01*
X32418000Y-43240000D01*
X32412000Y-43243000D01*
X32407000Y-43246000D01*
X32401000Y-43249000D01*
X32395000Y-43252000D01*
X32389000Y-43254000D01*
X32382000Y-43256000D01*
X32376000Y-43257000D01*
X32370000Y-43258000D01*
X32363000Y-43259000D01*
X32357000Y-43260000D01*
X32350000Y-43260000D01*
X32150000Y-43260000D01*
X32143000Y-43260000D01*
X32137000Y-43259000D01*
X32130000Y-43258000D01*
X32124000Y-43257000D01*
X32118000Y-43256000D01*
X32111000Y-43254000D01*
X32105000Y-43252000D01*
X32099000Y-43249000D01*
X32093000Y-43246000D01*
X32087000Y-43243000D01*
X32082000Y-43240000D01*
X32077000Y-43236000D01*
X32071000Y-43232000D01*
X32066000Y-43228000D01*
X32062000Y-43223000D01*
X32057000Y-43219000D01*
X32053000Y-43214000D01*
X32049000Y-43208000D01*
X32045000Y-43203000D01*
X32042000Y-43198000D01*
X32039000Y-43192000D01*
X32036000Y-43186000D01*
X32033000Y-43180000D01*
X32031000Y-43174000D01*
X32029000Y-43167000D01*
X32028000Y-43161000D01*
X32027000Y-43155000D01*
X32026000Y-43148000D01*
X32025000Y-43142000D01*
X32025000Y-43135000D01*
X32025000Y-42695000D01*
X32025000Y-42688000D01*
X32026000Y-42682000D01*
X32027000Y-42675000D01*
X32028000Y-42669000D01*
X32029000Y-42663000D01*
X32031000Y-42656000D01*
X32033000Y-42650000D01*
X32036000Y-42644000D01*
X32039000Y-42638000D01*
X32042000Y-42632000D01*
X32045000Y-42627000D01*
X32049000Y-42622000D01*
X32053000Y-42616000D01*
X32057000Y-42611000D01*
X32062000Y-42607000D01*
X32066000Y-42602000D01*
X32071000Y-42598000D01*
X32077000Y-42594000D01*
X32082000Y-42590000D01*
X32088000Y-42587000D01*
X32093000Y-42584000D01*
X32099000Y-42581000D01*
X32105000Y-42578000D01*
X32111000Y-42576000D01*
X32118000Y-42574000D01*
X32124000Y-42573000D01*
X32130000Y-42572000D01*
X32137000Y-42571000D01*
X32143000Y-42570000D01*
X32150000Y-42570000D01*
X32350000Y-42570000D01*
X32357000Y-42570000D01*
X32363000Y-42571000D01*
G36*
X32363000Y-42571000D02*
G01*
X32370000Y-42572000D01*
X32376000Y-42573000D01*
X32382000Y-42574000D01*
X32389000Y-42576000D01*
X32395000Y-42578000D01*
X32401000Y-42581000D01*
X32407000Y-42584000D01*
X32412000Y-42587000D01*
X32418000Y-42590000D01*
X32423000Y-42594000D01*
X32429000Y-42598000D01*
X32434000Y-42602000D01*
X32438000Y-42607000D01*
X32443000Y-42611000D01*
X32447000Y-42616000D01*
X32451000Y-42622000D01*
X32455000Y-42627000D01*
X32458000Y-42632000D01*
X32461000Y-42638000D01*
X32464000Y-42644000D01*
X32467000Y-42650000D01*
X32469000Y-42656000D01*
X32471000Y-42663000D01*
X32472000Y-42669000D01*
X32473000Y-42675000D01*
X32474000Y-42682000D01*
X32475000Y-42688000D01*
X32475000Y-42695000D01*
X32475000Y-43135000D01*
X32475000Y-43142000D01*
X32474000Y-43148000D01*
X32473000Y-43155000D01*
X32472000Y-43161000D01*
X32471000Y-43167000D01*
X32469000Y-43174000D01*
X32467000Y-43180000D01*
X32464000Y-43186000D01*
X32461000Y-43192000D01*
X32458000Y-43198000D01*
X32455000Y-43203000D01*
X32451000Y-43208000D01*
X32447000Y-43214000D01*
X32443000Y-43219000D01*
X32438000Y-43223000D01*
X32434000Y-43228000D01*
X32429000Y-43232000D01*
X32423000Y-43236000D01*
X32418000Y-43240000D01*
X32412000Y-43243000D01*
X32407000Y-43246000D01*
X32401000Y-43249000D01*
X32395000Y-43252000D01*
X32389000Y-43254000D01*
X32382000Y-43256000D01*
X32376000Y-43257000D01*
X32370000Y-43258000D01*
X32363000Y-43259000D01*
X32357000Y-43260000D01*
X32350000Y-43260000D01*
X32150000Y-43260000D01*
X32143000Y-43260000D01*
X32137000Y-43259000D01*
X32130000Y-43258000D01*
X32124000Y-43257000D01*
X32118000Y-43256000D01*
X32111000Y-43254000D01*
X32105000Y-43252000D01*
X32099000Y-43249000D01*
X32093000Y-43246000D01*
X32087000Y-43243000D01*
X32082000Y-43240000D01*
X32077000Y-43236000D01*
X32071000Y-43232000D01*
X32066000Y-43228000D01*
X32062000Y-43223000D01*
X32057000Y-43219000D01*
X32053000Y-43214000D01*
X32049000Y-43208000D01*
X32045000Y-43203000D01*
X32042000Y-43198000D01*
X32039000Y-43192000D01*
X32036000Y-43186000D01*
X32033000Y-43180000D01*
X32031000Y-43174000D01*
X32029000Y-43167000D01*
X32028000Y-43161000D01*
X32027000Y-43155000D01*
X32026000Y-43148000D01*
X32025000Y-43142000D01*
X32025000Y-43135000D01*
X32025000Y-42695000D01*
X32025000Y-42688000D01*
X32026000Y-42682000D01*
X32027000Y-42675000D01*
X32028000Y-42669000D01*
X32029000Y-42663000D01*
X32031000Y-42656000D01*
X32033000Y-42650000D01*
X32036000Y-42644000D01*
X32039000Y-42638000D01*
X32042000Y-42632000D01*
X32045000Y-42627000D01*
X32049000Y-42622000D01*
X32053000Y-42616000D01*
X32057000Y-42611000D01*
X32062000Y-42607000D01*
X32066000Y-42602000D01*
X32071000Y-42598000D01*
X32077000Y-42594000D01*
X32082000Y-42590000D01*
X32088000Y-42587000D01*
X32093000Y-42584000D01*
X32099000Y-42581000D01*
X32105000Y-42578000D01*
X32111000Y-42576000D01*
X32118000Y-42574000D01*
X32124000Y-42573000D01*
X32130000Y-42572000D01*
X32137000Y-42571000D01*
X32143000Y-42570000D01*
X32150000Y-42570000D01*
X32350000Y-42570000D01*
X32357000Y-42570000D01*
X32363000Y-42571000D01*
G37*
X33148000Y-41026000D02*
X33155000Y-41027000D01*
X33161000Y-41028000D01*
X33167000Y-41029000D01*
X33174000Y-41031000D01*
X33180000Y-41033000D01*
X33186000Y-41036000D01*
X33192000Y-41039000D01*
X33198000Y-41042000D01*
X33203000Y-41045000D01*
X33208000Y-41049000D01*
X33214000Y-41053000D01*
X33219000Y-41057000D01*
X33223000Y-41062000D01*
X33228000Y-41066000D01*
X33232000Y-41071000D01*
X33236000Y-41077000D01*
X33240000Y-41082000D01*
X33243000Y-41088000D01*
X33246000Y-41093000D01*
X33249000Y-41099000D01*
X33252000Y-41105000D01*
X33254000Y-41111000D01*
X33256000Y-41118000D01*
X33257000Y-41124000D01*
X33258000Y-41130000D01*
X33259000Y-41137000D01*
X33260000Y-41143000D01*
X33260000Y-41150000D01*
X33260000Y-41350000D01*
X33260000Y-41357000D01*
X33259000Y-41363000D01*
X33258000Y-41370000D01*
X33257000Y-41376000D01*
X33256000Y-41382000D01*
X33254000Y-41389000D01*
X33252000Y-41395000D01*
X33249000Y-41401000D01*
X33246000Y-41407000D01*
X33243000Y-41412000D01*
X33240000Y-41418000D01*
X33236000Y-41423000D01*
X33232000Y-41429000D01*
X33228000Y-41434000D01*
X33223000Y-41438000D01*
X33219000Y-41443000D01*
X33214000Y-41447000D01*
X33208000Y-41451000D01*
X33203000Y-41455000D01*
X33198000Y-41458000D01*
X33192000Y-41461000D01*
X33186000Y-41464000D01*
X33180000Y-41467000D01*
X33174000Y-41469000D01*
X33167000Y-41471000D01*
X33161000Y-41472000D01*
X33155000Y-41473000D01*
X33148000Y-41474000D01*
X33142000Y-41475000D01*
X33135000Y-41475000D01*
X32695000Y-41475000D01*
X32688000Y-41475000D01*
X32682000Y-41474000D01*
X32675000Y-41473000D01*
X32669000Y-41472000D01*
X32663000Y-41471000D01*
X32656000Y-41469000D01*
X32650000Y-41467000D01*
X32644000Y-41464000D01*
X32638000Y-41461000D01*
X32632000Y-41458000D01*
X32627000Y-41455000D01*
X32622000Y-41451000D01*
X32616000Y-41447000D01*
X32611000Y-41443000D01*
X32607000Y-41438000D01*
X32602000Y-41434000D01*
X32598000Y-41429000D01*
X32594000Y-41423000D01*
X32590000Y-41418000D01*
X32587000Y-41412000D01*
X32584000Y-41407000D01*
X32581000Y-41401000D01*
X32578000Y-41395000D01*
X32576000Y-41389000D01*
X32574000Y-41382000D01*
X32573000Y-41376000D01*
X32572000Y-41370000D01*
X32571000Y-41363000D01*
X32570000Y-41357000D01*
X32570000Y-41350000D01*
X32570000Y-41150000D01*
X32570000Y-41143000D01*
X32571000Y-41137000D01*
X32572000Y-41130000D01*
X32573000Y-41124000D01*
X32574000Y-41118000D01*
X32576000Y-41111000D01*
X32578000Y-41105000D01*
X32581000Y-41099000D01*
X32584000Y-41093000D01*
X32587000Y-41088000D01*
X32590000Y-41082000D01*
X32594000Y-41077000D01*
X32598000Y-41071000D01*
X32602000Y-41066000D01*
X32607000Y-41062000D01*
X32611000Y-41057000D01*
X32616000Y-41053000D01*
X32622000Y-41049000D01*
X32627000Y-41045000D01*
X32632000Y-41042000D01*
X32638000Y-41039000D01*
X32644000Y-41036000D01*
X32650000Y-41033000D01*
X32656000Y-41031000D01*
X32663000Y-41029000D01*
X32669000Y-41028000D01*
X32675000Y-41027000D01*
X32682000Y-41026000D01*
X32688000Y-41025000D01*
X32695000Y-41025000D01*
X33135000Y-41025000D01*
X33142000Y-41025000D01*
X33148000Y-41026000D01*
G36*
X33148000Y-41026000D02*
G01*
X33155000Y-41027000D01*
X33161000Y-41028000D01*
X33167000Y-41029000D01*
X33174000Y-41031000D01*
X33180000Y-41033000D01*
X33186000Y-41036000D01*
X33192000Y-41039000D01*
X33198000Y-41042000D01*
X33203000Y-41045000D01*
X33208000Y-41049000D01*
X33214000Y-41053000D01*
X33219000Y-41057000D01*
X33223000Y-41062000D01*
X33228000Y-41066000D01*
X33232000Y-41071000D01*
X33236000Y-41077000D01*
X33240000Y-41082000D01*
X33243000Y-41088000D01*
X33246000Y-41093000D01*
X33249000Y-41099000D01*
X33252000Y-41105000D01*
X33254000Y-41111000D01*
X33256000Y-41118000D01*
X33257000Y-41124000D01*
X33258000Y-41130000D01*
X33259000Y-41137000D01*
X33260000Y-41143000D01*
X33260000Y-41150000D01*
X33260000Y-41350000D01*
X33260000Y-41357000D01*
X33259000Y-41363000D01*
X33258000Y-41370000D01*
X33257000Y-41376000D01*
X33256000Y-41382000D01*
X33254000Y-41389000D01*
X33252000Y-41395000D01*
X33249000Y-41401000D01*
X33246000Y-41407000D01*
X33243000Y-41412000D01*
X33240000Y-41418000D01*
X33236000Y-41423000D01*
X33232000Y-41429000D01*
X33228000Y-41434000D01*
X33223000Y-41438000D01*
X33219000Y-41443000D01*
X33214000Y-41447000D01*
X33208000Y-41451000D01*
X33203000Y-41455000D01*
X33198000Y-41458000D01*
X33192000Y-41461000D01*
X33186000Y-41464000D01*
X33180000Y-41467000D01*
X33174000Y-41469000D01*
X33167000Y-41471000D01*
X33161000Y-41472000D01*
X33155000Y-41473000D01*
X33148000Y-41474000D01*
X33142000Y-41475000D01*
X33135000Y-41475000D01*
X32695000Y-41475000D01*
X32688000Y-41475000D01*
X32682000Y-41474000D01*
X32675000Y-41473000D01*
X32669000Y-41472000D01*
X32663000Y-41471000D01*
X32656000Y-41469000D01*
X32650000Y-41467000D01*
X32644000Y-41464000D01*
X32638000Y-41461000D01*
X32632000Y-41458000D01*
X32627000Y-41455000D01*
X32622000Y-41451000D01*
X32616000Y-41447000D01*
X32611000Y-41443000D01*
X32607000Y-41438000D01*
X32602000Y-41434000D01*
X32598000Y-41429000D01*
X32594000Y-41423000D01*
X32590000Y-41418000D01*
X32587000Y-41412000D01*
X32584000Y-41407000D01*
X32581000Y-41401000D01*
X32578000Y-41395000D01*
X32576000Y-41389000D01*
X32574000Y-41382000D01*
X32573000Y-41376000D01*
X32572000Y-41370000D01*
X32571000Y-41363000D01*
X32570000Y-41357000D01*
X32570000Y-41350000D01*
X32570000Y-41150000D01*
X32570000Y-41143000D01*
X32571000Y-41137000D01*
X32572000Y-41130000D01*
X32573000Y-41124000D01*
X32574000Y-41118000D01*
X32576000Y-41111000D01*
X32578000Y-41105000D01*
X32581000Y-41099000D01*
X32584000Y-41093000D01*
X32587000Y-41088000D01*
X32590000Y-41082000D01*
X32594000Y-41077000D01*
X32598000Y-41071000D01*
X32602000Y-41066000D01*
X32607000Y-41062000D01*
X32611000Y-41057000D01*
X32616000Y-41053000D01*
X32622000Y-41049000D01*
X32627000Y-41045000D01*
X32632000Y-41042000D01*
X32638000Y-41039000D01*
X32644000Y-41036000D01*
X32650000Y-41033000D01*
X32656000Y-41031000D01*
X32663000Y-41029000D01*
X32669000Y-41028000D01*
X32675000Y-41027000D01*
X32682000Y-41026000D01*
X32688000Y-41025000D01*
X32695000Y-41025000D01*
X33135000Y-41025000D01*
X33142000Y-41025000D01*
X33148000Y-41026000D01*
G37*
X33148000Y-41526000D02*
X33155000Y-41527000D01*
X33161000Y-41528000D01*
X33167000Y-41529000D01*
X33174000Y-41531000D01*
X33180000Y-41533000D01*
X33186000Y-41536000D01*
X33192000Y-41539000D01*
X33198000Y-41542000D01*
X33203000Y-41545000D01*
X33208000Y-41549000D01*
X33214000Y-41553000D01*
X33219000Y-41557000D01*
X33223000Y-41562000D01*
X33228000Y-41566000D01*
X33232000Y-41571000D01*
X33236000Y-41577000D01*
X33240000Y-41582000D01*
X33243000Y-41588000D01*
X33246000Y-41593000D01*
X33249000Y-41599000D01*
X33252000Y-41605000D01*
X33254000Y-41611000D01*
X33256000Y-41618000D01*
X33257000Y-41624000D01*
X33258000Y-41630000D01*
X33259000Y-41637000D01*
X33260000Y-41643000D01*
X33260000Y-41650000D01*
X33260000Y-41850000D01*
X33260000Y-41857000D01*
X33259000Y-41863000D01*
X33258000Y-41870000D01*
X33257000Y-41876000D01*
X33256000Y-41882000D01*
X33254000Y-41889000D01*
X33252000Y-41895000D01*
X33249000Y-41901000D01*
X33246000Y-41907000D01*
X33243000Y-41912000D01*
X33240000Y-41918000D01*
X33236000Y-41923000D01*
X33232000Y-41929000D01*
X33228000Y-41934000D01*
X33223000Y-41938000D01*
X33219000Y-41943000D01*
X33214000Y-41947000D01*
X33208000Y-41951000D01*
X33203000Y-41955000D01*
X33198000Y-41958000D01*
X33192000Y-41961000D01*
X33186000Y-41964000D01*
X33180000Y-41967000D01*
X33174000Y-41969000D01*
X33167000Y-41971000D01*
X33161000Y-41972000D01*
X33155000Y-41973000D01*
X33148000Y-41974000D01*
X33142000Y-41975000D01*
X33135000Y-41975000D01*
X32695000Y-41975000D01*
X32688000Y-41975000D01*
X32682000Y-41974000D01*
X32675000Y-41973000D01*
X32669000Y-41972000D01*
X32663000Y-41971000D01*
X32656000Y-41969000D01*
X32650000Y-41967000D01*
X32644000Y-41964000D01*
X32638000Y-41961000D01*
X32632000Y-41958000D01*
X32627000Y-41955000D01*
X32622000Y-41951000D01*
X32616000Y-41947000D01*
X32611000Y-41943000D01*
X32607000Y-41938000D01*
X32602000Y-41934000D01*
X32598000Y-41929000D01*
X32594000Y-41923000D01*
X32590000Y-41918000D01*
X32587000Y-41912000D01*
X32584000Y-41907000D01*
X32581000Y-41901000D01*
X32578000Y-41895000D01*
X32576000Y-41889000D01*
X32574000Y-41882000D01*
X32573000Y-41876000D01*
X32572000Y-41870000D01*
X32571000Y-41863000D01*
X32570000Y-41857000D01*
X32570000Y-41850000D01*
X32570000Y-41650000D01*
X32570000Y-41643000D01*
X32571000Y-41637000D01*
X32572000Y-41630000D01*
X32573000Y-41624000D01*
X32574000Y-41618000D01*
X32576000Y-41611000D01*
X32578000Y-41605000D01*
X32581000Y-41599000D01*
X32584000Y-41593000D01*
X32587000Y-41588000D01*
X32590000Y-41582000D01*
X32594000Y-41577000D01*
X32598000Y-41571000D01*
X32602000Y-41566000D01*
X32607000Y-41562000D01*
X32611000Y-41557000D01*
X32616000Y-41553000D01*
X32622000Y-41549000D01*
X32627000Y-41545000D01*
X32632000Y-41542000D01*
X32638000Y-41539000D01*
X32644000Y-41536000D01*
X32650000Y-41533000D01*
X32656000Y-41531000D01*
X32663000Y-41529000D01*
X32669000Y-41528000D01*
X32675000Y-41527000D01*
X32682000Y-41526000D01*
X32688000Y-41525000D01*
X32695000Y-41525000D01*
X33135000Y-41525000D01*
X33142000Y-41525000D01*
X33148000Y-41526000D01*
G36*
X33148000Y-41526000D02*
G01*
X33155000Y-41527000D01*
X33161000Y-41528000D01*
X33167000Y-41529000D01*
X33174000Y-41531000D01*
X33180000Y-41533000D01*
X33186000Y-41536000D01*
X33192000Y-41539000D01*
X33198000Y-41542000D01*
X33203000Y-41545000D01*
X33208000Y-41549000D01*
X33214000Y-41553000D01*
X33219000Y-41557000D01*
X33223000Y-41562000D01*
X33228000Y-41566000D01*
X33232000Y-41571000D01*
X33236000Y-41577000D01*
X33240000Y-41582000D01*
X33243000Y-41588000D01*
X33246000Y-41593000D01*
X33249000Y-41599000D01*
X33252000Y-41605000D01*
X33254000Y-41611000D01*
X33256000Y-41618000D01*
X33257000Y-41624000D01*
X33258000Y-41630000D01*
X33259000Y-41637000D01*
X33260000Y-41643000D01*
X33260000Y-41650000D01*
X33260000Y-41850000D01*
X33260000Y-41857000D01*
X33259000Y-41863000D01*
X33258000Y-41870000D01*
X33257000Y-41876000D01*
X33256000Y-41882000D01*
X33254000Y-41889000D01*
X33252000Y-41895000D01*
X33249000Y-41901000D01*
X33246000Y-41907000D01*
X33243000Y-41912000D01*
X33240000Y-41918000D01*
X33236000Y-41923000D01*
X33232000Y-41929000D01*
X33228000Y-41934000D01*
X33223000Y-41938000D01*
X33219000Y-41943000D01*
X33214000Y-41947000D01*
X33208000Y-41951000D01*
X33203000Y-41955000D01*
X33198000Y-41958000D01*
X33192000Y-41961000D01*
X33186000Y-41964000D01*
X33180000Y-41967000D01*
X33174000Y-41969000D01*
X33167000Y-41971000D01*
X33161000Y-41972000D01*
X33155000Y-41973000D01*
X33148000Y-41974000D01*
X33142000Y-41975000D01*
X33135000Y-41975000D01*
X32695000Y-41975000D01*
X32688000Y-41975000D01*
X32682000Y-41974000D01*
X32675000Y-41973000D01*
X32669000Y-41972000D01*
X32663000Y-41971000D01*
X32656000Y-41969000D01*
X32650000Y-41967000D01*
X32644000Y-41964000D01*
X32638000Y-41961000D01*
X32632000Y-41958000D01*
X32627000Y-41955000D01*
X32622000Y-41951000D01*
X32616000Y-41947000D01*
X32611000Y-41943000D01*
X32607000Y-41938000D01*
X32602000Y-41934000D01*
X32598000Y-41929000D01*
X32594000Y-41923000D01*
X32590000Y-41918000D01*
X32587000Y-41912000D01*
X32584000Y-41907000D01*
X32581000Y-41901000D01*
X32578000Y-41895000D01*
X32576000Y-41889000D01*
X32574000Y-41882000D01*
X32573000Y-41876000D01*
X32572000Y-41870000D01*
X32571000Y-41863000D01*
X32570000Y-41857000D01*
X32570000Y-41850000D01*
X32570000Y-41650000D01*
X32570000Y-41643000D01*
X32571000Y-41637000D01*
X32572000Y-41630000D01*
X32573000Y-41624000D01*
X32574000Y-41618000D01*
X32576000Y-41611000D01*
X32578000Y-41605000D01*
X32581000Y-41599000D01*
X32584000Y-41593000D01*
X32587000Y-41588000D01*
X32590000Y-41582000D01*
X32594000Y-41577000D01*
X32598000Y-41571000D01*
X32602000Y-41566000D01*
X32607000Y-41562000D01*
X32611000Y-41557000D01*
X32616000Y-41553000D01*
X32622000Y-41549000D01*
X32627000Y-41545000D01*
X32632000Y-41542000D01*
X32638000Y-41539000D01*
X32644000Y-41536000D01*
X32650000Y-41533000D01*
X32656000Y-41531000D01*
X32663000Y-41529000D01*
X32669000Y-41528000D01*
X32675000Y-41527000D01*
X32682000Y-41526000D01*
X32688000Y-41525000D01*
X32695000Y-41525000D01*
X33135000Y-41525000D01*
X33142000Y-41525000D01*
X33148000Y-41526000D01*
G37*
X33148000Y-42026000D02*
X33155000Y-42027000D01*
X33161000Y-42028000D01*
X33167000Y-42029000D01*
X33174000Y-42031000D01*
X33180000Y-42033000D01*
X33186000Y-42036000D01*
X33192000Y-42039000D01*
X33198000Y-42042000D01*
X33203000Y-42045000D01*
X33208000Y-42049000D01*
X33214000Y-42053000D01*
X33219000Y-42057000D01*
X33223000Y-42062000D01*
X33228000Y-42066000D01*
X33232000Y-42071000D01*
X33236000Y-42077000D01*
X33240000Y-42082000D01*
X33243000Y-42088000D01*
X33246000Y-42093000D01*
X33249000Y-42099000D01*
X33252000Y-42105000D01*
X33254000Y-42111000D01*
X33256000Y-42118000D01*
X33257000Y-42124000D01*
X33258000Y-42130000D01*
X33259000Y-42137000D01*
X33260000Y-42143000D01*
X33260000Y-42150000D01*
X33260000Y-42350000D01*
X33260000Y-42357000D01*
X33259000Y-42363000D01*
X33258000Y-42370000D01*
X33257000Y-42376000D01*
X33256000Y-42382000D01*
X33254000Y-42389000D01*
X33252000Y-42395000D01*
X33249000Y-42401000D01*
X33246000Y-42407000D01*
X33243000Y-42412000D01*
X33240000Y-42418000D01*
X33236000Y-42423000D01*
X33232000Y-42429000D01*
X33228000Y-42434000D01*
X33223000Y-42438000D01*
X33219000Y-42443000D01*
X33214000Y-42447000D01*
X33208000Y-42451000D01*
X33203000Y-42455000D01*
X33198000Y-42458000D01*
X33192000Y-42461000D01*
X33186000Y-42464000D01*
X33180000Y-42467000D01*
X33174000Y-42469000D01*
X33167000Y-42471000D01*
X33161000Y-42472000D01*
X33155000Y-42473000D01*
X33148000Y-42474000D01*
X33142000Y-42475000D01*
X33135000Y-42475000D01*
X32695000Y-42475000D01*
X32688000Y-42475000D01*
X32682000Y-42474000D01*
X32675000Y-42473000D01*
X32669000Y-42472000D01*
X32663000Y-42471000D01*
X32656000Y-42469000D01*
X32650000Y-42467000D01*
X32644000Y-42464000D01*
X32638000Y-42461000D01*
X32632000Y-42458000D01*
X32627000Y-42455000D01*
X32622000Y-42451000D01*
X32616000Y-42447000D01*
X32611000Y-42443000D01*
X32607000Y-42438000D01*
X32602000Y-42434000D01*
X32598000Y-42429000D01*
X32594000Y-42423000D01*
X32590000Y-42418000D01*
X32587000Y-42412000D01*
X32584000Y-42407000D01*
X32581000Y-42401000D01*
X32578000Y-42395000D01*
X32576000Y-42389000D01*
X32574000Y-42382000D01*
X32573000Y-42376000D01*
X32572000Y-42370000D01*
X32571000Y-42363000D01*
X32570000Y-42357000D01*
X32570000Y-42350000D01*
X32570000Y-42150000D01*
X32570000Y-42143000D01*
X32571000Y-42137000D01*
X32572000Y-42130000D01*
X32573000Y-42124000D01*
X32574000Y-42118000D01*
X32576000Y-42111000D01*
X32578000Y-42105000D01*
X32581000Y-42099000D01*
X32584000Y-42093000D01*
X32587000Y-42088000D01*
X32590000Y-42082000D01*
X32594000Y-42077000D01*
X32598000Y-42071000D01*
X32602000Y-42066000D01*
X32607000Y-42062000D01*
X32611000Y-42057000D01*
X32616000Y-42053000D01*
X32622000Y-42049000D01*
X32627000Y-42045000D01*
X32632000Y-42042000D01*
X32638000Y-42039000D01*
X32644000Y-42036000D01*
X32650000Y-42033000D01*
X32656000Y-42031000D01*
X32663000Y-42029000D01*
X32669000Y-42028000D01*
X32675000Y-42027000D01*
X32682000Y-42026000D01*
X32688000Y-42025000D01*
X32695000Y-42025000D01*
X33135000Y-42025000D01*
X33142000Y-42025000D01*
X33148000Y-42026000D01*
G36*
X33148000Y-42026000D02*
G01*
X33155000Y-42027000D01*
X33161000Y-42028000D01*
X33167000Y-42029000D01*
X33174000Y-42031000D01*
X33180000Y-42033000D01*
X33186000Y-42036000D01*
X33192000Y-42039000D01*
X33198000Y-42042000D01*
X33203000Y-42045000D01*
X33208000Y-42049000D01*
X33214000Y-42053000D01*
X33219000Y-42057000D01*
X33223000Y-42062000D01*
X33228000Y-42066000D01*
X33232000Y-42071000D01*
X33236000Y-42077000D01*
X33240000Y-42082000D01*
X33243000Y-42088000D01*
X33246000Y-42093000D01*
X33249000Y-42099000D01*
X33252000Y-42105000D01*
X33254000Y-42111000D01*
X33256000Y-42118000D01*
X33257000Y-42124000D01*
X33258000Y-42130000D01*
X33259000Y-42137000D01*
X33260000Y-42143000D01*
X33260000Y-42150000D01*
X33260000Y-42350000D01*
X33260000Y-42357000D01*
X33259000Y-42363000D01*
X33258000Y-42370000D01*
X33257000Y-42376000D01*
X33256000Y-42382000D01*
X33254000Y-42389000D01*
X33252000Y-42395000D01*
X33249000Y-42401000D01*
X33246000Y-42407000D01*
X33243000Y-42412000D01*
X33240000Y-42418000D01*
X33236000Y-42423000D01*
X33232000Y-42429000D01*
X33228000Y-42434000D01*
X33223000Y-42438000D01*
X33219000Y-42443000D01*
X33214000Y-42447000D01*
X33208000Y-42451000D01*
X33203000Y-42455000D01*
X33198000Y-42458000D01*
X33192000Y-42461000D01*
X33186000Y-42464000D01*
X33180000Y-42467000D01*
X33174000Y-42469000D01*
X33167000Y-42471000D01*
X33161000Y-42472000D01*
X33155000Y-42473000D01*
X33148000Y-42474000D01*
X33142000Y-42475000D01*
X33135000Y-42475000D01*
X32695000Y-42475000D01*
X32688000Y-42475000D01*
X32682000Y-42474000D01*
X32675000Y-42473000D01*
X32669000Y-42472000D01*
X32663000Y-42471000D01*
X32656000Y-42469000D01*
X32650000Y-42467000D01*
X32644000Y-42464000D01*
X32638000Y-42461000D01*
X32632000Y-42458000D01*
X32627000Y-42455000D01*
X32622000Y-42451000D01*
X32616000Y-42447000D01*
X32611000Y-42443000D01*
X32607000Y-42438000D01*
X32602000Y-42434000D01*
X32598000Y-42429000D01*
X32594000Y-42423000D01*
X32590000Y-42418000D01*
X32587000Y-42412000D01*
X32584000Y-42407000D01*
X32581000Y-42401000D01*
X32578000Y-42395000D01*
X32576000Y-42389000D01*
X32574000Y-42382000D01*
X32573000Y-42376000D01*
X32572000Y-42370000D01*
X32571000Y-42363000D01*
X32570000Y-42357000D01*
X32570000Y-42350000D01*
X32570000Y-42150000D01*
X32570000Y-42143000D01*
X32571000Y-42137000D01*
X32572000Y-42130000D01*
X32573000Y-42124000D01*
X32574000Y-42118000D01*
X32576000Y-42111000D01*
X32578000Y-42105000D01*
X32581000Y-42099000D01*
X32584000Y-42093000D01*
X32587000Y-42088000D01*
X32590000Y-42082000D01*
X32594000Y-42077000D01*
X32598000Y-42071000D01*
X32602000Y-42066000D01*
X32607000Y-42062000D01*
X32611000Y-42057000D01*
X32616000Y-42053000D01*
X32622000Y-42049000D01*
X32627000Y-42045000D01*
X32632000Y-42042000D01*
X32638000Y-42039000D01*
X32644000Y-42036000D01*
X32650000Y-42033000D01*
X32656000Y-42031000D01*
X32663000Y-42029000D01*
X32669000Y-42028000D01*
X32675000Y-42027000D01*
X32682000Y-42026000D01*
X32688000Y-42025000D01*
X32695000Y-42025000D01*
X33135000Y-42025000D01*
X33142000Y-42025000D01*
X33148000Y-42026000D01*
G37*
X33148000Y-42526000D02*
X33155000Y-42527000D01*
X33161000Y-42528000D01*
X33167000Y-42529000D01*
X33174000Y-42531000D01*
X33180000Y-42533000D01*
X33186000Y-42536000D01*
X33192000Y-42539000D01*
X33198000Y-42542000D01*
X33203000Y-42545000D01*
X33208000Y-42549000D01*
X33214000Y-42553000D01*
X33219000Y-42557000D01*
X33223000Y-42562000D01*
X33228000Y-42566000D01*
X33232000Y-42571000D01*
X33236000Y-42577000D01*
X33240000Y-42582000D01*
X33243000Y-42588000D01*
X33246000Y-42593000D01*
X33249000Y-42599000D01*
X33252000Y-42605000D01*
X33254000Y-42611000D01*
X33256000Y-42618000D01*
X33257000Y-42624000D01*
X33258000Y-42630000D01*
X33259000Y-42637000D01*
X33260000Y-42643000D01*
X33260000Y-42650000D01*
X33260000Y-42850000D01*
X33260000Y-42857000D01*
X33259000Y-42863000D01*
X33258000Y-42870000D01*
X33257000Y-42876000D01*
X33256000Y-42882000D01*
X33254000Y-42889000D01*
X33252000Y-42895000D01*
X33249000Y-42901000D01*
X33246000Y-42907000D01*
X33243000Y-42912000D01*
X33240000Y-42918000D01*
X33236000Y-42923000D01*
X33232000Y-42929000D01*
X33228000Y-42934000D01*
X33223000Y-42938000D01*
X33219000Y-42943000D01*
X33214000Y-42947000D01*
X33208000Y-42951000D01*
X33203000Y-42955000D01*
X33198000Y-42958000D01*
X33192000Y-42961000D01*
X33186000Y-42964000D01*
X33180000Y-42967000D01*
X33174000Y-42969000D01*
X33167000Y-42971000D01*
X33161000Y-42972000D01*
X33155000Y-42973000D01*
X33148000Y-42974000D01*
X33142000Y-42975000D01*
X33135000Y-42975000D01*
X32695000Y-42975000D01*
X32688000Y-42975000D01*
X32682000Y-42974000D01*
X32675000Y-42973000D01*
X32669000Y-42972000D01*
X32663000Y-42971000D01*
X32656000Y-42969000D01*
X32650000Y-42967000D01*
X32644000Y-42964000D01*
X32638000Y-42961000D01*
X32632000Y-42958000D01*
X32627000Y-42955000D01*
X32622000Y-42951000D01*
X32616000Y-42947000D01*
X32611000Y-42943000D01*
X32607000Y-42938000D01*
X32602000Y-42934000D01*
X32598000Y-42929000D01*
X32594000Y-42923000D01*
X32590000Y-42918000D01*
X32587000Y-42912000D01*
X32584000Y-42907000D01*
X32581000Y-42901000D01*
X32578000Y-42895000D01*
X32576000Y-42889000D01*
X32574000Y-42882000D01*
X32573000Y-42876000D01*
X32572000Y-42870000D01*
X32571000Y-42863000D01*
X32570000Y-42857000D01*
X32570000Y-42850000D01*
X32570000Y-42650000D01*
X32570000Y-42643000D01*
X32571000Y-42637000D01*
X32572000Y-42630000D01*
X32573000Y-42624000D01*
X32574000Y-42618000D01*
X32576000Y-42611000D01*
X32578000Y-42605000D01*
X32581000Y-42599000D01*
X32584000Y-42593000D01*
X32587000Y-42588000D01*
X32590000Y-42582000D01*
X32594000Y-42577000D01*
X32598000Y-42571000D01*
X32602000Y-42566000D01*
X32607000Y-42562000D01*
X32611000Y-42557000D01*
X32616000Y-42553000D01*
X32622000Y-42549000D01*
X32627000Y-42545000D01*
X32632000Y-42542000D01*
X32638000Y-42539000D01*
X32644000Y-42536000D01*
X32650000Y-42533000D01*
X32656000Y-42531000D01*
X32663000Y-42529000D01*
X32669000Y-42528000D01*
X32675000Y-42527000D01*
X32682000Y-42526000D01*
X32688000Y-42525000D01*
X32695000Y-42525000D01*
X33135000Y-42525000D01*
X33142000Y-42525000D01*
X33148000Y-42526000D01*
G36*
X33148000Y-42526000D02*
G01*
X33155000Y-42527000D01*
X33161000Y-42528000D01*
X33167000Y-42529000D01*
X33174000Y-42531000D01*
X33180000Y-42533000D01*
X33186000Y-42536000D01*
X33192000Y-42539000D01*
X33198000Y-42542000D01*
X33203000Y-42545000D01*
X33208000Y-42549000D01*
X33214000Y-42553000D01*
X33219000Y-42557000D01*
X33223000Y-42562000D01*
X33228000Y-42566000D01*
X33232000Y-42571000D01*
X33236000Y-42577000D01*
X33240000Y-42582000D01*
X33243000Y-42588000D01*
X33246000Y-42593000D01*
X33249000Y-42599000D01*
X33252000Y-42605000D01*
X33254000Y-42611000D01*
X33256000Y-42618000D01*
X33257000Y-42624000D01*
X33258000Y-42630000D01*
X33259000Y-42637000D01*
X33260000Y-42643000D01*
X33260000Y-42650000D01*
X33260000Y-42850000D01*
X33260000Y-42857000D01*
X33259000Y-42863000D01*
X33258000Y-42870000D01*
X33257000Y-42876000D01*
X33256000Y-42882000D01*
X33254000Y-42889000D01*
X33252000Y-42895000D01*
X33249000Y-42901000D01*
X33246000Y-42907000D01*
X33243000Y-42912000D01*
X33240000Y-42918000D01*
X33236000Y-42923000D01*
X33232000Y-42929000D01*
X33228000Y-42934000D01*
X33223000Y-42938000D01*
X33219000Y-42943000D01*
X33214000Y-42947000D01*
X33208000Y-42951000D01*
X33203000Y-42955000D01*
X33198000Y-42958000D01*
X33192000Y-42961000D01*
X33186000Y-42964000D01*
X33180000Y-42967000D01*
X33174000Y-42969000D01*
X33167000Y-42971000D01*
X33161000Y-42972000D01*
X33155000Y-42973000D01*
X33148000Y-42974000D01*
X33142000Y-42975000D01*
X33135000Y-42975000D01*
X32695000Y-42975000D01*
X32688000Y-42975000D01*
X32682000Y-42974000D01*
X32675000Y-42973000D01*
X32669000Y-42972000D01*
X32663000Y-42971000D01*
X32656000Y-42969000D01*
X32650000Y-42967000D01*
X32644000Y-42964000D01*
X32638000Y-42961000D01*
X32632000Y-42958000D01*
X32627000Y-42955000D01*
X32622000Y-42951000D01*
X32616000Y-42947000D01*
X32611000Y-42943000D01*
X32607000Y-42938000D01*
X32602000Y-42934000D01*
X32598000Y-42929000D01*
X32594000Y-42923000D01*
X32590000Y-42918000D01*
X32587000Y-42912000D01*
X32584000Y-42907000D01*
X32581000Y-42901000D01*
X32578000Y-42895000D01*
X32576000Y-42889000D01*
X32574000Y-42882000D01*
X32573000Y-42876000D01*
X32572000Y-42870000D01*
X32571000Y-42863000D01*
X32570000Y-42857000D01*
X32570000Y-42850000D01*
X32570000Y-42650000D01*
X32570000Y-42643000D01*
X32571000Y-42637000D01*
X32572000Y-42630000D01*
X32573000Y-42624000D01*
X32574000Y-42618000D01*
X32576000Y-42611000D01*
X32578000Y-42605000D01*
X32581000Y-42599000D01*
X32584000Y-42593000D01*
X32587000Y-42588000D01*
X32590000Y-42582000D01*
X32594000Y-42577000D01*
X32598000Y-42571000D01*
X32602000Y-42566000D01*
X32607000Y-42562000D01*
X32611000Y-42557000D01*
X32616000Y-42553000D01*
X32622000Y-42549000D01*
X32627000Y-42545000D01*
X32632000Y-42542000D01*
X32638000Y-42539000D01*
X32644000Y-42536000D01*
X32650000Y-42533000D01*
X32656000Y-42531000D01*
X32663000Y-42529000D01*
X32669000Y-42528000D01*
X32675000Y-42527000D01*
X32682000Y-42526000D01*
X32688000Y-42525000D01*
X32695000Y-42525000D01*
X33135000Y-42525000D01*
X33142000Y-42525000D01*
X33148000Y-42526000D01*
G37*
%TD*%
D11*
%TO.C,J11*%
X53800000Y-54520000D03*
D12*
X53800000Y-51980000D03*
%TD*%
D13*
%TO.C,R4*%
X31900000Y-71812500D03*
X31900000Y-69987500D03*
%TD*%
D11*
%TO.C,J9*%
X53800000Y-69800000D03*
D12*
X53800000Y-67260000D03*
%TD*%
D14*
%TO.C,R3*%
X27750000Y-70587500D03*
X27750000Y-72412500D03*
%TD*%
D15*
%TO.C,C2*%
X18200000Y-45100000D03*
X16650000Y-45100000D03*
%TD*%
D16*
%TO.C,R6*%
X46250000Y-19300000D03*
X47900000Y-19300000D03*
%TD*%
D15*
%TO.C,C16*%
X25275000Y-64500000D03*
X23725000Y-64500000D03*
%TD*%
D17*
%TO.C,SW1*%
X50060000Y-34700000D03*
X45700000Y-34700000D03*
%TD*%
D18*
%TO.C,C9*%
X26975000Y-45250000D03*
X28525000Y-45250000D03*
%TD*%
%TO.C,C8*%
X26975000Y-43500000D03*
X28525000Y-43500000D03*
%TD*%
D19*
%TO.C,U1*%
X27000000Y-13460000D03*
X27000000Y-14730000D03*
X27000000Y-16000000D03*
X27000000Y-17270000D03*
X27000000Y-18540000D03*
X27000000Y-19810000D03*
X27000000Y-21080000D03*
X27000000Y-22350000D03*
X27000000Y-23620000D03*
X27000000Y-24890000D03*
X27000000Y-26160000D03*
X27000000Y-27430000D03*
X27000000Y-28700000D03*
X27000000Y-29970000D03*
D20*
X28765000Y-31220000D03*
X30035000Y-31220000D03*
X31305000Y-31220000D03*
X32575000Y-31220000D03*
X33845000Y-31220000D03*
X35115000Y-31220000D03*
X36385000Y-31220000D03*
X37655000Y-31220000D03*
X38925000Y-31220000D03*
X40195000Y-31220000D03*
X41465000Y-31220000D03*
X42735000Y-31220000D03*
D19*
X44500000Y-29970000D03*
X44500000Y-28700000D03*
X44500000Y-27430000D03*
X44500000Y-26160000D03*
X44500000Y-24890000D03*
X44500000Y-23620000D03*
X44500000Y-22350000D03*
X44500000Y-21080000D03*
X44500000Y-19810000D03*
X44500000Y-18540000D03*
X44500000Y-17270000D03*
X44500000Y-16000000D03*
X44500000Y-14730000D03*
X44500000Y-13460000D03*
D21*
X32850000Y-20480000D03*
X32850000Y-21880000D03*
X33550000Y-19780000D03*
X33550000Y-21180000D03*
X33550000Y-22580000D03*
X34250000Y-20480000D03*
D22*
X34250000Y-21180000D03*
D21*
X34250000Y-21880000D03*
X34950000Y-19780000D03*
X34950000Y-21180000D03*
X34950000Y-22580000D03*
X35650000Y-20480000D03*
X35650000Y-21880000D03*
%TD*%
D23*
%TO.C,R1*%
X25000000Y-53575000D03*
X25000000Y-51925000D03*
%TD*%
D16*
%TO.C,R7*%
X40575000Y-63680000D03*
X42225000Y-63680000D03*
%TD*%
%TO.C,R2*%
X22850000Y-20000000D03*
X24500000Y-20000000D03*
%TD*%
D14*
%TO.C,R5*%
X29750000Y-68837500D03*
X29750000Y-70662500D03*
%TD*%
D15*
%TO.C,C1*%
X18725000Y-46600000D03*
X17175000Y-46600000D03*
%TD*%
D24*
%TO.C,U7*%
X34600000Y-32690000D03*
X34600000Y-33960000D03*
X34600000Y-35230000D03*
X34600000Y-36500000D03*
X39550000Y-36500000D03*
X39550000Y-35230000D03*
X39550000Y-33960000D03*
X39550000Y-32690000D03*
%TD*%
D17*
%TO.C,SW3*%
X18740000Y-23500000D03*
X23100000Y-23500000D03*
%TD*%
D25*
%TO.C,C11*%
X34750000Y-38650000D03*
X34750000Y-40200000D03*
%TD*%
D26*
%TO.C,U8*%
X37837500Y-50155000D03*
X37837500Y-48885000D03*
X37837500Y-47615000D03*
X37837500Y-46345000D03*
X30662500Y-46345000D03*
X30662500Y-47615000D03*
X30662500Y-48885000D03*
X30662500Y-50155000D03*
%TD*%
D18*
%TO.C,C12*%
X26325000Y-49000000D03*
X27875000Y-49000000D03*
%TD*%
D27*
%TO.C,H1*%
X17000000Y-17000000D03*
%TD*%
D28*
%TO.C,J1*%
X16500000Y-67500000D03*
D29*
X16500000Y-72500000D03*
%TD*%
D30*
%TO.C,J8*%
X54500000Y-23580000D03*
D31*
X54500000Y-26120000D03*
X54500000Y-28660000D03*
X54500000Y-31200000D03*
X54500000Y-33740000D03*
X54500000Y-36280000D03*
X54500000Y-38820000D03*
X54500000Y-41360000D03*
X54500000Y-43900000D03*
X54500000Y-46440000D03*
%TD*%
D11*
%TO.C,J10*%
X53800000Y-62160000D03*
D12*
X53800000Y-59620000D03*
%TD*%
D32*
%TO.C,Q3*%
X43800000Y-52310000D03*
X43800000Y-54210000D03*
X45675000Y-53260000D03*
%TD*%
D25*
%TO.C,C18*%
X32000000Y-66475000D03*
X32000000Y-68025000D03*
%TD*%
D30*
%TO.C,J6*%
X47600000Y-82220000D03*
D31*
X47600000Y-84760000D03*
X47600000Y-87300000D03*
%TD*%
D33*
%TO.C,C15*%
X21250000Y-72525000D03*
X21250000Y-70975000D03*
%TD*%
D34*
%TO.C,U5*%
X29770000Y-34980000D03*
X30270000Y-34980000D03*
X30800000Y-34700000D03*
X30800000Y-34200000D03*
X30800000Y-33700000D03*
X30270000Y-33420000D03*
X29770000Y-33420000D03*
X29240000Y-33700000D03*
X29240000Y-34200000D03*
X29240000Y-34700000D03*
%TD*%
D33*
%TO.C,C10*%
X26250000Y-37775000D03*
X26250000Y-36225000D03*
%TD*%
D15*
%TO.C,C17*%
X25300000Y-62000000D03*
X23750000Y-62000000D03*
%TD*%
D35*
%TO.C,U2*%
X15400000Y-43000000D03*
X17700000Y-43000000D03*
D36*
X17700000Y-36700000D03*
D35*
X20000000Y-43000000D03*
%TD*%
D18*
%TO.C,C6*%
X26825000Y-33900000D03*
X28375000Y-33900000D03*
%TD*%
D37*
%TO.C,Y1*%
X34900000Y-42850000D03*
X37600000Y-42850000D03*
X37600000Y-41650000D03*
X34900000Y-41650000D03*
%TD*%
D30*
%TO.C,J5*%
X39730000Y-82220000D03*
D31*
X39730000Y-84760000D03*
X39730000Y-87300000D03*
%TD*%
D38*
%TO.C,P1*%
X20600000Y-52110000D03*
X20600000Y-57890000D03*
D39*
X22045000Y-51750000D03*
X22045000Y-52550000D03*
D40*
X22045000Y-53750000D03*
X22045000Y-54750000D03*
X22045000Y-55250000D03*
X22045000Y-56250000D03*
D39*
X22045000Y-57450000D03*
X22045000Y-58250000D03*
X22045000Y-58250000D03*
X22045000Y-57450000D03*
D40*
X22045000Y-56750000D03*
X22045000Y-55750000D03*
X22045000Y-54250000D03*
X22045000Y-53250000D03*
D39*
X22045000Y-52550000D03*
X22045000Y-51750000D03*
D41*
X21130000Y-50680000D03*
D42*
X16950000Y-50680000D03*
D41*
X21130000Y-59320000D03*
D42*
X16950000Y-59320000D03*
%TD*%
D16*
%TO.C,R13*%
X43975000Y-72510000D03*
X45625000Y-72510000D03*
%TD*%
D27*
%TO.C,H4*%
X55000000Y-85000000D03*
%TD*%
D30*
%TO.C,J3*%
X23990000Y-82220000D03*
D31*
X23990000Y-84760000D03*
X23990000Y-87300000D03*
%TD*%
D33*
%TO.C,C14*%
X21000000Y-69525000D03*
X21000000Y-67975000D03*
%TD*%
D43*
%TO.C,U6*%
X25462500Y-67050000D03*
X25462500Y-68000000D03*
X25462500Y-68950000D03*
X27737500Y-68950000D03*
X27737500Y-68000000D03*
X27737500Y-67050000D03*
%TD*%
D15*
%TO.C,C3*%
X17775000Y-29250000D03*
X16225000Y-29250000D03*
%TD*%
D32*
%TO.C,Q4*%
X44362500Y-75810000D03*
X44362500Y-77710000D03*
X46237500Y-76760000D03*
%TD*%
D16*
%TO.C,R8*%
X46250000Y-20900000D03*
X47900000Y-20900000D03*
%TD*%
D18*
%TO.C,C7*%
X26325000Y-47000000D03*
X27875000Y-47000000D03*
%TD*%
D32*
%TO.C,Q2*%
X43612500Y-59810000D03*
X43612500Y-61710000D03*
X45487500Y-60760000D03*
%TD*%
D16*
%TO.C,R10*%
X46350000Y-22500000D03*
X48000000Y-22500000D03*
%TD*%
D33*
%TO.C,C5*%
X24500000Y-15300000D03*
X24500000Y-13750000D03*
%TD*%
D16*
%TO.C,R12*%
X46275000Y-24300000D03*
X47925000Y-24300000D03*
%TD*%
D33*
%TO.C,C13*%
X23300000Y-69400000D03*
X23300000Y-67850000D03*
%TD*%
D16*
%TO.C,R9*%
X46475000Y-58260000D03*
X48125000Y-58260000D03*
%TD*%
D32*
%TO.C,Q1*%
X43800000Y-67060000D03*
X43800000Y-68960000D03*
X45675000Y-68010000D03*
%TD*%
D11*
%TO.C,J2*%
X53800000Y-77440000D03*
D12*
X53800000Y-74900000D03*
%TD*%
D16*
%TO.C,R11*%
X47475000Y-66260000D03*
X49125000Y-66260000D03*
%TD*%
D30*
%TO.C,J4*%
X31860000Y-82220000D03*
D31*
X31860000Y-84760000D03*
X31860000Y-87300000D03*
%TD*%
D18*
%TO.C,C4*%
X41975000Y-36750000D03*
X43525000Y-36750000D03*
%TD*%
D27*
%TO.C,H2*%
X55000000Y-17000000D03*
%TD*%
D33*
%TO.C,C19*%
X22500000Y-16525000D03*
X22500000Y-14975000D03*
%TD*%
D27*
%TO.C,H3*%
X17000000Y-85000000D03*
%TD*%
M02*
