M48
; DRILL file {KiCad 9.0.6} date 2025-12-30T19:39:21-0800
; FORMAT={-:-/ absolute / metric / decimal}
; #@! TF.CreationDate,2025-12-30T19:39:21-08:00
; #@! TF.GenerationSoftware,Kicad,Pcbnew,9.0.6
; #@! TF.FileFunction,Plated,1,2,PTH
FMAT,2
METRIC
; #@! TA.AperFunction,Plated,PTH,ComponentDrill
T1C0.200
; #@! TA.AperFunction,Plated,PTH,ViaDrill
T2C0.300
; #@! TA.AperFunction,Plated,PTH,ComponentDrill
T3C0.600
; #@! TA.AperFunction,Plated,PTH,ComponentDrill
T4C1.000
; #@! TA.AperFunction,Plated,PTH,ComponentDrill
T5C1.200
; #@! TA.AperFunction,Plated,PTH,ComponentDrill
T6C2.700
%
G90
G05
T1
X32.85Y-20.48
X32.85Y-21.88
X33.55Y-19.78
X33.55Y-21.18
X33.55Y-22.58
X34.25Y-20.48
X34.25Y-21.88
X34.95Y-19.78
X34.95Y-21.18
X34.95Y-22.58
X35.65Y-20.48
X35.65Y-21.88
T2
X16.4Y-77.6
X16.8Y-63.6
X17.668Y-82.28
X20.95Y-39.415
X22.484Y-71.174
X24.557Y-39.495
X24.659Y-18.608
X27.391Y-31.195
X27.7Y-44.425
X28.331Y-19.974
X28.331Y-23.328
X28.989Y-29.29
X29.474Y-29.964
X29.704Y-40.255
X30.01Y-34.075
X30.046Y-36.123
X30.9Y-39.482
X32.724Y-78.838
X33.038Y-48.295
X33.302Y-37.607
X34.102Y-34.055
X35.873Y-33.224
X36.0Y-27.829
X36.19Y-46.684
X37.176Y-79.261
X37.839Y-80.302
X38.096Y-44.119
X38.705Y-43.375
X39.154Y-50.006
X39.857Y-39.033
X40.405Y-43.67
X42.02Y-61.2
X43.926Y-56.941
X44.362Y-77.71
X46.687Y-66.942
X47.2Y-79.4
X47.476Y-38.211
X47.939Y-40.174
X48.2Y-60.459
X48.2Y-72.1
X48.256Y-64.953
X48.882Y-39.415
X49.861Y-30.71
X50.674Y-32.959
X52.302Y-27.829
X56.341Y-30.693
X58.627Y-56.792
T4
X23.99Y-82.22
X23.99Y-84.76
X23.99Y-87.3
X31.86Y-82.22
X31.86Y-84.76
X31.86Y-87.3
X39.73Y-82.22
X39.73Y-84.76
X39.73Y-87.3
X47.6Y-82.22
X47.6Y-84.76
X47.6Y-87.3
X54.5Y-23.58
X54.5Y-26.12
X54.5Y-28.66
X54.5Y-31.2
X54.5Y-33.74
X54.5Y-36.28
X54.5Y-38.82
X54.5Y-41.36
X54.5Y-43.9
X54.5Y-46.44
T5
X53.8Y-51.98
X53.8Y-54.52
X53.8Y-59.62
X53.8Y-62.16
X53.8Y-67.26
X53.8Y-69.8
X53.8Y-74.9
X53.8Y-77.44
T6
X16.5Y-67.5
X16.5Y-72.5
T3
G00X17.25Y-50.68
M15
G01X16.65Y-50.68
M16
G05
G00X17.25Y-59.32
M15
G01X16.65Y-59.32
M16
G05
G00X21.68Y-50.68
M15
G01X20.58Y-50.68
M16
G05
G00X21.68Y-59.32
M15
G01X20.58Y-59.32
M16
G05
M30
